<?xml version="1.0" standalone="no"?>
<!DOCTYPE svg PUBLIC "-//W3C//DTD SVG 20010904//EN"
 "http://www.w3.org/TR/2001/REC-SVG-20010904/DTD/svg10.dtd">
<svg version="1.0" xmlns="http://www.w3.org/2000/svg"
 width="900.000000pt" height="1300.000000pt" viewBox="0 0 900.000000 1300.000000"
 preserveAspectRatio="xMidYMid meet">

<g transform="translate(0.000000,1300.000000) scale(0.100000,-0.100000)"
fill="#000000" stroke="none">
<path d="M4300 11129 c-41 -5 -133 -20 -205 -33 -100 -19 -162 -25 -270 -24
-247 1 -417 -51 -510 -155 -25 -27 -47 -63 -50 -80 -4 -22 7 -76 35 -172 23
-77 55 -185 70 -240 16 -55 34 -113 41 -130 6 -16 11 -44 10 -62 l-2 -31 68
-5 c37 -2 105 -10 151 -17 76 -12 84 -11 103 6 17 16 22 16 29 4 12 -19 12
-18 1 -56 -13 -46 2 -64 54 -64 24 0 47 5 50 10 3 6 41 10 83 11 87 1 262 15
219 17 -36 2 -67 19 -67 36 0 27 87 35 138 13 34 -14 31 -30 -8 -47 -18 -8 90
-9 393 -5 358 4 417 3 415 -9 -2 -8 0 -16 5 -17 19 -5 147 13 152 22 4 5 15 9
27 9 15 0 18 4 13 18 -24 56 -22 59 60 71 42 6 90 18 107 27 17 9 40 13 54 10
13 -4 35 -4 49 0 21 5 25 12 25 40 0 19 8 42 18 52 19 19 142 495 142 551 0
44 -32 94 -87 136 -62 47 -129 70 -264 91 -99 15 -132 16 -250 6 -121 -10
-152 -9 -270 8 -143 21 -388 25 -529 9z m30 -89 c0 -5 -9 -12 -20 -15 -16 -5
-20 -15 -20 -49 0 -69 -30 -134 -62 -136 -5 0 -9 39 -9 88 l-2 87 -10 -87 c-8
-76 -12 -88 -28 -88 -26 0 -39 37 -39 108 0 64 -12 94 -26 70 -8 -12 -12 -11
-26 4 -15 15 -15 18 -3 18 8 0 15 3 15 8 0 4 52 6 115 4 63 -2 115 -7 115 -12z
m-418 -2 c-29 -5 -50 -13 -47 -18 3 -4 -2 -13 -10 -20 -12 -10 -15 -40 -15
-147 0 -87 4 -132 10 -128 6 3 10 2 10 -4 0 -6 -16 -13 -35 -17 -38 -7 -49
-27 -12 -22 21 3 22 1 19 -68 -3 -47 0 -74 8 -79 8 -5 8 -10 0 -20 -7 -8 -9
-19 -5 -25 3 -5 2 -10 -4 -10 -5 0 -14 8 -20 17 -14 26 -24 10 -16 -25 7 -33
34 -50 46 -31 5 9 11 8 23 -4 15 -15 15 -17 -3 -27 -27 -14 -64 -13 -55 2 4 7
3 8 -4 4 -6 -4 -9 -13 -5 -21 4 -11 1 -13 -12 -8 -15 5 -17 2 -13 -20 4 -18 1
-27 -8 -27 -7 0 -14 9 -16 20 -4 27 -23 21 -20 -6 4 -26 -12 -33 -88 -41 -38
-4 -60 -2 -64 6 -5 8 -12 6 -24 -5 -18 -19 -19 -18 -25 55 -4 49 -3 52 9 30 7
-13 13 -32 14 -41 0 -10 5 -18 11 -18 6 0 9 6 6 13 -16 41 -137 419 -137 427
0 27 188 95 295 106 l64 7 3 66 c3 58 6 67 28 78 14 7 52 12 85 12 l60 -1 -53
-10z m1196 -30 c4 -32 -9 -36 -29 -11 -12 14 -12 16 0 9 9 -6 12 -5 9 5 -2 7
-15 17 -29 21 -19 5 -17 6 11 5 30 -2 35 -6 38 -29z m-791 -40 c-2 -13 -4 -5
-4 17 -1 22 1 32 4 23 2 -10 2 -28 0 -40z m560 -25 c-3 -10 -5 -4 -5 12 0 17
2 24 5 18 2 -7 2 -21 0 -30z m-1468 -35 c-14 -27 -14 -80 1 -108 6 -11 7 -20
2 -20 -9 0 -32 58 -32 84 0 16 28 66 37 66 2 0 -2 -10 -8 -22z m1966 -2 c28
-7 67 -20 88 -29 l38 -16 -5 29 c-2 17 -2 30 1 30 12 0 53 -52 48 -60 -3 -4
-36 -111 -74 -237 -94 -310 -81 -283 -138 -282 -76 2 -98 11 -101 42 -3 24 -8
28 -30 26 -37 -3 -112 12 -112 22 0 5 7 9 15 9 9 0 15 9 15 23 1 12 0 123 0
246 l-1 224 103 -6 c57 -4 126 -13 153 -21z m-1172 -100 c8 -19 -1 -26 -35
-26 -17 0 -28 5 -28 14 0 25 54 36 63 12z m77 -1 c0 -8 -3 -15 -7 -15 -5 0
-18 -3 -30 -6 -19 -5 -23 -2 -23 15 0 17 6 21 30 21 20 0 30 -5 30 -15z m-160
-5 c0 -5 -7 -10 -16 -10 -8 0 -12 5 -9 10 3 6 10 10 16 10 5 0 9 -4 9 -10z
m84 -52 c5 -10 7 -10 12 0 3 6 20 12 37 11 18 0 26 -3 20 -6 -22 -8 -14 -21
15 -26 15 -2 -34 -4 -108 -4 -74 0 -121 2 -105 4 17 2 46 6 65 9 30 6 32 8 15
14 -17 7 -15 9 12 9 17 1 34 -5 37 -11z m-735 -148 c0 -8 -7 1 -14 20 -18 46
-17 64 0 25 8 -16 14 -37 14 -45z m778 10 c-3 -11 -2 -18 2 -15 4 2 24 0 44
-6 31 -8 37 -14 37 -38 0 -39 -33 -51 -140 -51 -96 0 -124 6 -113 24 4 6 7 20
8 31 0 10 11 25 24 31 13 7 28 20 33 28 6 11 24 16 60 16 45 0 50 -2 45 -20z
m-758 -72 c6 -18 7 -28 2 -23 -10 12 -25 55 -18 55 3 0 10 -15 16 -32z m30
-98 c0 -10 -3 -8 -9 5 -12 27 -12 43 0 25 5 -8 9 -22 9 -30z m1386 0 c28 -6
61 -12 75 -14 14 -2 -108 -4 -270 -4 -354 1 -477 -2 -435 -11 55 -12 -91 -29
-185 -21 -57 4 -70 7 -40 9 25 1 63 6 85 11 27 6 -7 7 -102 4 -100 -4 -143 -3
-143 5 0 6 8 12 18 12 9 1 40 3 67 5 28 1 82 6 120 11 90 11 744 5 810 -7z
m-702 -77 c-13 -2 -33 -2 -45 0 -13 2 -3 4 22 4 25 0 35 -2 23 -4z m-737 -67
c29 8 63 -14 42 -27 -36 -23 -80 -4 -77 34 0 8 2 8 6 0 3 -8 14 -11 29 -7z
m773 -15 c16 -16 17 -20 4 -25 -19 -8 -133 -8 -133 -1 0 3 12 16 27 29 31 27
73 26 102 -3z"/>
<path d="M3793 10755 c0 -22 2 -30 4 -17 2 12 2 30 0 40 -3 9 -5 -1 -4 -23z"/>
<path d="M3797 10608 c6 -91 11 -103 12 -28 0 36 -3 71 -7 78 -5 7 -7 -16 -5
-50z"/>
<path d="M3998 10073 c7 -3 16 -2 19 1 4 3 -2 6 -13 5 -11 0 -14 -3 -6 -6z"/>
<path d="M4580 10070 c-44 -4 -18 -6 82 -6 82 1 148 4 148 9 0 8 -133 7 -230
-3z"/>
<path d="M4853 10063 c15 -2 39 -2 55 0 15 2 2 4 -28 4 -30 0 -43 -2 -27 -4z"/>
<path d="M4338 10053 c17 -2 47 -2 65 0 17 2 3 4 -33 4 -36 0 -50 -2 -32 -4z"/>
<path d="M3985 10040 c22 -4 58 -4 80 0 33 6 26 8 -40 8 -66 0 -73 -2 -40 -8z"/>
<path d="M4118 10043 c6 -2 18 -2 25 0 6 3 1 5 -13 5 -14 0 -19 -2 -12 -5z"/>
<path d="M4630 9939 c-19 -5 -187 -8 -372 -7 -219 2 -339 -1 -340 -7 -5 -17
282 -27 699 -23 150 1 196 -2 208 -12 17 -14 45 -22 45 -14 0 3 -16 20 -35 39
-33 33 -38 35 -102 34 -37 -1 -84 -5 -103 -10z"/>
<path d="M4832 9939 c2 -6 7 -10 11 -10 4 1 14 1 22 1 8 0 15 5 15 10 0 6 -12
10 -26 10 -14 0 -24 -5 -22 -11z"/>
<path d="M4943 9916 c-26 -15 -20 -26 13 -26 16 0 24 -7 26 -22 2 -18 12 -24
47 -30 23 -4 53 -10 65 -13 11 -3 3 4 -19 16 -51 27 -79 56 -62 63 9 3 8 7 -3
15 -19 13 -39 12 -67 -3z"/>
<path d="M3895 9880 c-4 -12 -24 -28 -46 -36 -21 -9 -39 -20 -39 -25 0 -8 96
22 127 40 16 9 16 10 -4 11 -16 0 -21 4 -17 15 4 8 1 15 -4 15 -6 0 -14 -9
-17 -20z"/>
<path d="M4041 9859 c-46 -9 -119 -47 -142 -75 -16 -20 -16 -20 72 23 37 18
83 34 103 35 20 2 35 7 33 12 -5 14 -17 15 -66 5z"/>
<path d="M4238 9848 c-16 -5 -28 -14 -28 -19 0 -12 13 -11 47 2 15 6 48 14 73
19 l45 8 -55 0 c-30 0 -67 -4 -82 -10z"/>
<path d="M4634 9844 c43 -8 81 -12 83 -10 9 9 -72 26 -117 25 -39 -1 -35 -3
34 -15z"/>
<path d="M4803 9853 c9 -2 23 -2 30 0 6 3 -1 5 -18 5 -16 0 -22 -2 -12 -5z"/>
<path d="M4860 9850 c0 -6 6 -10 13 -9 28 3 40 -4 87 -53 28 -29 50 -48 50
-43 0 22 -42 76 -72 95 -35 21 -78 27 -78 10z"/>
<path d="M2827 9000 c-104 -131 -124 -160 -200 -290 -27 -47 -55 -92 -61 -101
-13 -18 33 34 128 145 38 45 116 130 173 189 58 60 102 111 99 114 -3 3 -23 6
-46 7 -38 2 -42 -1 -93 -64z"/>
<path d="M3000 9032 c-95 -101 -241 -263 -280 -312 -25 -30 -51 -61 -58 -70
-128 -151 -262 -383 -350 -605 -53 -134 -102 -278 -102 -301 0 -11 -7 -39 -16
-63 -23 -68 -11 -58 20 17 65 153 187 371 270 481 14 19 23 38 20 43 -3 5 0 7
8 6 7 -2 12 5 12 14 -1 10 2 16 6 13 12 -8 50 44 44 60 -3 7 -1 16 5 20 7 4 8
-1 4 -12 -5 -16 -4 -16 9 -3 8 8 39 44 68 80 93 115 275 302 436 451 86 79
162 155 169 169 13 25 12 25 -30 26 -23 0 -51 4 -61 8 -11 4 -46 9 -79 11 -58
4 -61 3 -95 -33z m-360 -636 c0 -2 -8 -10 -17 -17 -16 -13 -17 -12 -4 4 13 16
21 21 21 13z"/>
<path d="M3335 9060 c-11 -5 -14 -9 -7 -9 6 -1 12 -8 12 -16 0 -18 -46 -65
-56 -56 -4 3 -4 -2 -1 -11 4 -13 2 -15 -10 -11 -13 5 -15 2 -10 -11 4 -10 3
-15 -3 -11 -6 4 -41 -24 -78 -62 -37 -37 -71 -67 -76 -65 -5 2 -6 -4 -3 -12 4
-10 1 -13 -9 -9 -10 4 -17 -2 -21 -16 -3 -11 -8 -21 -12 -21 -4 0 -21 -13 -39
-30 -18 -16 -38 -30 -44 -30 -6 0 -9 -3 -5 -6 3 -3 -20 -28 -52 -54 -60 -50
-126 -121 -143 -155 -7 -15 -4 -14 14 5 12 14 41 38 63 54 36 27 38 27 20 5
-11 -13 -37 -41 -57 -61 -21 -20 -38 -41 -38 -47 0 -6 -4 -11 -9 -11 -6 0 -18
-13 -27 -29 -10 -17 -21 -28 -26 -25 -5 3 -7 1 -6 -4 2 -5 -27 -50 -63 -98
-37 -49 -72 -99 -78 -112 -7 -13 -17 -20 -23 -16 -7 5 -9 2 -5 -9 3 -9 3 -17
-1 -19 -4 -2 -20 -21 -36 -42 -16 -22 -23 -36 -15 -32 8 4 6 1 -3 -7 -10 -8
-18 -19 -18 -26 0 -6 -3 -11 -8 -11 -4 0 -13 -9 -20 -21 -9 -14 -10 -19 -2
-14 9 5 9 1 0 -16 -19 -36 -42 -59 -52 -53 -4 3 -8 2 -7 -3 3 -19 -2 -34 -10
-29 -5 4 -7 -4 -3 -16 3 -14 2 -19 -6 -14 -7 4 -12 1 -12 -10 0 -9 -13 -38
-28 -63 -66 -108 -146 -304 -136 -334 4 -14 3 -17 -6 -12 -8 5 -11 4 -7 -2 4
-6 -7 -63 -23 -127 -17 -63 -37 -175 -46 -247 -8 -73 -17 -135 -19 -139 -5 -9
-20 -339 -20 -430 1 -36 7 -76 15 -90 18 -31 17 -40 30 210 14 263 17 296 36
405 14 88 62 265 84 315 l11 25 -6 -25 c-16 -81 -45 -248 -57 -325 -14 -97
-19 -568 -5 -581 14 -15 20 7 18 73 -2 69 14 317 25 406 5 34 10 45 16 35 6
-9 7 -6 3 10 -9 32 4 109 16 91 6 -9 7 -1 3 21 -4 24 -3 31 4 22 12 -17 26 46
16 74 -4 13 -3 15 3 6 6 -8 17 12 33 65 62 208 210 490 370 708 102 140 348
415 491 550 148 140 183 170 162 140 -12 -17 -35 -41 -52 -55 -23 -17 -28 -26
-19 -32 10 -6 8 -8 -4 -8 -10 0 -18 -4 -18 -10 0 -5 -6 -10 -14 -10 -21 0 -38
-24 -25 -37 8 -8 7 -13 0 -18 -6 -3 -11 -3 -10 2 4 25 -6 19 -56 -31 -36 -36
-53 -60 -49 -70 3 -9 1 -16 -6 -16 -6 0 -8 5 -5 10 3 6 1 10 -4 10 -6 0 -11
-6 -11 -14 0 -8 -5 -18 -12 -22 -7 -5 -8 -3 -3 6 5 8 4 11 -3 6 -6 -4 -9 -13
-6 -21 4 -9 -1 -18 -12 -21 -26 -10 -78 -65 -79 -86 -1 -15 1 -15 13 -5 13 10
14 9 4 -9 -6 -11 -19 -27 -28 -35 -9 -8 -34 -36 -54 -64 -21 -27 -47 -61 -59
-74 -11 -13 -21 -27 -21 -30 0 -3 -16 -24 -35 -46 -19 -22 -35 -45 -35 -52 0
-6 -3 -13 -8 -15 -11 -4 -112 -166 -112 -179 0 -6 -5 -7 -12 -3 -8 5 -9 2 -5
-9 3 -9 2 -19 -2 -22 -5 -3 -26 -39 -46 -80 -22 -46 -41 -73 -47 -69 -6 4 -8
3 -5 -3 7 -12 -11 -83 -21 -83 -4 0 -8 -8 -9 -17 -2 -22 -59 -192 -73 -215 -6
-10 -10 -28 -10 -40 0 -13 -4 -29 -9 -37 -5 -7 -4 -25 2 -40 11 -31 2 -85 -13
-76 -6 3 -10 1 -10 -4 0 -6 4 -11 10 -11 5 0 7 -7 4 -15 -4 -8 -10 -13 -14
-10 -11 7 -20 -48 -19 -109 2 -48 2 -49 9 -16 6 30 8 27 9 -26 2 -94 -11 -222
-20 -199 -7 19 -8 18 -8 -2 -1 -13 3 -23 8 -23 5 0 9 -23 9 -51 1 -101 13
-158 43 -199 25 -34 27 -40 13 -48 -15 -8 -15 -10 0 -15 9 -4 13 -13 10 -22
-5 -11 2 -17 26 -22 l33 -6 -35 -14 c-32 -13 -42 -12 -99 6 -74 25 -76 25 -95
7 -11 -11 -11 -16 -1 -19 9 -4 8 -8 -3 -16 -12 -9 -10 -11 10 -10 14 1 38 -3
53 -10 16 -6 48 -11 72 -11 24 0 47 -5 51 -11 5 -9 -15 -10 -75 -7 -123 7 -83
-12 51 -24 62 -6 127 -17 143 -25 l30 -14 -43 4 c-24 3 -40 1 -36 -4 3 -5 -20
-9 -50 -9 -31 0 -56 4 -56 8 0 5 -33 7 -72 6 -50 -3 -67 -1 -53 6 16 7 17 9 3
9 -9 1 -20 -3 -23 -9 -3 -5 -18 -10 -33 -11 l-27 -1 25 -7 c33 -9 40 -41 8
-41 -13 0 -30 -5 -38 -10 -12 -8 -8 -10 15 -11 29 -1 29 -1 5 -8 -21 -6 -18
-9 25 -16 28 -5 58 -7 69 -6 10 2 23 -3 27 -11 7 -10 9 -10 9 0 0 10 5 10 20
2 44 -24 20 -32 -72 -24 -86 6 -92 6 -79 -10 7 -9 23 -17 35 -17 20 -1 20 -2
1 -6 -11 -2 -30 -6 -42 -9 -31 -6 -29 -20 5 -29 l27 -7 -30 -12 -30 -12 49
-17 c27 -9 68 -17 91 -17 29 0 54 -8 81 -26 21 -14 47 -30 59 -35 13 -6 -1 -8
-47 -5 -38 2 -68 2 -68 1 0 -4 136 -36 168 -40 12 -1 26 -5 29 -9 3 -3 -9 -4
-28 -2 -19 2 -79 7 -134 11 -55 3 -116 8 -135 11 -27 3 -31 2 -18 -6 9 -6 68
-16 130 -23 64 -7 105 -16 95 -20 -9 -3 -17 -10 -16 -14 7 -42 0 -46 -63 -41
-61 5 -62 5 -30 -8 51 -22 39 -35 -30 -33 -85 2 -98 0 -70 -11 32 -14 27 -30
-10 -30 -53 -1 -10 -19 60 -26 33 -4 66 -10 73 -15 16 -9 21 -168 7 -186 -7
-8 -35 -13 -74 -13 -35 0 -75 -5 -88 -12 -26 -11 -26 -11 -5 -26 13 -9 41 -13
82 -12 97 4 97 4 97 -34 0 -30 6 -39 43 -61 23 -15 35 -25 26 -22 -27 9 -165
20 -158 14 8 -9 194 -44 229 -43 16 1 30 -2 30 -6 0 -5 -8 -8 -17 -8 -17 0
-240 24 -328 35 -60 7 -22 -10 60 -28 39 -8 97 -18 130 -22 33 -4 54 -10 48
-12 -7 -3 -13 -18 -13 -35 0 -27 -2 -29 -27 -24 -16 3 -48 7 -73 10 l-45 6 30
-15 c17 -8 40 -14 52 -15 12 0 24 -4 27 -9 4 -5 41 -13 84 -17 42 -5 67 -10
54 -12 -13 -2 -68 4 -123 12 -114 18 -205 21 -214 6 -3 -6 4 -10 17 -10 13 0
28 -4 34 -9 5 -5 18 -11 29 -14 11 -3 -2 -5 -29 -6 -70 -1 -47 -18 45 -34 l74
-12 0 -80 c0 -93 -4 -96 -91 -75 -29 7 -60 9 -71 5 -10 -5 -22 -7 -27 -6 -5 1
-4 -5 3 -13 20 -24 77 -38 122 -31 55 9 71 -6 67 -64 -3 -42 0 -47 32 -69 l35
-24 -65 7 c-36 3 -73 9 -82 11 -10 3 -18 3 -18 -1 0 -8 50 -26 90 -31 19 -3
51 -9 70 -14 19 -6 49 -11 65 -11 24 -1 25 -3 7 -6 -12 -2 -90 5 -173 17 -82
12 -152 20 -155 17 -7 -6 139 -45 203 -53 50 -6 52 -7 48 -36 -2 -17 -6 -32
-9 -35 -2 -3 -37 0 -76 7 -39 7 -74 10 -76 7 -3 -3 17 -13 45 -22 28 -9 51
-17 51 -18 0 -1 -44 -1 -97 1 -91 2 -96 1 -73 -12 14 -9 34 -16 45 -16 11 0
29 -7 39 -15 19 -14 17 -15 -20 -15 -54 0 -26 -17 43 -26 29 -3 56 -11 61 -18
14 -18 2 -107 -15 -113 -9 -4 -39 1 -67 10 -85 27 -94 27 -100 3 -7 -28 -7
-41 0 -33 3 3 17 1 31 -4 14 -5 50 -11 81 -13 59 -4 72 -15 72 -59 0 -34 -39
-53 -79 -39 -29 10 -101 4 -101 -8 0 -5 26 -14 58 -20 70 -13 140 -38 148 -52
5 -7 -4 -9 -27 -5 -19 4 -59 9 -89 12 -47 5 -52 4 -35 -6 11 -7 58 -23 105
-35 105 -28 80 -30 -62 -5 -161 27 -115 -4 57 -39 77 -15 80 -17 81 -44 1 -15
-5 -30 -12 -33 -7 -3 -45 3 -85 12 -39 8 -74 14 -76 11 -2 -2 4 -7 14 -9 130
-38 164 -49 161 -52 -1 -2 -37 3 -78 10 -97 18 -183 19 -178 3 2 -6 32 -21 65
-32 64 -22 88 -36 60 -36 -9 0 -18 4 -21 9 -3 4 -17 6 -31 3 -37 -7 -23 -14
41 -23 72 -10 89 -25 80 -73 -4 -19 -11 -38 -17 -41 -5 -4 -42 1 -81 10 -57
13 -73 13 -79 3 -10 -16 40 -38 86 -38 19 0 46 -4 60 -10 23 -9 26 -15 23 -47
l-3 -38 -81 3 c-45 2 -85 -1 -88 -6 -8 -13 23 -45 57 -60 36 -16 40 -15 33 3
-6 17 5 18 54 9 24 -5 31 -11 27 -25 -3 -11 0 -19 6 -19 6 0 8 -3 4 -6 -5 -5
-95 10 -137 23 -13 4 -13 4 0 -6 11 -8 12 -11 2 -11 -7 0 -11 -4 -7 -9 7 -13
93 -41 190 -63 107 -23 17 -14 -117 13 -53 10 -102 19 -110 19 -38 -2 96 -48
213 -74 22 -5 25 -10 21 -32 -6 -35 -19 -38 -92 -19 -34 9 -65 14 -68 11 -2
-3 1 -8 9 -10 76 -26 101 -36 74 -32 -51 8 -161 16 -142 10 27 -9 20 -27 -8
-20 -61 15 -3 -11 130 -59 14 -5 16 -9 7 -12 -10 -4 -7 -9 8 -20 23 -17 25
-70 2 -65 -7 1 -47 10 -88 19 -61 13 -77 14 -87 3 -9 -10 -9 -11 3 -8 8 3 33
-4 55 -16 22 -12 56 -23 75 -25 19 -1 41 -8 48 -14 18 -14 11 -73 -8 -70 -86
14 -139 23 -161 28 -23 6 -27 3 -33 -26 -3 -18 -2 -37 4 -43 7 -7 10 -6 10 3
0 10 3 11 13 2 8 -6 17 -7 23 -2 5 5 20 5 34 -1 14 -5 44 -11 67 -12 50 -2 53
-5 59 -45 6 -39 -3 -40 -111 -6 -44 14 -84 25 -89 25 -19 0 18 -30 50 -40 33
-11 46 -29 22 -31 -15 -1 48 -23 142 -50 56 -16 59 -18 20 -13 -25 3 -72 13
-105 21 -100 26 -125 31 -125 26 0 -8 134 -67 160 -70 59 -7 85 -19 88 -42 2
-13 0 -27 -5 -32 -4 -4 -45 1 -91 13 -79 20 -114 18 -82 -3 12 -8 10 -10 -10
-8 -14 1 -34 1 -45 0 l-20 -2 20 -16 c19 -15 19 -15 -10 -10 -55 11 66 -39
127 -52 52 -11 57 -15 56 -37 -2 -24 -31 -34 -42 -15 -3 5 -36 18 -73 29 -87
25 -131 35 -117 25 25 -19 43 -56 34 -73 -7 -14 -2 -21 25 -36 23 -12 30 -21
22 -26 -9 -6 -9 -10 2 -17 9 -6 10 -10 2 -12 -7 -3 -13 -16 -15 -30 -1 -13 -6
-30 -10 -37 -4 -7 -4 -12 1 -12 4 -1 -4 -8 -19 -16 -36 -19 -35 -28 5 -40 17
-5 31 -15 30 -21 -2 -7 4 -10 12 -7 8 4 15 1 15 -5 0 -6 7 -11 16 -11 9 0 12
-5 8 -12 -5 -8 -2 -9 10 -5 10 4 15 3 11 -3 -3 -6 -2 -10 3 -10 14 0 87 -63
119 -102 l27 -33 -40 36 c-59 55 -154 110 -154 90 0 -5 13 -14 30 -21 16 -7
34 -18 40 -26 7 -7 -13 0 -43 16 -33 19 -54 25 -54 17 0 -6 -3 -21 -6 -32 -6
-17 1 -25 39 -45 25 -14 50 -33 55 -43 7 -12 -3 -8 -32 12 -46 34 -72 40 -63
16 4 -8 11 -12 17 -8 6 3 7 1 3 -6 -4 -6 -2 -20 6 -29 12 -15 11 -16 -4 -3
-11 8 -18 9 -18 3 0 -6 10 -18 22 -26 12 -9 17 -16 11 -16 -15 0 -9 -161 8
-191 6 -12 9 -32 6 -46 -3 -18 -1 -23 9 -19 11 4 13 -1 8 -18 -4 -18 4 -30 35
-59 23 -20 41 -40 41 -43 0 -14 -56 9 -92 38 -40 31 -107 154 -109 199 0 13
-3 18 -6 12 -12 -32 19 -159 57 -227 42 -78 76 -114 132 -144 21 -10 35 -22
32 -24 -3 -3 11 -16 30 -28 20 -12 36 -28 36 -36 0 -8 4 -14 8 -14 5 0 19 -9
32 -20 13 -11 17 -20 10 -20 -25 0 9 -27 43 -34 21 -4 28 -9 19 -15 -12 -7 7
-17 96 -52 91 -36 499 -109 717 -129 66 -6 127 -13 135 -15 35 -10 532 -36
845 -45 776 -22 1461 16 2065 115 228 37 285 89 195 179 -16 15 -16 18 2 43
10 14 23 33 28 42 6 9 18 22 28 29 23 18 22 35 -3 27 -18 -6 -17 -3 6 22 29
30 84 138 84 164 0 8 11 30 25 49 14 19 30 52 36 74 26 96 59 281 58 324 l-1
47 -11 -45 -10 -45 -9 54 c-5 30 -15 62 -23 71 -21 23 -19 26 15 40 19 8 30
19 28 29 -1 9 1 22 5 28 6 9 3 11 -10 6 -16 -6 -16 -5 -4 10 19 24 12 27 -38
16 -24 -5 -46 -7 -49 -4 -3 3 3 5 12 5 11 0 16 5 13 13 -4 10 2 13 21 10 21
-4 24 -2 12 6 -9 7 -11 14 -5 19 6 4 21 22 34 41 21 30 25 47 27 132 2 92 1
98 -23 119 -21 18 -29 20 -55 11 -40 -14 -51 -14 -42 1 4 6 0 16 -9 23 -14 10
-12 14 18 28 23 11 33 21 29 31 -3 9 3 17 15 21 12 3 19 11 16 16 -4 5 -13 5
-23 0 -9 -5 -48 -16 -86 -26 -37 -9 -75 -19 -82 -22 -8 -3 -14 -1 -14 5 0 5
15 13 34 16 67 13 161 48 194 72 l32 25 0 115 0 116 -41 -7 c-51 -9 -51 11 1
37 40 20 52 46 43 88 -4 21 -13 32 -29 36 -13 3 -21 11 -18 19 4 10 -3 11 -33
4 -53 -12 -53 -12 -53 16 0 18 9 29 32 41 29 15 31 18 14 24 -17 6 -14 9 20
26 61 30 71 62 77 249 2 88 1 171 -2 185 -7 23 -12 25 -62 23 l-54 -2 33 17
c38 19 43 36 6 22 -14 -6 -27 -10 -28 -10 -2 0 -2 12 -1 27 1 19 9 30 29 38
l28 12 -34 10 -33 10 33 7 c17 4 32 12 32 17 0 5 7 9 15 9 31 0 42 52 48 225
4 94 4 180 1 192 -8 30 -28 35 -99 22 -119 -20 -138 -19 -52 4 48 13 93 29 99
35 10 10 6 11 -19 6 -28 -6 -31 -4 -26 15 3 11 14 23 24 26 10 4 19 11 19 16
0 10 -25 13 -85 9 -45 -2 -45 6 0 13 55 9 85 19 85 29 0 5 4 7 8 4 4 -2 18 10
30 28 21 31 22 44 23 210 1 166 0 179 -19 198 -11 11 -32 21 -46 21 l-27 0 22
15 22 15 -21 8 c-22 8 -31 29 -12 29 6 0 10 -6 10 -12 0 -9 4 -8 10 2 15 24
12 40 -9 40 -11 0 -21 4 -23 9 -2 5 -39 3 -88 -5 -88 -14 -137 -18 -128 -9 2
3 52 11 110 19 113 15 172 36 190 70 7 12 12 90 13 198 2 169 1 178 -19 196
-12 11 -32 23 -45 27 -24 7 -24 8 -6 21 17 13 16 14 -16 15 -19 1 -26 3 -16 6
9 2 17 11 17 18 0 8 8 18 17 24 15 8 12 11 -17 19 -19 6 -28 11 -19 11 9 1 34
18 56 39 48 45 54 73 43 206 -9 108 -16 119 -87 146 -38 14 -43 19 -26 24 28
9 46 48 41 90 -2 21 0 36 6 36 6 0 -6 16 -26 35 -45 44 -48 61 -46 261 0 89
-3 167 -7 174 -5 9 -4 11 3 6 7 -4 12 -21 12 -37 0 -54 17 -21 26 48 l8 68 7
-55 c4 -30 4 -59 -1 -65 -8 -10 -14 -63 -11 -100 0 -13 8 -21 19 -21 16 0 18
7 16 46 -1 25 -5 87 -8 138 -3 51 -8 97 -11 103 -4 5 -1 9 5 9 7 0 9 8 5 19
-10 33 -12 53 -19 181 -9 159 -35 469 -42 495 -12 45 -49 135 -56 135 -5 0 -8
4 -8 10 0 16 30 -1 31 -19 0 -9 3 -11 5 -4 7 17 -20 142 -55 253 -16 52 -30
91 -30 85 -1 -9 33 -267 44 -340 6 -36 26 -870 29 -1153 l1 -204 -33 -39 c-34
-39 -94 -83 -63 -46 7 10 10 17 6 17 -4 0 8 19 27 42 33 42 33 43 32 143 -1
90 -6 174 -19 305 -8 74 -13 184 -20 400 -4 131 -11 210 -18 219 -7 8 -7 12
-2 9 13 -8 9 298 -5 472 -19 228 -48 354 -127 565 -37 98 -47 103 -17 9 50
-154 64 -242 69 -409 3 -110 2 -149 -5 -125 -5 19 -7 43 -4 53 3 9 1 17 -4 17
-5 0 -12 14 -14 30 -3 17 0 30 5 30 5 0 -1 8 -13 18 -15 12 -22 31 -25 62 -1
25 -4 46 -5 48 -5 4 -6 16 -14 97 -10 108 -40 248 -66 315 -31 80 -98 209
-130 250 -15 19 -35 49 -44 65 -19 33 -18 30 31 -104 18 -51 48 -146 65 -210
31 -114 32 -119 32 -351 0 -228 -12 -389 -38 -515 -14 -66 -14 -73 -2 290 2
63 0 113 -4 110 -4 -2 -7 87 -7 198 0 228 -14 315 -76 488 -34 93 -104 239
-91 189 4 -14 10 -29 14 -35 17 -21 70 -213 80 -288 10 -77 14 -234 6 -226 -3
2 -7 28 -11 57 -3 29 -10 63 -15 77 -5 14 -7 32 -3 40 3 10 1 15 -8 13 -8 -2
-15 7 -17 20 -2 12 -7 22 -12 22 -5 0 -7 6 -4 14 3 8 1 31 -5 52 -5 22 -12 62
-16 89 -8 67 -31 147 -61 209 -14 29 -20 52 -14 54 5 2 10 8 10 13 0 5 -32 9
-70 9 -77 0 -97 -14 -65 -46 9 -9 14 -25 12 -36 -3 -10 -1 -16 3 -13 5 3 12
-9 15 -27 21 -124 33 -275 15 -188 -6 29 -8 21 -10 -40 -1 -41 -2 -94 0 -117
2 -51 -29 -205 -41 -197 -4 2 -5 84 -2 182 10 274 9 331 -12 409 l-19 72 -90
3 c-50 2 -125 0 -166 -4 -41 -3 -117 -2 -169 3 -124 12 -368 12 -409 0 -21 -6
-54 -6 -95 0 -34 6 -165 10 -292 11 -126 0 -284 1 -350 2 -183 2 -474 0 -530
-4 -49 -3 -230 4 -350 14 -33 3 -69 1 -80 -4z m461 -52 c4 -6 3 -8 -4 -4 -6 3
-22 2 -36 -4 -32 -12 -35 -3 -3 10 30 12 35 12 43 -2z m1766 -33 c-2 -14 -6
-25 -8 -25 -2 0 -4 11 -4 25 0 14 4 25 9 25 4 0 6 -11 3 -25z m274 -7 c-3 -18
-9 -53 -14 -78 l-9 -45 -2 55 c-2 51 -3 53 -16 36 -15 -20 -15 -20 -15 0 0 11
6 26 13 33 10 11 9 13 -5 8 -12 -4 -18 -1 -18 8 0 11 11 15 36 15 35 0 36 -1
30 -32z m-2111 2 c3 -5 1 -10 -4 -10 -6 0 -11 5 -11 10 0 6 2 10 4 10 3 0 8
-4 11 -10z m-50 -53 c-10 -8 -15 -19 -11 -25 5 -8 1 -10 -10 -5 -13 5 -15 3
-9 -8 4 -8 5 -11 0 -7 -4 4 -46 -29 -92 -75 -46 -45 -92 -86 -101 -90 -9 -5
36 43 102 107 65 64 123 116 129 116 6 0 3 -6 -8 -13z m2122 -59 c-3 -7 -5 -2
-5 12 0 14 2 19 5 13 2 -7 2 -19 0 -25z m-2147 -71 l-34 -32 30 36 c16 20 31
34 33 32 3 -2 -10 -18 -29 -36z m-218 -5 c4 -12 -3 -24 -16 -32 -19 -12 -20
-12 -7 3 10 13 10 17 1 17 -10 0 -10 3 0 15 16 19 17 19 22 -3z m169 -39 c-11
-21 -61 -66 -61 -56 0 6 61 72 68 73 1 0 -2 -8 -7 -17z m-83 -83 c-7 -11 -17
-20 -22 -20 -5 0 -1 9 9 20 10 11 20 20 22 20 2 0 -2 -9 -9 -20z m-361 -168
c-91 -92 -198 -201 -237 -242 -68 -71 -72 -73 -66 -43 3 18 1 33 -5 35 -13 4
33 89 80 146 28 35 36 41 41 27 5 -13 18 -4 69 44 35 34 66 61 70 61 11 1 76
71 76 83 1 7 6 11 12 10 6 -1 19 7 28 17 22 25 37 26 28 3 -5 -14 1 -12 28 8
73 57 36 12 -124 -149z m237 154 c-3 -8 -13 -17 -22 -21 -13 -5 -13 -2 3 15
21 24 26 25 19 6z m67 -45 c-12 -12 -21 -18 -21 -14 0 10 33 44 37 39 3 -2 -5
-14 -16 -25z m274 -253 c-45 -48 -56 -58 -68 -58 -4 0 16 23 45 50 65 61 76
65 23 8z m-875 -18 c-6 -12 -14 -20 -17 -17 -2 3 1 14 8 26 17 26 24 19 9 -9z
m360 27 c0 -2 -10 -12 -22 -23 l-23 -19 19 23 c18 21 26 27 26 19z m2677 -29
c-3 -8 -6 -5 -6 6 -1 11 2 17 5 13 3 -3 4 -12 1 -19z m430 -35 c-3 -10 -5 -2
-5 17 0 19 2 27 5 18 2 -10 2 -26 0 -35z m-2684 12 c-3 -9 -8 -14 -10 -11 -3
3 -2 9 2 15 9 16 15 13 8 -4z m-498 -33 l-28 -27 24 31 c13 17 26 30 28 27 3
-2 -8 -16 -24 -31z m-305 18 c0 -5 -4 -10 -10 -10 -5 0 -10 5 -10 10 0 6 5 10
10 10 6 0 10 -4 10 -10z m719 -78 c-133 -137 -247 -262 -335 -367 -91 -109
-242 -322 -296 -420 -18 -32 -28 -43 -28 -30 0 23 89 190 118 221 11 11 23 31
27 44 4 13 13 29 19 36 43 44 62 72 58 84 -3 8 -1 12 3 8 9 -9 45 29 45 47 0
7 10 20 22 31 14 12 18 14 13 4 -4 -8 -6 -13 -3 -10 44 47 100 112 91 106 -25
-14 -13 5 27 44 22 22 40 44 40 50 0 5 5 9 11 8 7 -2 25 15 40 37 16 22 33 39
39 38 5 -2 9 0 9 5 -3 19 2 30 17 36 12 5 14 3 8 -7 -5 -7 -2 -5 7 5 9 9 18
15 21 13 2 -3 26 18 53 45 27 27 51 47 54 44 3 -2 -24 -35 -60 -72z m115 59
c-8 -8 -43 -8 -38 0 2 4 13 7 24 6 10 -1 17 -3 14 -6z m2663 -83 c-2 -13 -4
-3 -4 22 0 25 2 35 4 23 2 -13 2 -33 0 -45z m-3587 -62 c0 -2 -8 -10 -17 -17
-16 -13 -17 -12 -4 4 13 16 21 21 21 13z m663 -170 c-10 -14 -22 -26 -26 -26
-5 0 2 13 15 29 28 35 37 32 11 -3z m-33 -40 c0 -2 -8 -10 -17 -17 -16 -13
-17 -12 -4 4 13 16 21 21 21 13z m3127 -148 c-3 -7 -5 -2 -5 12 0 14 2 19 5
13 2 -7 2 -19 0 -25z m-2538 -55 c-8 -10 -19 -23 -25 -30 -28 -30 -188 -278
-234 -363 -137 -253 -187 -425 -219 -760 -9 -91 -9 -89 -6 50 5 191 51 394
126 556 37 80 145 269 201 352 56 84 155 212 165 212 3 0 -1 -8 -8 -17z m2451
-112 c0 -5 3 -18 6 -28 5 -16 4 -16 -10 1 -18 23 -20 36 -6 36 6 0 10 -4 10
-9z m-4172 -56 c-6 -14 -13 -23 -15 -21 -5 5 15 46 22 46 3 0 -1 -11 -7 -25z
m4009 -57 c-3 -7 -5 -2 -5 12 0 14 2 19 5 13 2 -7 2 -19 0 -25z m-4047 -28
c-16 -40 -23 -33 -9 9 6 18 14 30 17 27 2 -3 -1 -19 -8 -36z m4267 -222 c-2
-13 -4 -5 -4 17 -1 22 1 32 4 23 2 -10 2 -28 0 -40z m200 -35 c-3 -10 -5 -4
-5 12 0 17 2 24 5 18 2 -7 2 -21 0 -30z m-3652 -40 c-9 -15 -13 -19 -10 -8 4
11 10 29 13 40 3 11 7 14 9 8 3 -7 -3 -24 -12 -40z m3442 -70 c-2 -16 -4 -5
-4 22 0 28 2 40 4 28 2 -13 2 -35 0 -50z m-3466 -16 c-10 -9 -11 -8 -5 6 3 10
9 15 12 12 3 -3 0 -11 -7 -18z m-644 -204 c-3 -10 -5 -2 -5 17 0 19 2 27 5 18
2 -10 2 -26 0 -35z m4097 -144 c-3 -5 -10 -7 -15 -3 -5 3 -7 10 -3 15 3 5 10
7 15 3 5 -3 7 -10 3 -15z m122 -113 c8 -38 13 -71 10 -74 -11 -11 -27 54 -31
127 -2 42 -2 63 1 46 3 -16 11 -61 20 -99z m-3836 -65 c0 -184 8 -229 48 -274
8 -9 12 -20 9 -23 -4 -4 -25 12 -48 35 l-41 41 7 152 c3 84 6 174 6 201 -1 26
4 47 9 47 6 0 10 -67 10 -179z m3515 -101 l-7 -22 -15 22 c-13 19 -13 24 -2
31 19 12 32 -5 24 -31z m232 -65 c-8 -136 -10 -138 -122 -134 -84 4 -84 4 -78
-20 5 -21 4 -22 -16 -12 -11 7 -21 16 -21 22 0 6 -5 7 -12 3 -7 -4 -8 -3 -4 5
4 6 11 9 16 6 4 -3 14 3 21 12 8 9 9 14 4 11 -6 -4 -17 -3 -25 3 -12 7 -10 9
7 9 12 0 25 -5 29 -11 3 -6 15 -9 25 -6 11 3 17 1 13 -4 -3 -5 15 -9 40 -9 25
0 48 5 51 10 3 6 14 10 24 10 13 0 19 8 19 25 0 27 -18 24 -19 -3 0 -14 -2
-13 -9 3 -14 32 -12 48 5 41 35 -13 45 4 45 75 0 38 3 69 7 69 3 0 3 -47 0
-105z m-165 11 c17 -25 3 -41 -37 -42 -22 -1 -44 -3 -50 -5 -10 -4 -15 3 -15
22 0 8 4 8 14 0 10 -9 16 -8 26 4 10 12 10 15 -4 15 -9 0 -16 6 -16 14 0 11 9
13 38 9 20 -3 40 -11 44 -17z m277 -46 c-13 -16 -25 -28 -27 -25 -7 7 27 55
39 55 5 0 0 -13 -12 -30z m-869 -10 c0 -5 -4 -10 -10 -10 -5 0 -10 5 -10 10 0
6 5 10 10 10 6 0 10 -4 10 -10z m515 -20 c3 -5 1 -10 -4 -10 -6 0 -11 5 -11
10 0 6 2 10 4 10 3 0 8 -4 11 -10z m-1228 -6 c-3 -3 -12 -4 -19 -1 -8 3 -5 6
6 6 11 1 17 -2 13 -5z m640 0 c-3 -3 -12 -4 -19 -1 -8 3 -5 6 6 6 11 1 17 -2
13 -5z m53 -4 c0 -5 -2 -10 -4 -10 -3 0 -8 5 -11 10 -3 6 -1 10 4 10 6 0 11
-4 11 -10z m457 -22 c-3 -8 -6 -5 -6 6 -1 11 2 17 5 13 3 -3 4 -12 1 -19z m3
-52 c0 -2 -8 -10 -17 -17 -16 -13 -17 -12 -4 4 13 16 21 21 21 13z m66 -22
c16 -14 43 -32 59 -39 40 -17 169 -37 191 -28 13 5 15 3 9 -7 -6 -9 -23 -11
-69 -5 -33 4 -71 8 -83 8 -13 1 -23 5 -23 8 0 4 -12 10 -27 14 -26 6 -112 75
-95 75 5 0 22 -12 38 -26z m244 -24 c-8 -5 -24 -9 -35 -9 -16 1 -16 2 5 9 35
11 48 11 30 0z m-233 -116 c-3 -3 -12 -4 -19 -1 -8 3 -5 6 6 6 11 1 17 -2 13
-5z m221 -1 c-10 -2 -28 -2 -40 0 -13 2 -5 4 17 4 22 1 32 -1 23 -4z m-3355
-10 c-13 -2 -35 -2 -50 0 -16 2 -5 4 22 4 28 0 40 -2 28 -4z m647 -13 c79 -6
3 -7 -245 -4 -197 2 -363 8 -367 12 -10 10 449 4 612 -8z m-1007 3 c-7 -2 -21
-2 -30 0 -10 3 -4 5 12 5 17 0 24 -2 18 -5z m185 -30 c-16 -2 -40 -2 -55 0
-16 2 -3 4 27 4 30 0 43 -2 28 -4z m10 -55 c9 -9 24 -9 64 0 37 9 75 9 126 3
40 -5 141 -7 225 -4 196 7 534 -13 553 -32 17 -17 0 -20 -136 -31 -47 -3 -94
-8 -105 -10 -11 -1 -62 -6 -112 -9 -79 -4 -93 -3 -93 10 0 8 -4 15 -10 15 -5
0 -10 -6 -10 -13 0 -10 -15 -11 -67 -5 -38 4 -84 11 -103 16 -19 5 -52 7 -72
4 -21 -2 -38 0 -38 5 0 5 -80 15 -177 22 -98 7 -182 16 -188 20 -5 3 10 9 35
12 75 10 95 10 108 -3z m3577 -42 c-11 -8 -24 -12 -29 -8 -5 3 -1 9 10 13 31
12 39 10 19 -5z m-90 -7 c4 -6 -1 -17 -11 -24 -23 -17 -34 -19 -34 -4 0 5 4 8
9 5 5 -3 14 1 21 9 9 11 4 14 -32 18 l-43 4 42 1 c23 1 45 -3 48 -9z m-4090
-39 c7 -11 -25 -11 -70 0 -27 7 -25 8 17 9 26 0 50 -3 53 -9z m4105 -10 c0
-11 -4 -20 -9 -20 -5 0 -7 9 -4 20 3 11 7 20 9 20 2 0 4 -9 4 -20z m-3735 -45
c-23 -8 -83 -10 -79 -3 3 4 24 8 47 7 23 0 38 -2 32 -4z m730 -5 c-3 -5 -1
-10 4 -10 6 0 11 5 11 11 0 12 138 11 155 -1 6 -4 24 -12 40 -18 l30 -11 -37
2 c-20 0 -34 5 -31 10 3 6 -12 7 -38 3 -24 -4 -72 -8 -107 -10 -115 -7 -77
-16 66 -16 78 0 142 -3 142 -7 0 -5 -21 -9 -48 -10 -26 -1 -62 -4 -80 -6 -18
-2 -35 -1 -37 4 -3 4 -32 7 -65 5 -38 -2 -60 1 -60 8 0 7 -3 7 -8 -1 -5 -8
-23 -9 -62 -3 l-55 8 45 1 c71 2 34 20 -50 24 -74 3 -73 3 25 7 82 2 92 4 55
10 -40 6 -36 7 33 8 50 1 76 -2 72 -8z m-512 -7 c-13 -2 -33 -2 -45 0 -13 2
-3 4 22 4 25 0 35 -2 23 -4z m100 0 c-7 -2 -21 -2 -30 0 -10 3 -4 5 12 5 17 0
24 -2 18 -5z m1374 -19 c-3 -3 -12 -4 -19 -1 -8 3 -5 6 6 6 11 1 17 -2 13 -5z
m186 -1 c-7 -2 -19 -2 -25 0 -7 3 -2 5 12 5 14 0 19 -2 13 -5z m-1133 -53 c0
-5 -5 -10 -11 -10 -5 0 -7 5 -4 10 3 6 8 10 11 10 2 0 4 -4 4 -10z m138 -2
c-5 -14 -68 -21 -68 -7 0 4 15 10 33 12 17 2 34 5 35 5 2 1 2 -4 0 -10z m-228
-19 c0 -5 -7 -9 -15 -9 -9 0 -12 6 -9 15 6 15 24 11 24 -6z m3220 11 c0 -6
-27 -8 -72 -6 -45 2 -63 1 -48 -4 22 -7 20 -8 -15 -9 -22 0 -51 2 -64 6 -23 6
-23 7 -6 13 33 12 205 12 205 0z m-3180 -4 c0 -3 -4 -8 -10 -11 -5 -3 -10 -1
-10 4 0 6 5 11 10 11 6 0 10 -2 10 -4z m2927 -2 c-3 -3 -12 -4 -19 -1 -8 3 -5
6 6 6 11 1 17 -2 13 -5z m136 -31 c-7 -2 -19 -2 -25 0 -7 3 -2 5 12 5 14 0 19
-2 13 -5z m60 0 c-7 -2 -19 -2 -25 0 -7 3 -2 5 12 5 14 0 19 -2 13 -5z m-2803
-43 c0 -5 -5 -10 -11 -10 -5 0 -7 5 -4 10 3 6 8 10 11 10 2 0 4 -4 4 -10z
m227 -41 c-1 -38 -3 -40 -32 -37 -41 4 -49 44 -11 54 14 3 25 9 24 13 -2 15 3
22 11 16 6 -3 9 -24 8 -46z m233 0 c0 -21 -4 -39 -9 -39 -9 0 -20 77 -12 85
11 12 21 -10 21 -46z m30 41 c0 -5 -5 -10 -11 -10 -5 0 -7 5 -4 10 3 6 8 10
11 10 2 0 4 -4 4 -10z m-651 -31 c16 -46 15 -65 -3 -50 -8 7 -25 9 -40 5 -20
-5 -25 -3 -21 7 20 58 26 69 39 69 8 0 19 -14 25 -31z m576 -9 c0 -29 -4 -36
-23 -38 -43 -6 -69 37 -40 66 7 7 24 12 38 10 21 -3 25 -8 25 -38z m283 12 c4
-30 18 -28 26 3 4 14 11 25 16 25 13 0 13 -1 -5 -44 -8 -20 -20 -36 -25 -36
-8 0 -40 62 -40 77 0 16 26 -7 28 -25z m440 14 c-18 -14 -25 -32 -9 -21 5 3
12 1 16 -5 3 -5 -1 -10 -9 -10 -22 0 -20 -17 2 -23 10 -3 6 -5 -10 -6 -26 -1
-28 2 -28 39 0 37 2 40 28 40 24 -1 25 -2 10 -14z m-1778 -17 c184 -6 337 -13
339 -15 14 -13 -35 -14 -280 -5 -384 15 -489 23 -489 34 0 6 19 7 48 4 26 -4
198 -11 382 -18z m685 -5 c0 -10 3 -24 8 -31 9 -14 -5 -25 -19 -15 -14 9 -26
57 -17 66 12 11 28 0 28 -20z m1211 -18 c1 -49 -20 -42 -24 8 -2 28 0 37 9 34
7 -2 14 -21 15 -42z m-1346 24 c0 -5 -7 -10 -15 -10 -20 0 -19 -17 1 -28 12
-7 13 -11 5 -16 -24 -15 -55 36 -34 57 10 11 43 8 43 -3z m58 -13 c2 -11 -3
-17 -15 -18 -17 0 -16 -1 1 -8 12 -5 16 -10 9 -14 -28 -18 -63 24 -42 50 16
18 43 13 47 -10z m38 -15 c-4 -26 -26 -26 -26 1 0 13 3 27 7 30 9 10 21 -12
19 -31z m112 15 c2 -12 -3 -17 -20 -18 -21 0 -21 -1 -4 -8 14 -5 16 -10 7 -15
-13 -9 -41 10 -41 28 0 34 52 46 58 13z m172 7 c11 -13 10 -16 -10 -21 -22 -6
-23 -7 -4 -14 16 -6 15 -8 -8 -8 -23 -1 -28 3 -28 22 0 39 27 50 50 21z m200
-14 c0 -16 -4 -30 -10 -30 -5 0 -10 14 -10 30 0 17 5 30 10 30 6 0 10 -13 10
-30z m36 8 l7 -23 9 24 c11 31 21 21 12 -13 -8 -33 -27 -33 -42 -1 -14 31 -15
35 -3 35 5 0 13 -10 17 -22z m102 -10 c3 -25 0 -28 -27 -28 -37 0 -41 21 -8
39 12 6 14 9 5 7 -10 -3 -18 -1 -18 5 0 6 10 9 23 7 16 -2 23 -11 25 -30z
m152 2 c0 -16 -4 -30 -10 -30 -5 0 -10 14 -10 30 0 17 5 30 10 30 6 0 10 -13
10 -30z m47 12 c-9 -9 -16 -20 -16 -24 -1 -5 -4 -8 -8 -8 -5 0 -8 5 -7 10 1 6
2 16 3 23 0 7 10 13 22 14 19 2 20 0 6 -15z m78 -13 c1 -36 -13 -59 -35 -59
-11 0 -20 5 -20 11 0 5 4 8 8 5 4 -2 14 -1 22 5 12 7 10 9 -8 9 -27 0 -39 24
-22 45 19 23 55 12 55 -16z m65 15 c11 -13 10 -16 -10 -21 -22 -6 -23 -7 -4
-14 17 -7 17 -8 -4 -8 -24 -1 -38 20 -28 44 7 19 30 19 46 -1z m78 -16 c2 -16
-1 -28 -7 -28 -6 0 -11 9 -11 20 0 11 -4 20 -10 20 -5 0 -10 -9 -10 -20 0 -11
-4 -20 -10 -20 -5 0 -10 13 -10 28 0 24 4 28 28 27 22 0 28 -5 30 -27z m152
22 c6 10 9 5 8 -17 -1 -24 -5 -30 -22 -30 -16 0 -21 6 -22 28 -1 24 1 27 13
17 11 -9 16 -9 23 2z m110 4 c0 -1 -6 -14 -14 -29 -8 -16 -17 -22 -21 -16 -10
17 3 48 20 48 8 0 15 -1 15 -3z m58 -25 c2 -19 -2 -28 -17 -32 -22 -5 -31 0
-31 20 0 7 7 13 15 13 8 0 15 5 15 11 0 5 -4 7 -10 4 -5 -3 -10 -1 -10 5 0 24
35 4 38 -21z m747 11 c-248 -14 -695 -21 -695 -10 0 9 179 13 680 16 l145 1
-130 -7z m610 -20 c7 0 16 6 18 13 3 6 6 2 6 -10 1 -13 7 -23 14 -23 8 0 7 -4
-3 -10 -20 -13 -90 -13 -90 0 0 6 7 13 15 16 8 4 15 14 16 23 0 10 2 11 6 4 2
-7 11 -13 18 -13z m-348 -32 c-3 -7 -5 -2 -5 12 0 14 2 19 5 13 2 -7 2 -19 0
-25z m-3639 -15 c34 -3 62 -9 62 -12 0 -4 -35 -4 -77 0 -43 4 -81 5 -85 2 -10
-5 -10 11 -1 21 4 3 14 4 22 0 9 -3 44 -8 79 -11z m1430 -30 c-21 -5 -23 -19
-5 -26 7 -3 5 -6 -5 -6 -21 -1 -24 -27 -5 -34 6 -3 2 -6 -11 -6 -21 -1 -23 2
-17 32 10 44 13 47 38 46 17 -1 18 -2 5 -6z m639 -15 c-3 -8 -6 -5 -6 6 -1 11
2 17 5 13 3 -3 4 -12 1 -19z m-1097 -2 c0 -5 6 -4 13 2 10 8 101 -4 137 -18 3
-1 13 -2 23 -1 10 2 17 -4 17 -14 0 -9 6 -15 13 -14 19 2 57 -12 57 -23 0 -5
9 -4 20 2 25 14 26 -1 1 -24 -16 -14 -41 -17 -159 -17 -206 -1 -310 9 -334 33
-19 19 -19 20 -1 38 10 9 22 15 26 13 4 -3 18 2 30 10 13 8 32 17 42 19 35 7
115 3 115 -6z m543 -23 c-3 -18 -9 -30 -14 -28 -4 3 -6 12 -4 20 13 42 16 48
19 44 2 -2 1 -19 -1 -36z m-43 12 c4 3 6 -3 3 -13 -7 -30 -30 -23 -25 7 3 14
7 20 10 13 2 -6 7 -10 12 -7z m88 4 c-10 -5 -18 -17 -18 -26 0 -9 -3 -14 -6
-10 -11 11 7 47 24 47 16 -1 15 -2 0 -11z m62 -1 c0 -7 -5 -20 -11 -28 -9 -12
-10 -11 -6 7 3 12 0 24 -7 27 -6 2 -3 5 7 5 9 1 17 -5 17 -11z m81 -11 c-10
-9 -11 -8 -5 6 3 10 9 15 12 12 3 -3 0 -11 -7 -18z m72 16 c-7 -2 -13 -11 -13
-18 0 -8 -5 -17 -12 -21 -6 -4 -9 -3 -6 2 3 5 8 17 11 27 4 9 12 17 19 16 10
0 10 -2 1 -6z m28 -12 c-6 -10 -7 -22 -3 -26 4 -5 1 -5 -6 -1 -9 5 -9 12 -2
27 6 10 13 19 16 19 2 0 0 -8 -5 -19z m25 -36 c-9 -14 -24 -25 -34 -24 -13 0
-12 2 5 9 12 5 24 22 29 42 5 22 9 27 12 15 2 -10 -4 -29 -12 -42z m41 33 c-3
-8 -6 -5 -6 6 -1 11 2 17 5 13 3 -3 4 -12 1 -19z m43 18 c0 -3 -4 -8 -10 -11
-5 -3 -10 -1 -10 4 0 6 5 11 10 11 6 0 10 -2 10 -4z m115 -34 c-17 -15 -18
-15 -6 0 7 9 9 23 5 30 -6 10 -4 11 7 0 11 -10 10 -15 -6 -30z m-342 8 c3 -11
1 -20 -4 -20 -5 0 -9 9 -9 20 0 11 2 20 4 20 2 0 6 -9 9 -20z m39 -12 c-8 -8
-9 -4 -5 13 4 13 8 18 11 10 2 -7 -1 -18 -6 -23z m271 12 c-3 -11 -7 -20 -9
-20 -2 0 -4 9 -4 20 0 11 4 20 9 20 5 0 7 -9 4 -20z m89 -12 c-8 -8 -9 -4 -5
13 4 13 8 18 11 10 2 -7 -1 -18 -6 -23z m104 20 c5 -7 3 -8 -6 -3 -10 6 -12 2
-7 -15 4 -16 3 -20 -5 -12 -6 6 -8 18 -5 26 8 19 13 20 23 4z m77 -8 c-3 -12
-8 -19 -11 -16 -5 6 5 36 12 36 2 0 2 -9 -1 -20z m64 -2 c-3 -8 -6 -5 -6 6 -1
11 2 17 5 13 3 -3 4 -12 1 -19z m-741 -8 c0 -11 -4 -20 -8 -20 -10 0 -11 24
-1 33 9 9 9 10 9 -13z m471 -2 c-3 -8 -6 -5 -6 6 -1 11 2 17 5 13 3 -3 4 -12
1 -19z m-775 -60 c-6 -6 -15 -8 -19 -4 -4 4 -1 11 7 16 19 12 27 3 12 -12z
m727 -95 c251 -78 411 -292 425 -567 12 -235 -133 -472 -350 -576 -105 -50
-175 -63 -299 -57 -180 9 -283 54 -411 182 -132 131 -191 282 -181 470 20 409
414 673 816 548z m2021 23 c0 -3 -4 -8 -10 -11 -5 -3 -10 -1 -10 4 0 6 5 11
10 11 6 0 10 -2 10 -4z m87 -18 c-3 -8 -6 -5 -6 6 -1 11 2 17 5 13 3 -3 4 -12
1 -19z m-30 -10 c-3 -8 -6 -5 -6 6 -1 11 2 17 5 13 3 -3 4 -12 1 -19z m-3797
-26 c0 -17 -37 -42 -62 -42 -23 0 -29 4 -26 17 4 22 44 42 69 36 10 -3 19 -8
19 -11z m49 -36 c24 -25 41 -96 23 -96 -15 0 -52 54 -52 77 -1 17 -1 17 -11 0
-8 -14 -7 -23 4 -35 22 -25 26 -47 28 -161 2 -74 -1 -106 -9 -109 -7 -2 -12 5
-12 17 l0 21 -20 -20 c-26 -26 -51 -25 -84 1 -21 16 -26 29 -26 64 0 57 23 85
78 92 48 6 56 29 22 63 -23 23 -33 24 -61 10 -16 -9 -19 -7 -19 9 0 20 18 31
54 31 15 0 25 9 33 30 14 36 23 37 52 6z m3753 -88 c-4 -15 -15 -18 -71 -17
-54 1 -60 2 -33 9 18 4 36 11 40 15 4 3 -5 4 -19 0 -15 -4 -29 -3 -32 2 -3 5
23 9 57 9 56 0 63 -2 58 -18z m-3712 -41 c0 -8 11 -12 28 -12 15 1 31 -1 36
-4 5 -2 41 -5 80 -5 l71 -1 3 -33 3 -33 -48 5 c-26 2 -63 5 -80 5 -29 1 -33 5
-34 29 l-2 27 -4 -27 c-2 -16 -9 -28 -14 -28 -5 0 -10 12 -10 28 l-1 27 -7
-25 c-3 -14 -14 -26 -23 -26 -15 -2 -18 6 -18 42 0 24 5 44 10 44 6 0 10 -6
10 -13z m3715 -7 c-3 -5 -41 -9 -83 -9 -60 1 -69 3 -42 9 55 11 132 11 125 0z
m-3206 -47 c-1 -27 -3 -40 -6 -30 -5 18 -6 18 -24 1 -14 -13 -22 -15 -30 -7
-6 6 -18 9 -25 6 -9 -3 -14 2 -14 16 0 28 -20 27 -21 -1 l-2 -23 -4 23 c-5 27
-23 29 -23 2 0 -11 -4 -20 -10 -20 -5 0 -10 14 -10 30 0 28 2 30 40 30 31 0
40 -4 40 -17 1 -16 2 -16 16 2 12 16 18 18 34 7 17 -11 20 -10 20 8 0 11 5 20
10 20 6 0 9 -21 9 -47z m31 37 c0 -5 -4 -10 -10 -10 -5 0 -10 5 -10 10 0 6 5
10 10 10 6 0 10 -4 10 -10z m-242 -14 c7 -4 12 -18 12 -32 0 -17 -5 -24 -19
-24 -29 0 -37 21 -15 37 18 14 18 14 -6 11 -16 -2 -27 -11 -31 -28 -6 -22 -7
-20 -8 11 -1 34 1 37 27 34 16 -1 34 -5 40 -9z m300 -36 c4 -37 -12 -33 -21 5
-4 15 -5 13 -6 -7 -2 -40 -21 -34 -21 6 0 28 3 33 23 32 18 -1 23 -8 25 -36z
m70 -3 c-2 -16 -10 -22 -28 -22 -28 0 -39 27 -20 50 18 21 52 1 48 -28z m-128
3 c0 -16 -4 -30 -10 -30 -5 0 -10 14 -10 30 0 17 5 30 10 30 6 0 10 -13 10
-30z m3137 14 c-3 -3 -12 -4 -19 -1 -8 3 -5 6 6 6 11 1 17 -2 13 -5z m-79 -11
c-10 -2 -28 -2 -40 0 -13 2 -5 4 17 4 22 1 32 -1 23 -4z m-81 -9 c-3 -3 -12
-4 -19 -1 -8 3 -5 6 6 6 11 1 17 -2 13 -5z m-3470 -67 c9 4 21 -1 29 -12 13
-18 14 -17 14 9 0 15 4 25 10 21 6 -3 10 -21 10 -40 0 -19 -4 -37 -10 -40 -5
-3 -10 2 -10 11 0 17 -1 16 -13 -1 -9 -12 -19 -15 -28 -10 -7 5 -25 9 -39 9
-34 1 -39 37 -8 66 23 21 23 21 26 1 2 -13 8 -18 19 -14z m3631 -8 c43 -2 -50
-18 -127 -22 -47 -2 -71 -2 -53 0 19 3 32 10 32 19 0 11 4 12 19 2 15 -9 25
-9 45 0 14 6 34 9 43 6 15 -5 16 -4 3 5 -8 5 -25 8 -37 5 -12 -3 -28 -2 -35 3
-8 5 5 10 37 13 42 4 51 2 53 -12 2 -10 11 -18 20 -19z m-3335 17 c3 -9 15
-12 31 -9 15 3 26 1 26 -6 0 -6 -4 -11 -10 -11 -5 0 -10 -11 -10 -24 0 -14 -4
-28 -10 -31 -6 -4 -10 7 -10 24 0 17 -5 31 -11 31 -7 0 -9 -11 -5 -31 4 -22 2
-29 -7 -27 -14 5 -23 98 -9 98 6 0 12 -6 15 -14z m158 2 c4 -73 3 -88 -7 -88
-7 0 -14 17 -16 38 -5 41 -1 62 13 62 5 0 9 -6 10 -12z m59 2 c0 -5 -4 -10
-10 -10 -5 0 -10 5 -10 10 0 6 5 10 10 10 6 0 10 -4 10 -10z m-342 -9 c18 -1
22 -7 22 -36 0 -19 -4 -35 -10 -35 -5 0 -10 14 -10 31 0 17 -4 28 -10 24 -5
-3 -10 -17 -10 -31 0 -36 -20 -29 -22 9 l-1 32 -4 -32 c-6 -46 -23 -41 -23 5
0 34 3 38 23 36 12 -1 32 -3 45 -3z m90 -32 c4 -34 -22 -57 -43 -39 -16 13
-20 51 -8 64 16 16 48 1 51 -25z m147 15 c19 -19 16 -43 -6 -57 -37 -23 -69
29 -37 61 16 16 23 15 43 -4z m123 -25 c5 -45 -47 -63 -62 -22 -12 30 4 54 32
51 21 -2 28 -9 30 -29z m78 6 c7 -29 -2 -59 -15 -51 -5 4 -8 17 -6 31 1 16 -2
24 -9 22 -6 -2 -12 -16 -14 -30 -5 -42 -22 -32 -22 13 0 38 2 40 30 40 23 0
31 -5 36 -25z m2154 -5 c0 -16 -4 -30 -10 -30 -11 0 -14 43 -3 53 11 12 13 8
13 -23z m52 21 c-10 -6 -10 -10 3 -21 10 -8 15 -9 15 -1 0 6 9 11 20 11 11 0
20 -6 20 -13 0 -8 -9 -22 -20 -32 -17 -15 -20 -16 -20 -2 0 10 -7 14 -22 11
-13 -2 -17 -1 -10 2 10 4 10 9 2 20 -13 15 -5 34 13 34 8 0 8 -3 -1 -9z m-398
-10 c5 -8 -26 -51 -37 -51 -5 0 -3 47 2 58 3 6 30 1 35 -7z m128 -21 c-4 -31
-20 -38 -40 -18 -9 9 -12 9 -12 0 0 -15 -26 -16 -35 -2 -11 17 15 42 30 30 14
-11 45 -3 45 11 0 5 4 9 8 9 5 0 7 -13 4 -30z m365 -4 c-7 -18 -27 -22 -27 -5
0 5 5 7 11 3 8 -4 9 1 4 17 -6 19 -5 22 5 12 7 -6 10 -19 7 -27z m62 12 c-1
-21 -2 -21 -7 -3 l-5 20 -8 -20 c-7 -19 -8 -19 -8 3 -1 13 5 22 14 22 9 0 15
-9 14 -22z m-347 0 c-8 -8 -9 -15 -1 -25 8 -9 8 -13 1 -13 -6 0 -14 5 -17 10
-9 15 2 40 17 40 9 0 9 -3 0 -12z m38 -14 c0 -14 -4 -23 -10 -19 -5 3 -10 15
-10 26 0 10 5 19 10 19 6 0 10 -12 10 -26z m70 7 c0 -11 -4 -22 -8 -25 -14 -9
-35 12 -29 28 9 23 37 20 37 -3z m197 -3 c-3 -8 -6 -5 -6 6 -1 11 2 17 5 13 3
-3 4 -12 1 -19z m-487 5 c0 -5 -5 -15 -10 -23 -8 -12 -10 -11 -10 8 0 12 5 22
10 22 6 0 10 -3 10 -7z m131 -10 c0 -15 2 -15 9 2 8 19 9 19 9 -2 1 -14 -5
-23 -14 -23 -8 0 -15 2 -15 4 0 2 -3 11 -6 20 -3 9 -1 16 5 16 6 0 11 -8 12
-17z m-2793 -115 c9 -9 12 -9 12 0 0 7 5 12 11 12 6 0 9 -7 5 -15 -3 -8 -1
-15 3 -15 5 0 11 6 14 14 7 17 67 12 79 -7 6 -9 8 -9 8 0 0 6 9 11 20 10 11
-1 20 -5 20 -10 0 -4 6 -5 13 0 6 4 22 6 35 4 12 -1 22 2 22 8 0 6 5 11 11 11
5 0 7 -4 4 -10 -3 -5 1 -10 9 -10 9 0 16 -6 16 -12 0 -9 4 -8 10 2 7 11 10 4
10 -25 -1 -32 -3 -37 -11 -22 -9 15 -12 15 -24 3 -10 -9 -27 -12 -52 -9 -21 2
-56 6 -77 7 -22 1 -41 7 -44 14 -2 8 -8 7 -20 -4 -14 -15 -17 -15 -27 0 -13
17 -30 23 -20 6 9 -14 -8 -13 -23 2 -9 9 -12 9 -12 0 0 -7 -4 -12 -10 -12 -5
0 -10 16 -10 35 0 37 8 43 28 23z m770 -2 c15 -8 40 -17 56 -21 15 -3 26 -8
23 -11 -9 -10 -72 7 -97 26 -30 23 -19 26 18 6z m3096 -1 c-10 -8 -14 -15 -7
-15 8 0 9 -9 2 -32 -5 -18 -6 -41 -3 -50 3 -11 0 -18 -8 -18 -10 0 -14 15 -13
55 0 42 -3 55 -15 56 -16 1 26 16 49 18 10 1 9 -4 -5 -14z m-635 -48 c1 -10
-3 -15 -9 -12 -5 3 -10 21 -9 38 0 27 2 29 9 12 5 -11 9 -28 9 -38z m-2879 32
c0 27 20 8 22 -21 l1 -33 4 33 c4 28 8 32 33 32 16 0 40 -4 54 -10 15 -5 28
-6 31 0 3 5 16 6 28 1 12 -4 34 -6 50 -5 17 2 27 -2 27 -10 0 -8 7 -19 15 -26
13 -11 15 -8 15 16 0 30 15 23 23 -11 4 -15 5 -13 6 8 2 42 16 32 16 -12 1
-36 -1 -38 -21 -31 -12 5 -25 6 -29 2 -4 -4 -13 2 -21 12 -11 16 -14 17 -14 4
0 -23 -129 -23 -137 0 -6 13 -8 13 -14 -4 -6 -15 -8 -12 -8 14 -1 17 -6 32
-11 32 -6 0 -8 -11 -6 -25 3 -14 0 -25 -5 -25 -5 0 -10 12 -10 28 -2 26 -2 26
-6 2 -7 -38 -19 -44 -41 -22 -19 19 -21 19 -25 4 -3 -9 -5 0 -6 22 -1 33 1 37
14 26 10 -9 15 -9 15 -1z m2561 -12 c14 -25 -7 -63 -27 -46 -8 6 -15 21 -15
33 -1 16 -3 13 -9 -9 l-8 -30 -1 28 c-1 20 -6 27 -21 27 -22 0 -29 -35 -7 -43
6 -2 9 -8 5 -12 -10 -10 -38 13 -38 32 0 26 23 39 68 38 30 0 47 -6 53 -18z
m91 14 c-6 -3 -9 -18 -8 -32 3 -22 -1 -26 -26 -27 -25 -1 -28 3 -28 33 0 31 2
33 36 33 21 0 32 -3 26 -7z m85 -13 c2 -20 1 -20 -19 -2 -21 19 -21 19 -16
-14 3 -21 1 -31 -6 -29 -13 4 -20 33 -13 51 9 22 53 17 54 -6z m100 2 c7 -8
12 -22 13 -30 0 -8 -9 -2 -21 15 l-21 30 6 -27 c5 -22 3 -27 -14 -25 -13 1
-16 5 -10 11 17 17 11 27 -9 14 -11 -7 -18 -15 -15 -19 5 -8 -38 -20 -45 -13
-3 3 2 10 12 15 9 6 17 19 17 29 0 15 7 19 38 17 20 -1 42 -9 49 -17z m-2570
-12 c-3 -8 -6 -5 -6 6 -1 11 2 17 5 13 3 -3 4 -12 1 -19z m273 18 c0 -11 -19
-15 -25 -6 -3 5 1 10 9 10 9 0 16 -2 16 -4z m1822 -10 c5 -8 8 -7 8 1 0 7 11
12 25 11 18 -2 25 -8 25 -23 0 -12 5 -26 10 -31 7 -7 -2 -10 -25 -11 -20 -1
-35 4 -35 10 0 8 -3 7 -9 -1 -10 -17 -44 -12 -53 8 -5 12 -7 12 -7 -2 -1 -10
-5 -18 -11 -18 -5 0 -10 8 -10 18 -1 16 -1 16 -14 0 -7 -10 -16 -18 -20 -18
-7 0 -8 54 -1 61 9 10 110 5 117 -5z m-2682 -68 c3 -4 24 -8 47 -9 32 -2 43
-7 47 -23 7 -28 -1 -33 -20 -10 -13 16 -15 17 -10 2 3 -10 1 -18 -4 -18 -9 0
-14 14 -11 33 3 17 -17 5 -22 -14 -4 -15 -11 -20 -22 -15 -9 3 -28 6 -41 6
-20 0 -24 5 -24 28 0 24 4 28 28 27 15 0 29 -3 32 -7z m3770 -4 c0 -17 -22
-14 -28 4 -2 7 3 12 12 12 9 0 16 -7 16 -16z m-590 -9 c11 -13 10 -14 -4 -9
-9 3 -16 10 -16 15 0 13 6 11 20 -6z m-2950 -6 c0 -4 14 -5 32 -3 17 2 28 1
25 -3 -4 -3 -2 -12 5 -20 6 -7 8 -17 4 -20 -13 -13 -91 -2 -103 15 -11 13 -13
13 -13 1 0 -11 -9 -14 -35 -11 -29 3 -34 8 -31 26 3 11 5 21 5 22 4 4 111 -3
111 -7z m2850 2 c0 -5 -6 -12 -12 -14 -8 -3 -6 -6 5 -6 9 -1 17 4 17 9 0 16
27 11 34 -6 4 -12 2 -15 -9 -10 -8 3 -15 2 -15 -3 0 -12 -39 -6 -53 8 -9 9 -9
14 3 21 19 12 30 12 30 1z m133 -11 c-3 -11 -13 -20 -22 -19 -10 0 -11 2 -3 6
6 2 12 11 12 19 0 8 4 14 9 14 5 0 7 -9 4 -20z m47 -12 c0 -5 -5 -8 -11 -8 -5
0 -7 5 -3 12 5 8 2 9 -11 4 -15 -5 -16 -4 -5 9 11 13 15 13 21 3 5 -7 9 -16 9
-20z m-2911 5 c9 -15 10 -16 11 -2 0 13 7 15 38 10 28 -5 38 -11 40 -29 2 -14
-2 -22 -11 -22 -21 0 -28 12 -16 27 9 10 8 13 -5 13 -10 0 -16 -8 -16 -21 0
-17 -5 -20 -25 -17 -14 3 -28 1 -31 -3 -11 -18 -24 -8 -24 19 0 44 21 56 39
25z m2251 2 c-6 -8 -9 -19 -5 -25 3 -5 1 -10 -4 -10 -12 0 -15 33 -4 43 13 14
25 7 13 -8z m195 -8 c0 -15 -6 -24 -17 -24 -22 -2 -23 11 -2 31 20 20 19 20
19 -7z m92 -10 c-5 -14 -56 -12 -71 3 -5 5 -6 13 -1 17 4 5 10 2 12 -4 7 -18
23 -16 23 2 0 13 4 14 21 5 11 -6 18 -17 16 -23z m63 27 c0 -14 -15 -34 -26
-34 -16 0 -16 2 -9 23 5 11 35 21 35 11z m53 -17 c3 -7 -7 -13 -24 -14 -31 -2
-36 6 -18 24 13 13 35 7 42 -10z m-2446 -3 c8 -21 -16 -47 -32 -34 -9 8 -15 8
-20 0 -5 -8 -11 -8 -19 -1 -7 6 -16 8 -19 4 -4 -3 -7 5 -7 18 0 23 4 25 46 26
31 1 47 -3 51 -13z m41 -31 c-9 -12 -9 -15 0 -9 6 4 12 2 12 -3 0 -6 -7 -11
-15 -11 -19 0 -21 56 -2 63 17 6 21 -21 5 -40z m2051 30 c7 -15 5 -18 -15 -19
-23 -2 -32 15 -17 29 11 12 22 8 32 -10z m94 1 c-2 -7 -12 -10 -20 -7 -12 5
-14 3 -8 -7 5 -9 4 -11 -4 -6 -6 4 -18 3 -25 -3 -10 -8 -15 -5 -23 12 -11 23
-10 24 37 23 34 0 47 -3 43 -12z m297 -5 c0 -14 -17 -10 -23 5 -4 10 -1 13 9
9 7 -3 14 -9 14 -14z m-3079 -59 c6 0 7 5 4 10 -4 6 8 10 28 10 31 0 34 -3 30
-21 -5 -16 -12 -19 -42 -17 -30 3 -36 7 -38 28 -1 14 0 18 3 8 3 -10 10 -18
15 -18z m3228 -11 c-20 -12 -22 -4 -8 23 12 21 13 21 17 4 2 -10 -2 -22 -9
-27z m-3015 17 c9 1 16 -5 17 -14 0 -14 2 -13 9 3 9 21 9 21 16 -12 5 -28 -22
-31 -42 -5 -13 16 -14 16 -8 0 5 -14 1 -18 -15 -18 -15 0 -21 7 -22 23 0 21
-1 21 -9 2 -6 -13 -9 -15 -9 -5 -1 10 -4 11 -9 4 -10 -16 -56 -10 -60 8 -4 20
20 26 74 18 23 -4 49 -5 58 -4z m2588 -11 c-2 -14 -8 -22 -13 -19 -5 3 -5 14
1 25 14 26 18 24 12 -6z m304 3 c0 -10 -4 -18 -8 -18 -4 0 -8 6 -8 13 0 8 -4
7 -10 -3 -9 -13 -11 -13 -20 0 -6 10 -10 11 -10 3 0 -7 -9 -13 -20 -13 -12 0
-20 7 -20 18 0 14 9 17 48 17 39 0 48 -3 48 -17z m37 9 c19 12 57 14 57 4 0
-6 -7 -8 -15 -5 -10 4 -15 0 -16 -12 0 -13 -2 -14 -6 -5 -4 10 -7 11 -13 1
-10 -16 -30 -4 -29 18 0 11 2 12 6 4 2 -6 10 -9 16 -5z m-497 -13 c20 20 25
17 18 -10 -3 -12 -15 -21 -28 -22 -19 -1 -25 5 -29 26 -5 24 -4 25 8 8 13 -17
15 -17 31 -2z m207 -1 c-4 -11 -2 -14 8 -11 8 3 13 9 12 14 -1 5 10 10 23 10
13 1 24 -2 24 -8 0 -5 -4 -6 -10 -3 -5 3 -10 2 -10 -4 0 -5 9 -9 19 -8 11 0
17 6 14 14 -7 17 14 17 20 1 4 -10 8 -9 16 2 9 12 11 11 11 -7 0 -22 -3 -23
-86 -23 -71 0 -84 2 -75 13 6 8 9 16 6 18 -2 3 4 5 15 6 13 1 17 -3 13 -14z
m-2558 -13 c0 -7 -6 -15 -12 -17 -8 -3 -13 4 -13 17 0 13 5 20 13 18 6 -3 12
-11 12 -18z m119 5 c8 -21 -8 -30 -54 -32 -42 -2 -45 0 -45 23 0 22 3 24 47
23 26 -1 49 -7 52 -14z m41 -7 l7 -23 8 25 c4 14 8 19 9 12 1 -7 6 -10 11 -7
17 11 91 8 103 -4 16 -16 -1 -29 -45 -34 -27 -3 -39 0 -43 12 -5 13 -8 13 -14
2 -13 -21 -61 -6 -61 19 0 27 16 25 25 -2z m2263 10 c10 -10 15 -10 21 0 7 11
9 11 14 -1 8 -22 -17 -28 -42 -10 -12 8 -25 12 -28 9 -4 -3 -1 -6 6 -6 7 0 9
-5 5 -11 -4 -7 -10 -7 -16 -1 -12 12 -2 32 16 32 6 0 18 -6 24 -12z m1002 8
c0 -2 -7 -7 -16 -10 -8 -3 -12 -2 -9 4 6 10 25 14 25 6z m148 -8 c-16 -5 -28
-14 -28 -19 0 -5 -5 -9 -11 -9 -5 0 -7 5 -3 11 3 6 0 15 -7 20 -9 6 2 8 31 8
42 -1 43 -1 18 -11z m-3238 -9 c0 -8 6 -7 16 2 15 12 16 11 10 -11 l-7 -25 20
23 c10 12 24 22 31 22 6 0 10 -10 8 -22 -2 -18 -10 -23 -33 -24 -45 -2 -65 7
-65 27 0 11 5 19 10 19 6 0 10 -5 10 -11z m3250 -9 c0 -5 -5 -10 -11 -10 -5 0
-7 5 -4 10 3 6 8 10 11 10 2 0 4 -4 4 -10z m-3861 -21 c21 -7 30 -16 27 -25
-7 -18 -1 -18 18 2 15 14 16 13 16 -6 0 -19 -4 -21 -47 -17 -43 3 -48 6 -51
30 -4 31 -5 31 37 16z m2975 -13 c8 3 16 -4 19 -15 3 -13 0 -21 -7 -21 -17 0
-36 21 -35 40 0 9 2 10 5 3 3 -7 11 -10 18 -7z m-149 -6 c4 -6 11 -8 16 -5 12
8 11 -6 -2 -25 -7 -11 -12 -12 -15 -3 -3 7 -11 10 -19 7 -11 -5 -14 8 -6 34 2
6 21 1 26 -8z m54 -31 c-7 -4 -17 -5 -22 -2 -5 3 -3 9 4 14 8 5 10 9 4 9 -5 0
-3 5 5 10 11 7 16 5 18 -7 2 -8 -2 -19 -9 -24z m142 14 c-8 -15 -10 -15 -11
-2 0 17 10 32 18 25 2 -3 -1 -13 -7 -23z m97 8 c3 -10 0 -11 -9 -5 -23 14 -39
13 -39 -2 0 -8 -7 -14 -15 -14 -8 0 -15 8 -15 19 0 15 7 18 37 17 21 -1 38 -7
41 -15z m752 9 c0 -5 -19 -9 -42 -9 l-43 2 40 7 c22 4 41 8 43 9 1 0 2 -3 2
-9z m-1270 -35 c5 3 7 13 4 23 -5 14 -3 14 10 -2 22 -27 20 -31 -9 -34 -21 -1
-25 2 -24 26 2 23 2 24 6 4 2 -12 8 -20 13 -17z m124 16 c18 -15 19 -15 13 1
-4 12 -2 15 9 11 25 -9 15 -31 -17 -35 -20 -3 -33 0 -36 9 -3 7 -14 13 -25 13
-10 0 -16 -4 -13 -10 3 -5 2 -10 -3 -10 -15 0 -22 28 -9 33 23 9 62 3 81 -12z
m198 -13 c-9 -9 -12 -7 -12 12 0 19 3 21 12 12 9 -9 9 -15 0 -24z m806 15
c-16 -2 -40 -2 -55 0 -16 2 -3 4 27 4 30 0 43 -2 28 -4z m-3090 -22 c-5 -23
-71 -22 -76 1 -3 14 5 17 38 16 32 0 40 -4 38 -17z m47 9 c3 -5 1 -10 -4 -10
-6 0 -11 -8 -11 -17 -1 -17 -1 -17 -11 0 -15 26 10 53 26 27z m3158 -7 c-13
-2 -35 -2 -50 0 -16 2 -5 4 22 4 28 0 40 -2 28 -4z m-3805 -47 c0 -18 -5 -22
-19 -19 -18 5 -26 33 -13 46 12 12 32 -5 32 -27z m44 10 c6 4 14 0 19 -7 12
-19 11 -29 -2 -29 -5 0 -7 6 -3 13 6 9 5 9 -8 0 -18 -15 -28 -7 -27 21 0 12 3
15 6 8 2 -6 9 -9 15 -6z m128 -1 c12 8 41 -25 33 -38 -4 -7 -9 -4 -14 9 -6 15
-8 15 -8 3 -1 -14 -8 -15 -43 -9 -24 5 -45 9 -48 9 -3 1 -5 7 -5 13 0 7 13 14
29 15 15 1 31 5 34 8 4 3 8 1 10 -4 2 -6 7 -9 12 -6z m-370 -5 c0 -5 -5 -10
-11 -10 -5 0 -7 5 -4 10 3 6 8 10 11 10 2 0 4 -4 4 -10z m4057 4 c-3 -3 -12
-4 -19 -1 -8 3 -5 6 6 6 11 1 17 -2 13 -5z m-3617 -16 c0 -9 2 -10 8 -2 4 7
35 11 75 11 53 -1 67 -4 68 -16 0 -11 2 -12 6 -3 7 17 30 15 37 -4 9 -24 7
-31 -4 -14 -7 10 -10 11 -10 2 0 -8 -13 -12 -40 -10 -33 2 -40 6 -36 21 5 21
-10 23 -18 2 -4 -10 -20 -15 -50 -15 -35 0 -45 4 -49 20 -3 11 -1 20 4 20 5 0
9 -6 9 -12z m3553 5 c-7 -2 -21 -2 -30 0 -10 3 -4 5 12 5 17 0 24 -2 18 -5z
m-90 -10 c-13 -2 -35 -2 -50 0 -16 2 -5 4 22 4 28 0 40 -2 28 -4z m-3126 -25
c-3 -8 -6 -5 -6 6 -1 11 2 17 5 13 3 -3 4 -12 1 -19z m69 10 c4 -7 3 -8 -4 -4
-7 4 -12 1 -12 -8 0 -8 6 -17 13 -19 7 -3 5 -6 -5 -6 -13 -1 -18 7 -18 24 0
26 14 33 26 13z m-49 -20 c-3 -8 -6 -5 -6 6 -1 11 2 17 5 13 3 -3 4 -12 1 -19z
m-647 0 c0 -5 5 -6 10 -3 18 11 31 -5 20 -24 -14 -27 -60 -16 -60 13 0 14 6
23 15 23 8 0 15 -4 15 -9z m120 -27 c0 -12 -10 -18 -34 -19 -40 -3 -53 10 -32
31 19 19 66 10 66 -12z m3708 12 c-2 -12 3 -18 15 -17 28 3 20 -13 -10 -19
-16 -3 -57 -9 -93 -12 -54 -6 -63 -5 -52 6 7 7 30 14 52 14 23 0 39 4 37 10
-2 6 -33 9 -73 8 l-69 -1 90 13 c50 7 94 13 98 14 4 0 7 -7 5 -16z m-3645 -6
c-2 -4 -3 -13 -3 -20 0 -7 -9 -13 -20 -14 -15 -1 -20 4 -20 23 0 19 4 23 23
20 12 -1 21 -6 20 -9z m146 -4 c18 -1 38 -6 43 -11 18 -18 0 -29 -39 -26 -21
2 -44 3 -50 3 -7 1 -14 9 -14 19 -1 16 -2 16 -6 0 -7 -27 -63 -25 -63 2 0 11
4 20 10 20 5 0 7 -8 4 -17 -5 -17 -4 -17 8 -2 15 18 47 29 63 20 6 -3 25 -6
44 -8z m2758 -6 c11 4 14 1 11 -13 -4 -22 -71 -32 -94 -14 -10 9 -14 9 -14 1
0 -14 -37 -15 -45 -1 -3 6 -12 10 -18 10 -7 0 -6 -4 3 -10 9 -6 10 -10 3 -10
-6 0 -15 5 -19 12 -5 8 -10 6 -16 -8 -7 -16 -7 -16 -5 5 2 29 38 38 61 16 18
-19 26 -19 26 -2 0 8 7 14 15 14 8 0 16 -6 19 -14 3 -7 10 -13 15 -13 6 0 7 7
4 17 -4 10 -2 14 5 9 6 -3 14 -1 18 6 6 9 9 9 11 1 3 -7 11 -9 20 -6z m86 4
c4 -1 7 -8 7 -16 0 -8 -3 -15 -7 -16 -5 0 -20 -2 -34 -4 -21 -3 -26 0 -24 13
2 9 4 20 4 23 1 3 11 5 24 3 12 -1 25 -3 30 -3z m-2523 -32 c0 -10 -7 -19 -15
-19 -15 0 -21 31 -9 43 11 10 24 -3 24 -24z m1980 9 c6 -16 9 -18 9 -7 1 19
28 33 36 19 4 -6 19 -8 35 -5 24 4 27 2 23 -15 -6 -22 -7 -22 -58 -22 -52 0
-52 0 -60 25 -7 21 -8 21 -15 -8 -7 -29 -8 -29 -9 -4 -2 43 24 54 39 17z m198
-6 c-2 -11 -17 -18 -46 -20 -42 -3 -49 2 -33 26 6 11 12 10 26 -5 16 -15 18
-15 13 -1 -8 21 -2 27 23 21 11 -3 19 -12 17 -21z m-2134 10 c2 -4 -2 -16 -10
-27 -13 -18 -14 -18 -14 8 0 25 13 36 24 19z m2169 -7 c4 -8 2 -17 -3 -20 -6
-4 -10 3 -10 14 0 25 6 27 13 6z m-3064 -31 c10 -9 -55 -3 -69 6 -10 6 -2 7
25 3 22 -3 42 -7 44 -9z m248 -15 c-2 -25 -37 -26 -37 -1 0 10 3 21 6 25 11
11 33 -5 31 -24z m3850 25 c-3 -3 -12 -4 -19 -1 -8 3 -5 6 6 6 11 1 17 -2 13
-5z m-3789 -16 c7 -7 12 -19 11 -27 0 -9 -3 -11 -5 -5 -3 7 -14 10 -24 7 -15
-4 -20 0 -20 16 0 23 19 28 38 9z m3719 6 c-3 -3 -12 -4 -19 -1 -8 3 -5 6 6 6
11 1 17 -2 13 -5z m-3648 -16 c11 -10 13 -10 7 0 -5 8 0 12 14 12 31 0 60 -18
60 -37 0 -14 -2 -14 -15 3 -12 16 -14 16 -15 3 0 -13 -9 -15 -42 -12 -47 5
-64 15 -54 32 9 15 29 14 45 -1z m136 -17 c-4 10 0 19 10 23 11 4 14 2 9 -6
-5 -7 0 -9 14 -6 15 4 19 2 15 -8 -3 -8 0 -14 6 -14 6 0 11 6 11 13 0 18 69
14 81 -4 12 -19 11 -29 -1 -29 -5 0 -10 5 -10 10 0 6 -5 10 -11 10 -5 0 -7 -4
-4 -10 3 -5 4 -10 0 -10 -3 0 -10 10 -15 23 -6 16 -9 17 -9 5 -1 -19 -26 -25
-88 -19 -39 3 -43 6 -43 30 l0 26 20 -25 c11 -14 18 -18 15 -9z m331 -26 c-5
-14 -9 -15 -21 -5 -12 10 -13 16 -4 27 15 18 34 1 25 -22z m49 5 c-5 -8 -11
-8 -17 -2 -6 6 -7 16 -3 22 5 8 11 8 17 2 6 -6 7 -16 3 -22z m1935 8 c0 -6 -3
-8 -7 -5 -3 4 -12 2 -20 -4 -17 -14 -17 -3 0 15 13 15 27 12 27 -6z m84 1 c9
8 13 7 13 -2 0 -16 -29 -18 -39 -3 -4 5 -4 15 0 21 4 6 8 2 10 -8 3 -13 7 -15
16 -8z m86 17 c0 -3 -4 -8 -10 -11 -5 -3 -10 -1 -10 4 0 6 5 11 10 11 6 0 10
-2 10 -4z m-126 -22 c3 -8 2 -12 -4 -9 -6 3 -10 10 -10 16 0 14 7 11 14 -7z
m-2633 -27 c4 -5 12 -3 20 6 11 11 16 12 27 1 7 -7 20 -10 28 -7 15 5 33 -11
34 -30 0 -4 -18 -6 -40 -5 -22 2 -40 8 -40 13 0 6 -4 4 -9 -4 -7 -11 -14 -11
-42 3 -26 13 -34 14 -41 4 -5 -9 -8 -3 -8 14 0 26 2 27 33 21 17 -3 35 -10 38
-16z m659 1 c0 -4 -7 -8 -15 -8 -8 0 -15 4 -15 8 0 5 7 9 15 9 8 0 15 -4 15
-9z m2482 -32 c11 -15 10 -28 -1 -22 -5 3 -14 -1 -21 -9 -16 -19 -30 -10 -30
18 0 18 -2 19 -10 7 -8 -13 -10 -12 -10 4 0 12 5 16 15 12 8 -3 15 -1 15 4 0
11 32 1 42 -14z m44 -5 c-1 -31 -16 -33 -16 -2 0 15 8 31 15 31 1 0 2 -13 1
-29z m-2575 -19 l0 -27 12 25 c15 34 14 33 27 25 8 -5 8 -10 0 -20 -8 -9 -6
-12 7 -12 41 0 54 -4 48 -13 -3 -5 -32 -8 -63 -6 -31 2 -69 4 -84 5 -30 1 -40
21 -10 21 9 0 23 9 30 20 16 26 32 17 33 -18z m2378 5 c-1 -31 -1 -31 -9 -7
-8 24 -8 24 -9 3 -2 -38 -71 -28 -71 11 0 17 2 18 10 6 6 -9 10 -10 10 -3 0
11 15 17 53 20 13 1 17 -6 16 -30z m71 2 c0 -29 -22 -40 -36 -18 -4 8 -9 7
-15 -2 -6 -10 -9 -6 -9 12 0 32 2 34 34 35 22 2 26 -2 26 -27z m160 11 c0 -11
-2 -20 -4 -20 -2 0 -6 9 -9 20 -3 11 -1 20 4 20 5 0 9 -9 9 -20z m-518 -25
c-7 -37 -42 -35 -41 3 1 16 3 20 6 10 6 -25 23 -23 23 3 0 11 4 18 9 15 4 -3
6 -17 3 -31z m68 15 c0 -11 4 -20 10 -20 5 0 7 7 4 15 -4 8 -1 15 5 15 16 0
13 -37 -4 -43 -8 -4 -17 -1 -21 5 -4 7 -9 6 -14 -2 -13 -21 -39 2 -29 25 5 13
8 15 9 5 0 -12 3 -11 11 3 13 23 29 22 29 -3z m71 3 c0 -15 2 -15 8 2 7 17 8
17 13 -8 4 -21 1 -27 -12 -27 -16 0 -30 19 -30 41 0 17 20 9 21 -8z m992 10
c-7 -2 -19 -2 -25 0 -7 3 -2 5 12 5 14 0 19 -2 13 -5z m44 -60 c-2 -16 -4 -5
-4 22 0 28 2 40 4 28 2 -13 2 -35 0 -50z m-1296 42 c6 16 8 14 8 -12 1 -25 -2
-30 -17 -26 -15 3 -18 11 -13 31 4 23 6 24 9 7 l5 -20 8 20z m49 3 c0 6 5 12
10 12 6 0 10 -10 10 -23 0 -16 -6 -23 -20 -23 -15 0 -20 7 -20 26 0 20 2 22
10 10 6 -10 10 -11 10 -2z m-2670 -30 c0 17 20 15 20 -3 0 -8 -9 -15 -20 -15
-11 0 -20 2 -20 4 0 2 -3 13 -6 23 -6 16 -5 16 9 -2 9 -11 17 -15 17 -7z m823
8 c8 3 18 0 23 -7 4 -8 3 -10 -4 -5 -7 4 -12 3 -12 -3 0 -9 -60 -4 -70 5 -10
10 25 23 36 13 6 -5 18 -7 27 -3z m2814 8 c-3 -3 -12 -4 -19 -1 -8 3 -5 6 6 6
11 1 17 -2 13 -5z m160 -10 c-3 -3 -12 -4 -19 -1 -8 3 -5 6 6 6 11 1 17 -2 13
-5z m-2910 -10 c-3 -3 -12 -4 -19 -1 -8 3 -5 6 6 6 11 1 17 -2 13 -5z m103 -4
c0 -5 -4 -10 -9 -10 -6 0 -13 5 -16 10 -3 6 1 10 9 10 9 0 16 -4 16 -10z
m2880 0 c9 -6 11 -10 3 -10 -7 0 -10 -7 -6 -17 5 -13 2 -15 -11 -10 -10 4 -21
7 -26 7 -4 0 -6 9 -3 20 6 22 20 25 43 10z m-125 -7 c-11 -3 -24 -11 -28 -19
-4 -8 -13 -14 -20 -14 -7 0 -6 4 3 10 8 5 11 10 5 10 -5 0 -3 5 5 10 8 5 24 9
35 9 l20 -1 -20 -5z m37 -25 c-9 -9 -12 -7 -12 12 0 19 3 21 12 12 9 -9 9 -15
0 -24z m-3135 6 c9 -23 -11 -38 -26 -20 -13 16 -7 36 10 36 5 0 12 -7 16 -16z
m40 -24 c-14 -20 -15 -20 -20 -1 -6 23 13 45 26 32 6 -6 3 -18 -6 -31z m2303
20 c0 -5 -4 -10 -10 -10 -5 0 -10 5 -10 10 0 6 5 10 10 10 6 0 10 -4 10 -10z
m77 -2 c36 18 104 4 102 -21 0 -9 -2 -9 -6 1 -8 19 -33 15 -27 -5 5 -17 5 -17
-9 0 -16 20 -47 23 -47 5 0 -9 -4 -8 -10 2 -9 13 -10 13 -10 0 0 -10 -11 -17
-30 -18 -24 -2 -30 2 -30 17 0 22 20 33 37 19 7 -6 19 -6 30 0z m143 -20 c0
-19 -16 -5 -17 14 -2 18 0 20 7 8 5 -8 10 -18 10 -22z m40 16 c0 -17 -22 -14
-28 4 -2 7 3 12 12 12 9 0 16 -7 16 -16z m500 12 c0 -3 -4 -8 -10 -11 -5 -3
-10 -1 -10 4 0 6 5 11 10 11 6 0 10 -2 10 -4z m-1144 -35 c-1 -31 -16 -33 -16
-2 0 15 8 31 15 31 1 0 2 -13 1 -29z m246 4 c3 -13 1 -22 -3 -19 -9 5 -13 44
-5 44 2 0 6 -11 8 -25z m45 17 c12 10 17 9 26 -7 10 -19 10 -19 18 0 7 19 8
18 8 -2 1 -27 -17 -30 -35 -5 -13 16 -13 16 -14 0 0 -10 -7 -18 -15 -18 -9 0
-15 9 -14 23 0 12 3 16 6 9 4 -10 8 -10 20 0z m-215 -24 c-5 -21 -6 -21 -13
-2 -7 16 -8 17 -8 2 -1 -11 -9 -18 -20 -18 -32 0 -15 35 18 37 25 2 28 -1 23
-19z m54 3 c0 -15 -3 -17 -13 -9 -9 8 -13 7 -13 -2 0 -8 -3 -11 -6 -7 -10 10
4 37 19 37 7 0 13 -9 13 -19z m48 4 c-4 -8 -10 -13 -14 -10 -5 3 -11 -1 -13
-7 -4 -8 -6 -7 -6 4 -1 15 11 25 31 27 4 1 5 -6 2 -14z m32 -22 c-11 -11 -17
4 -9 23 7 18 8 18 11 1 2 -10 1 -21 -2 -24z m-1511 -10 c-16 -37 -43 -118 -41
-121 2 -1 33 26 69 62 61 60 101 85 114 72 3 -3 -12 -25 -33 -48 -53 -58 -99
-140 -120 -216 -11 -40 -21 -59 -27 -53 -14 14 9 96 49 171 l34 65 -30 -35
c-17 -19 -39 -47 -48 -62 -26 -44 -35 -33 -29 34 l5 61 -45 -84 c-54 -100 -97
-149 -132 -149 -67 0 -85 92 -30 155 23 26 39 35 63 35 37 0 56 -15 56 -44 0
-13 16 7 39 49 39 70 85 125 103 125 6 0 7 -8 3 -17z m1840 -12 c-3 -5 -1 -12
5 -16 5 -3 10 1 10 9 0 22 33 20 47 -3 16 -25 3 -37 -17 -14 -8 10 -14 16 -13
14 4 -7 -19 -31 -29 -31 -5 0 -7 4 -3 9 3 5 1 12 -5 16 -10 6 -5 25 6 25 3 0
3 -4 -1 -9z m94 -16 c3 -17 2 -17 -13 -3 -19 20 -21 31 -3 26 6 -3 14 -13 16
-23z m-365 6 c-2 -2 1 -10 8 -18 8 -10 8 -17 0 -25 -9 -9 -12 -7 -12 8 0 14
-2 16 -9 5 -5 -7 -14 -10 -20 -6 -7 4 -19 1 -27 -6 -13 -10 -16 -8 -21 12 l-7
24 -6 -25 -6 -25 -6 28 c-4 22 -2 27 13 27 13 0 19 -8 20 -22 1 -21 3 -18 14
17 1 6 16 10 33 10 17 0 28 -2 26 -4z m202 -12 c16 -13 17 -12 10 6 -5 14 -4
17 4 9 6 -6 8 -19 4 -29 -6 -16 -9 -15 -25 6 -15 20 -19 21 -19 7 0 -20 -20
-25 -20 -5 0 8 -4 7 -10 -3 -6 -10 -10 -11 -10 -2 0 6 -4 12 -10 12 -5 0 -7
-6 -5 -12 4 -9 -6 -14 -29 -15 -26 -1 -35 3 -39 18 -6 24 1 24 20 2 13 -16 14
-16 9 -1 -3 9 -1 18 5 20 25 8 99 0 115 -13z m-403 -40 c-4 -4 -9 6 -10 24 -1
30 -1 31 8 8 5 -14 6 -28 2 -32z m42 41 c9 14 25 3 25 -18 0 -11 -9 -18 -25
-18 -14 -1 -23 2 -20 6 3 5 1 11 -5 15 -5 3 -10 11 -10 17 0 7 5 6 14 -1 10
-8 16 -9 21 -1z m-1105 -25 c0 -29 -57 -98 -76 -91 -17 6 -49 -73 -35 -87 14
-14 35 6 74 70 17 29 37 53 44 53 15 0 17 -16 3 -25 -12 -7 -50 -79 -50 -94 0
-23 29 4 65 59 35 54 42 60 72 60 47 0 52 -23 19 -82 -30 -54 -20 -65 16 -17
55 74 87 100 115 97 24 -3 28 -7 28 -33 -1 -16 -4 -41 -9 -55 l-7 -25 25 28
c27 30 36 33 36 15 0 -18 -41 -58 -61 -58 -9 0 -29 -7 -45 -15 -25 -13 -31
-13 -52 1 -18 12 -27 13 -35 5 -14 -14 -44 -14 -52 -1 -3 5 6 32 20 59 29 58
30 61 11 61 -18 0 -68 -58 -85 -97 -9 -23 -21 -32 -42 -35 -17 -3 -32 -1 -35
3 -3 5 -17 6 -32 3 -19 -4 -33 0 -41 10 -14 16 -53 13 -78 -6 -6 -5 -24 -8
-40 -6 -24 3 -28 8 -31 40 -6 74 107 151 124 84 3 -13 1 -33 -5 -44 -6 -12
-11 -27 -11 -34 1 -19 38 29 67 86 43 85 103 127 103 71z m1040 4 c0 -8 -32
-29 -44 -29 -12 0 -6 38 7 43 15 5 37 -3 37 -14z m1218 -4 c-4 -30 -23 -34
-21 -5 1 29 2 30 14 30 6 0 9 -11 7 -25z m-128 11 c0 -3 -4 -8 -10 -11 -5 -3
-10 -1 -10 4 0 6 5 11 10 11 6 0 10 -2 10 -4z m53 -3 c-7 -2 -19 -2 -25 0 -7
3 -2 5 12 5 14 0 19 -2 13 -5z m-2157 -40 c-10 -10 -19 5 -10 18 6 11 8 11 12
0 2 -7 1 -15 -2 -18z m2148 18 c6 -9 -35 -24 -43 -15 -6 5 18 24 31 24 4 0 9
-4 12 -9z m-644 -83 c0 -23 -14 -34 -40 -34 -28 1 -50 13 -50 26 0 11 19 7 47
-8 23 -13 40 -1 28 18 -3 6 -1 10 4 10 6 0 11 -6 11 -12z m-486 -24 c-5 -19
-4 -25 5 -20 6 4 11 2 11 -3 0 -6 -7 -11 -15 -11 -15 0 -21 40 -8 53 12 12 13
7 7 -19z m50 12 c-3 -8 -1 -17 5 -21 15 -9 14 -25 -2 -25 -7 0 -14 13 -15 30
-1 17 2 30 8 30 5 0 7 -6 4 -14z m41 -16 c1 -16 -3 -30 -7 -30 -10 0 -11 44
-1 53 3 4 7 7 7 7 1 0 1 -13 1 -30z m57 -3 c4 -19 1 -23 -12 -20 -12 3 -16 12
-12 29 5 28 18 24 24 -9z m40 8 c3 -16 1 -25 -7 -25 -7 0 -11 10 -10 23 4 37
11 38 17 2z m74 12 c8 3 14 0 14 -7 0 -6 -4 -8 -10 -5 -5 3 -10 -1 -10 -11 0
-13 -3 -14 -15 -4 -8 7 -15 20 -15 28 0 12 3 13 11 5 6 -6 18 -9 25 -6z m61
-7 c-7 -26 0 -25 24 3 19 22 19 22 34 3 8 -11 15 -22 15 -25 0 -5 -57 -6 -90
-2 -12 1 -9 23 5 33 16 12 18 10 12 -12z m203 5 c0 -8 -2 -15 -4 -15 -2 0 -6
7 -10 15 -3 8 -1 15 4 15 6 0 10 -7 10 -15z m-3196 -20 c-4 -15 -2 -25 4 -25
6 0 12 10 14 23 2 13 9 21 18 18 8 -2 26 -4 40 -6 38 -3 38 -3 43 -27 4 -19 4
-18 6 5 1 19 5 26 13 21 7 -4 26 -8 43 -8 27 -1 30 -4 32 -36 2 -28 1 -31 -7
-15 -5 11 -9 15 -9 8 -1 -16 -113 -12 -134 6 -12 9 -17 10 -17 2 0 -7 -11 -10
-27 -8 -28 4 -40 25 -29 53 9 24 17 16 10 -11z m2638 0 c3 -14 1 -25 -3 -25
-5 0 -9 6 -9 13 0 8 -4 7 -10 -3 -8 -12 -10 -9 -10 13 0 34 26 36 32 2z
m-2382 -17 c0 -9 3 -9 8 -3 4 6 26 12 50 14 41 2 42 2 33 -22 -11 -28 -6 -38
15 -30 11 4 12 9 3 19 -11 14 -5 34 12 34 6 0 7 -5 4 -10 -4 -6 -1 -17 5 -25
17 -20 4 -34 -28 -32 -22 2 -28 8 -31 32 l-4 30 -7 -30 -8 -30 -1 28 c0 15 -5
27 -10 27 -4 0 -6 -12 -3 -27 4 -27 4 -27 -12 -8 -15 19 -16 19 -9 1 5 -16 3
-18 -11 -13 -10 4 -20 7 -22 7 -2 0 -4 11 -4 25 0 14 5 25 10 25 6 0 10 -6 10
-12z m220 0 c0 -4 -4 -8 -9 -8 -12 0 -9 -33 4 -43 6 -5 1 -7 -10 -5 -12 2 -21
12 -23 26 -2 12 -7 22 -12 22 -6 0 -5 -11 0 -26 8 -20 7 -25 -2 -22 -15 5 -22
33 -15 52 6 14 67 18 67 4z m-687 -15 c-7 -2 -21 -2 -30 0 -10 3 -4 5 12 5 17
0 24 -2 18 -5z m4097 -3 c-42 -10 -159 -22 -145 -15 13 7 123 23 155 23 18 0
16 -2 -10 -8z m-177 -27 c-7 -2 -19 -2 -25 0 -7 3 -2 5 12 5 14 0 19 -2 13 -5z
m-3673 -21 c17 -8 26 -52 11 -52 -6 0 -11 6 -12 13 0 8 -2 8 -6 -2 -5 -11 -7
-11 -14 0 -8 12 -11 11 -19 -1 -7 -11 -10 -7 -10 18 0 33 14 40 50 24z m86
-38 c0 -26 -3 -33 -14 -29 -7 3 -20 5 -28 5 -9 0 -14 11 -14 28 0 35 5 40 33
35 17 -4 22 -12 23 -39z m1892 19 c28 -38 10 -99 -44 -148 -24 -22 -50 -114
-46 -160 3 -24 1 -27 -9 -18 -14 14 -14 68 1 107 15 40 13 45 -16 42 -18 -2
-35 -18 -60 -54 -32 -49 -59 -72 -83 -72 -6 0 -11 5 -11 10 0 6 6 10 13 10 19
0 51 37 79 91 13 25 48 80 76 122 53 78 52 88 -5 66 -57 -21 -120 -106 -96
-130 13 -13 39 18 50 61 10 36 30 40 25 5 -7 -41 -37 -80 -65 -83 -81 -10 -14
130 78 163 47 17 95 12 113 -12z m1824 -13 c-3 -22 -10 -30 -24 -30 -19 0 -19
1 -1 30 9 17 20 30 23 30 4 0 5 -13 2 -30z m-3676 -16 c-4 -14 -9 -24 -12 -21
-3 2 -2 17 2 31 3 15 9 25 11 22 3 -3 2 -17 -1 -32z m43 6 c6 21 14 26 48 28
40 3 40 2 37 -27 -3 -22 1 -31 14 -34 12 -3 11 -5 -5 -6 -18 -1 -23 5 -24 27
-2 23 -2 24 -6 5 -2 -13 -8 -23 -13 -23 -5 0 -7 8 -4 18 5 16 5 16 -6 0 -6
-10 -22 -18 -35 -18 -22 0 -25 4 -24 33 l2 32 5 -30 c5 -30 5 -30 11 -5z
m3592 19 c-14 -5 -21 -15 -18 -23 7 -17 -14 -27 -51 -25 -23 1 -22 3 8 9 21 4
27 8 15 9 l-20 2 20 9 20 9 -20 1 -20 1 20 9 c11 5 31 9 45 9 l25 0 -24 -10z
m89 7 c0 -3 -4 -8 -10 -11 -5 -3 -10 -1 -10 4 0 6 5 11 10 11 6 0 10 -2 10 -4z
m-2390 -25 c0 -5 -20 -42 -45 -82 -42 -69 -59 -119 -34 -103 6 3 26 30 45 60
35 54 74 78 96 56 18 -18 -2 -51 -43 -68 -40 -18 -51 -40 -23 -51 21 -8 61 31
89 88 13 25 36 60 50 78 27 32 65 42 65 17 0 -21 -43 -80 -69 -92 -30 -15 -41
-32 -41 -66 0 -37 14 -35 46 7 15 20 29 34 31 31 10 -10 -30 -68 -54 -79 -21
-9 -27 -8 -38 7 -13 17 -15 17 -37 2 -28 -20 -52 -20 -68 -1 -10 12 -15 12
-36 -2 -19 -12 -27 -13 -38 -4 -11 9 -19 9 -34 0 -17 -10 -24 -10 -37 1 -22
18 -13 62 21 108 23 29 31 33 59 29 28 -5 34 -1 56 34 23 37 39 50 39 30z
m1766 0 c-3 -5 1 -11 9 -14 9 -4 12 -1 8 9 -4 11 3 14 28 13 24 -1 27 -3 12
-6 -13 -2 -23 -9 -23 -14 0 -6 5 -7 12 -3 6 4 8 3 5 -2 -3 -5 -18 -11 -34 -12
-22 -2 -29 2 -30 18 -1 11 3 20 8 20 6 0 8 -4 5 -9z m-211 -22 c-15 -38 -105
-44 -105 -7 0 10 5 16 10 13 6 -4 8 -11 5 -16 -4 -5 -1 -9 4 -9 6 0 11 8 12
18 0 14 2 13 11 -5 l10 -22 25 25 c26 26 37 27 28 3z m103 13 c12 10 16 10 19
1 6 -16 30 -17 35 -1 2 6 9 9 16 7 16 -6 0 -29 -24 -33 -10 -3 -26 -7 -35 -11
-20 -7 -52 22 -42 38 5 8 8 7 11 -1 3 -10 7 -10 20 0z m-532 -31 c-1 -31 -16
-33 -16 -2 0 15 8 31 15 31 1 0 2 -13 1 -29z m224 20 c0 -5 -7 -16 -15 -24
-18 -18 -55 -11 -55 11 0 13 3 12 20 -3 17 -16 20 -16 20 -2 0 13 7 20 28 26
1 1 2 -3 2 -8z m77 -17 c2 -11 0 -14 -3 -5 -5 11 -8 11 -15 0 -6 -10 -9 -11
-9 -1 0 6 -4 12 -10 12 -5 0 -7 -8 -3 -17 5 -14 3 -16 -7 -6 -19 17 -6 40 22
38 14 -1 24 -9 25 -21z m160 4 c-3 -8 -6 -5 -6 6 -1 11 2 17 5 13 3 -3 4 -12
1 -19z m20 0 c-3 -8 -6 -5 -6 6 -1 11 2 17 5 13 3 -3 4 -12 1 -19z m-397 -3
c7 -4 16 -2 21 6 6 10 9 8 9 -8 0 -14 -6 -23 -15 -23 -8 0 -15 6 -15 13 0 8
-4 7 -10 -3 -8 -12 -10 -12 -10 5 -1 18 -1 19 -11 3 -12 -21 -39 -24 -39 -5 0
8 3 16 6 19 7 8 47 3 64 -7z m57 0 c0 -8 -4 -15 -9 -15 -4 0 -8 7 -8 15 0 8 4
15 8 15 5 0 9 -7 9 -15z m-687 -4 c0 -5 -7 -14 -15 -21 -12 -10 -15 -10 -15 2
0 8 3 18 7 21 9 10 23 9 23 -2z m1367 -13 c-3 -8 -6 -5 -6 6 -1 11 2 17 5 13
3 -3 4 -12 1 -19z m-3580 -4 c-3 -3 -12 -4 -19 -1 -8 3 -5 6 6 6 11 1 17 -2
13 -5z m185 -8 c3 2 5 -3 5 -11 0 -18 -9 -19 -25 -3 -9 9 -12 9 -12 0 0 -7 -7
-12 -15 -12 -15 0 -21 21 -9 33 3 3 16 2 29 -3 13 -5 25 -7 27 -4z m122 -5
c23 -1 26 -4 17 -14 -6 -8 -8 -17 -4 -20 3 -4 1 -7 -6 -7 -8 0 -11 7 -7 15 3
8 1 15 -3 15 -5 0 -11 -6 -14 -12 -3 -10 -9 -10 -26 0 -11 7 -21 8 -21 3 0 -5
-8 -8 -17 -7 -10 2 -17 6 -15 9 1 4 2 11 2 16 0 5 15 7 33 6 17 -2 45 -3 61
-4z m106 -23 c0 -12 -8 -18 -21 -18 -13 0 -18 4 -13 13 5 8 2 7 -9 -2 -20 -16
-30 -11 -22 10 8 22 65 19 65 -3z m84 10 c3 3 6 0 6 -7 0 -8 -6 -11 -16 -7
-15 6 -15 4 -3 -10 12 -15 10 -16 -21 -9 -42 9 -42 8 -35 28 5 12 13 13 35 7
16 -4 31 -6 34 -2z m1686 -7 c0 -6 -5 -13 -10 -16 -12 -7 -34 -49 -44 -82 -12
-37 11 -27 44 20 51 71 71 88 99 85 21 -2 27 -9 29 -37 2 -18 -1 -38 -7 -44
-16 -16 -13 -27 4 -21 9 4 22 18 29 32 8 16 16 21 20 13 10 -15 -47 -71 -73
-71 -11 0 -23 -4 -26 -10 -8 -13 -48 -13 -62 1 -8 8 -17 7 -34 -5 -17 -11 -26
-13 -36 -4 -20 16 -16 38 17 96 28 47 50 67 50 43z m982 -16 c-3 -11 -7 -14
-10 -7 -2 6 -8 12 -14 12 -6 0 -8 -6 -5 -13 3 -9 -4 -12 -22 -11 -34 2 -33 1
-16 22 8 9 28 17 43 17 24 0 28 -4 24 -20z m-376 2 c8 3 14 0 14 -6 0 -6 -5
-11 -11 -11 -5 0 -7 -4 -4 -10 4 -6 -5 -10 -19 -10 -19 0 -26 5 -26 19 0 19
22 35 28 20 2 -4 10 -5 18 -2z m54 -6 c11 17 24 5 17 -16 -11 -27 -37 -18 -36
13 1 19 3 21 6 8 4 -15 7 -16 13 -5z m55 -4 c0 -7 9 -11 20 -9 16 2 17 1 6 -7
-20 -13 -41 -2 -41 22 0 21 15 15 15 -6z m85 -2 c0 -25 -15 -24 -16 1 -1 13 2
21 7 18 5 -3 9 -11 9 -19z m37 5 c-1 -12 -5 -16 -10 -11 -5 5 -6 14 -3 20 11
16 15 13 13 -9z m20 -2 c-3 -8 -6 -5 -6 6 -1 11 2 17 5 13 3 -3 4 -12 1 -19z
m36 2 c-3 -11 -7 -20 -9 -20 -2 0 -4 9 -4 20 0 11 4 20 9 20 5 0 7 -9 4 -20z
m-2688 -40 c94 -6 185 -13 203 -16 l32 -5 0 -96 0 -96 -127 7 c-137 7 -235 14
-323 25 l-55 6 -3 99 -3 99 53 -6 c29 -4 130 -11 223 -17z m3685 -10 c0 -5 -2
-10 -4 -10 -3 0 -8 5 -11 10 -3 6 -1 10 4 10 6 0 11 -4 11 -10z m-816 -15 c3
-8 1 -15 -4 -15 -6 0 -10 7 -10 15 0 8 2 15 4 15 2 0 6 -7 10 -15z m766 0 c19
-23 4 -48 -24 -41 -14 3 -28 2 -31 -4 -10 -16 -45 -12 -45 5 0 8 -5 15 -11 15
-5 0 -7 5 -4 11 5 7 -5 8 -32 3 -21 -4 -35 -3 -31 1 7 7 90 21 139 24 15 0 32
-6 39 -14z m240 11 c0 -3 -4 -8 -10 -11 -5 -3 -10 -1 -10 4 0 6 5 11 10 11 6
0 10 -2 10 -4z m-1040 -16 c0 -5 -5 -10 -11 -10 -5 0 -7 5 -4 10 3 6 8 10 11
10 2 0 4 -4 4 -10z m-445 -29 c-6 -5 -25 10 -25 20 0 5 6 4 14 -3 8 -7 12 -15
11 -17z m140 19 c3 -5 1 -10 -4 -10 -6 0 -11 5 -11 10 0 6 2 10 4 10 3 0 8 -4
11 -10z m39 2 c3 -5 -1 -9 -9 -9 -8 0 -12 4 -9 9 3 4 7 8 9 8 2 0 6 -4 9 -8z
m-1955 -16 c29 1 55 5 58 8 6 5 33 -18 33 -28 0 -11 -36 -6 -48 6 -9 9 -12 9
-12 -1 0 -10 -23 -11 -107 -6 -129 8 -153 18 -58 25 39 3 72 2 75 -1 3 -4 29
-5 59 -3z m115 -12 c3 -8 2 -12 -4 -9 -6 3 -10 10 -10 16 0 14 7 11 14 -7z
m2874 -91 c-10 -2 -18 -11 -18 -20 0 -9 6 -13 14 -10 10 4 13 1 9 -9 -6 -16
-23 -19 -23 -3 0 5 -4 8 -9 5 -5 -3 -8 6 -8 19 0 21 4 25 26 24 17 -1 20 -3 9
-6z m-2748 -48 c4 3 10 -11 12 -30 2 -19 0 -35 -4 -35 -4 0 -8 5 -8 12 0 6 -3
8 -6 5 -4 -4 -16 3 -27 16 l-20 22 7 -28 c5 -21 4 -27 -6 -21 -6 4 -29 7 -50
7 -40 -1 -41 0 -32 35 7 26 24 30 24 5 0 -13 3 -14 8 -6 5 7 24 11 45 10 28
-3 37 0 38 12 0 11 2 12 6 3 2 -6 8 -10 13 -7z m144 -17 c9 14 26 6 26 -11 0
-7 -4 -6 -10 3 -8 12 -10 11 -10 -7 0 -12 6 -24 13 -26 6 -3 -6 -4 -28 -3 -30
1 -41 6 -44 21 -2 10 5 25 15 32 16 12 19 11 25 -4 4 -12 8 -13 13 -5z m91 12
c4 -6 11 -8 16 -5 5 4 9 2 9 -4 0 -6 7 -8 16 -4 16 6 34 -12 34 -34 0 -23 -20
-14 -21 10 -1 20 -1 21 -7 2 -9 -27 -75 -29 -80 -2 -7 36 17 63 33 37z m-175
-17 c0 -16 -2 -16 -11 -3 -8 12 -10 9 -6 -12 2 -16 0 -28 -5 -28 -12 0 -21 27
-14 45 8 21 36 19 36 -2z m363 0 c-6 -16 -5 -16 11 -4 13 11 19 12 29 2 9 -10
8 -11 -5 -6 -12 5 -18 2 -18 -8 0 -8 6 -17 13 -20 6 -2 -5 -5 -26 -5 -45 0
-61 23 -32 44 26 19 36 17 28 -3z m169 -18 c-6 -34 -12 -32 -12 6 0 16 4 28 9
25 4 -3 6 -17 3 -31z m548 20 c-6 -8 -9 -19 -5 -25 6 -10 3 -11 -47 -14 -23
-2 -28 2 -28 21 0 16 4 21 15 17 8 -4 15 -12 15 -20 0 -8 5 -14 11 -14 6 0 9
9 6 20 -3 11 -2 18 2 16 4 -3 13 -1 21 5 21 13 24 11 10 -6z m-782 -23 c3 -17
-2 -22 -17 -22 -13 0 -21 6 -21 18 0 15 2 15 11 2 9 -12 10 -10 6 8 -4 15 -1
22 6 19 7 -2 13 -13 15 -25z m163 19 c-8 -5 -11 -16 -8 -25 4 -9 2 -16 -3 -16
-6 0 -10 11 -10 25 0 17 5 25 18 25 14 0 14 -2 3 -9z m49 -16 c0 -14 -2 -25
-4 -25 -2 0 -6 11 -8 25 -3 14 -1 25 3 25 5 0 9 -11 9 -25z m158 12 c7 -5 12
-4 12 2 0 6 4 11 9 11 4 0 6 -10 4 -23 -6 -31 -47 -34 -67 -5 -9 12 -19 18
-23 14 -4 -4 -1 -11 6 -15 9 -6 10 -11 2 -15 -6 -4 -9 -12 -6 -17 4 -5 1 -9
-5 -9 -6 0 -10 6 -9 13 3 24 -1 35 -17 41 -13 5 -15 2 -11 -14 3 -11 1 -20 -4
-20 -10 0 -13 33 -4 42 8 8 98 4 113 -5z m101 -14 c-1 -22 -2 -23 -6 -8 -3 11
-10 23 -17 27 -7 5 -5 8 7 8 12 0 17 -7 16 -27z m47 18 c-3 -5 1 -11 9 -15 10
-3 15 1 16 12 1 11 4 8 9 -8 8 -24 8 -24 9 -2 1 18 7 22 31 22 17 0 30 -5 30
-12 0 -10 2 -10 9 0 6 10 10 7 13 -13 4 -20 2 -25 -9 -21 -8 3 -23 1 -34 -4
-10 -6 -19 -7 -19 -3 0 5 -12 8 -27 7 -16 0 -33 6 -40 15 -15 20 -16 31 -2 31
5 0 8 -4 5 -9z m165 -19 c-3 -19 -6 -22 -9 -9 -2 9 -8 17 -13 17 -17 0 -9 16
9 17 15 1 18 -4 13 -25z m-251 11 c0 -5 -5 -15 -10 -23 -8 -12 -10 -11 -10 8
0 12 5 22 10 22 6 0 10 -3 10 -7z m920 -7 c0 -8 5 -18 12 -22 8 -5 9 -2 5 9
-3 10 -2 17 4 17 6 0 9 -8 7 -17 -2 -13 -15 -19 -46 -21 -35 -3 -42 0 -43 15
-1 16 -2 16 -6 -1 -4 -15 -7 -16 -14 -5 -8 12 -11 12 -20 -1 -8 -13 -10 -12
-7 4 2 12 12 20 28 22 34 3 62 -5 55 -17 -4 -5 -1 -9 5 -9 7 0 9 8 5 20 -4 11
-2 20 4 20 6 0 11 -6 11 -14z m102 5 c12 6 18 6 18 -1 0 -5 -7 -10 -16 -10
-10 0 -14 -6 -11 -14 4 -10 1 -13 -9 -9 -7 3 -14 10 -15 17 0 6 -4 2 -9 -9 -8
-20 -9 -20 -9 1 -1 26 10 37 22 25 7 -7 17 -7 29 0z m50 -23 c-15 -15 -26 -4
-18 18 5 13 9 15 18 6 9 -9 9 -15 0 -24z m-2907 -28 c5 -196 7 -233 14 -215 4
10 6 72 3 137 l-4 117 28 -4 c16 -2 35 -4 42 -4 9 -1 13 -33 14 -118 l2 -118
3 118 c5 156 23 154 23 -3 0 -115 1 -120 21 -120 21 0 21 2 14 120 -5 86 -4
120 4 120 7 0 12 -41 13 -122 l2 -123 3 123 c3 84 7 122 15 120 7 -3 11 -46
11 -121 1 -75 5 -117 11 -117 7 0 10 39 8 115 -1 76 1 115 8 115 8 0 10 -41 8
-124 -2 -101 -1 -123 11 -118 11 4 12 28 6 124 l-7 118 36 0 36 0 2 -122 2
-123 3 123 c2 70 8 122 13 122 6 0 10 -28 11 -62 0 -77 9 -181 15 -187 2 -2 4
52 4 121 0 123 0 125 23 122 12 -1 57 -3 100 -3 l77 -1 0 -166 0 -165 -42 5
c-24 3 -104 8 -178 11 -210 10 -423 33 -432 47 -4 7 -8 80 -8 161 l0 148 42
-3 41 -3 2 -45z m2540 25 c0 -14 -3 -25 -7 -25 -5 0 -8 11 -8 25 0 14 3 25 8
25 4 0 7 -11 7 -25z m92 5 c-2 -23 -12 -26 -20 -6 -3 8 -1 17 6 20 7 2 13 5
14 5 1 1 1 -8 0 -19z m-1037 0 c0 -5 -4 -10 -10 -10 -5 0 -10 5 -10 10 0 6 5
10 10 10 6 0 10 -4 10 -10z m255 0 c3 -5 1 -10 -4 -10 -6 0 -11 5 -11 10 0 6
2 10 4 10 3 0 8 -4 11 -10z m724 -7 c1 20 21 24 21 3 0 -15 -24 -28 -34 -19
-3 4 -6 13 -5 22 0 12 3 11 9 -4 7 -17 9 -17 9 -2z m1497 8 c-7 -10 -129 -49
-196 -61 -25 -5 -58 -12 -75 -15 -29 -5 -29 -5 -5 6 14 6 57 17 96 24 38 8 92
23 120 33 57 23 67 25 60 13z m-3929 -83 c-2 -18 -4 -6 -4 27 0 33 2 48 4 33
2 -15 2 -42 0 -60z m837 35 c10 4 15 -4 18 -29 2 -19 0 -34 -4 -34 -4 0 -8 5
-8 11 0 8 -4 8 -13 1 -7 -6 -18 -7 -26 -3 -7 5 -22 6 -33 3 -17 -4 -19 0 -16
24 2 21 8 28 21 26 9 -2 17 2 17 9 0 8 4 8 15 -1 8 -7 21 -10 29 -7z m142 -8
c17 17 39 21 29 5 -4 -6 4 -9 17 -7 19 2 23 -3 23 -23 0 -24 -3 -25 -57 -26
-55 0 -58 1 -59 25 -2 24 -2 24 -6 4 -2 -13 -8 -23 -12 -23 -4 0 -13 10 -20
23 -11 21 -11 20 -6 -6 4 -21 2 -28 -7 -25 -7 3 -13 16 -13 29 0 22 4 24 43
24 23 0 43 4 43 10 1 5 3 2 6 -7 4 -16 6 -16 19 -3z m168 -5 c9 0 12 -9 8 -25
-4 -21 -10 -25 -38 -25 -29 0 -34 3 -34 24 0 25 15 37 38 30 8 -2 19 -4 26 -4z
m126 -21 c0 -17 -4 -28 -10 -24 -5 3 -10 17 -10 31 0 13 5 24 10 24 6 0 10
-14 10 -31z m225 -9 c2 -25 0 -28 -11 -19 -8 6 -14 8 -15 3 -1 -5 -5 2 -9 16
-8 24 -8 24 -9 3 -1 -28 -17 -30 -24 -3 -3 11 -10 20 -16 20 -14 0 -14 -23 0
-37 7 -7 3 -9 -15 -6 -18 4 -26 12 -26 27 0 18 6 21 49 22 39 1 51 -2 54 -15
3 -10 5 -7 6 8 1 33 13 19 16 -19z m118 23 c-6 -16 -5 -16 10 -5 17 15 38 8
36 -11 0 -9 -2 -9 -6 1 -10 24 -25 12 -18 -15 5 -23 4 -25 -8 -14 -11 8 -17 9
-22 1 -5 -8 -11 -8 -21 1 -18 15 -18 24 2 43 21 21 35 20 27 -1z m229 -13 c3
-16 1 -30 -4 -30 -4 0 -8 14 -8 30 0 17 2 30 4 30 2 0 6 -13 8 -30z m-607 -7
c0 -28 -11 -30 -25 -3 -6 11 -15 20 -20 20 -14 0 -12 -27 3 -33 7 -3 5 -6 -5
-6 -13 -1 -18 7 -18 24 0 21 4 24 33 23 27 -1 32 -5 32 -25z m124 -1 l-1 -27
-8 25 c-8 24 -8 24 -9 3 -1 -19 -7 -23 -31 -23 -30 0 -40 13 -20 25 6 4 8 10
5 15 -3 4 11 8 30 8 31 0 35 -3 34 -26z m186 19 c3 -5 1 -12 -4 -15 -5 -4 -12
0 -15 6 -3 7 -4 0 -1 -15 4 -19 2 -26 -5 -22 -11 7 -14 38 -3 48 9 10 21 9 28
-2z m201 -24 c1 -20 -2 -24 -11 -17 -6 5 -15 7 -18 3 -4 -3 -7 3 -7 15 0 11
-6 23 -12 25 -7 3 1 4 17 4 25 -2 30 -6 31 -30z m73 3 c-1 -15 -3 -18 -6 -8
-2 9 -11 19 -20 22 -12 5 -14 1 -8 -21 5 -23 4 -25 -9 -14 -20 17 -4 50 24 48
15 -1 20 -8 19 -27z m60 5 c1 16 9 21 31 23 21 2 30 -2 30 -13 0 -8 5 -15 10
-15 6 0 10 -4 10 -8 0 -5 -7 -9 -15 -9 -8 0 -15 9 -15 19 0 10 -4 18 -10 18
-5 0 -10 -9 -10 -20 0 -15 -7 -20 -25 -20 -21 0 -25 5 -24 28 l1 27 8 -25 c7
-21 8 -22 9 -5z m129 8 c7 -7 10 -17 7 -23 -10 -16 -25 -12 -19 5 4 8 1 15 -4
15 -6 0 -12 -8 -14 -17 -3 -13 -6 -9 -10 10 -4 21 -2 27 11 25 9 -2 22 -9 29
-15z m56 -33 c-6 -6 -10 2 -11 23 -2 30 -1 31 9 9 7 -14 8 -26 2 -32z m352 23
c-7 -7 -26 7 -26 19 0 6 6 6 15 -2 9 -7 13 -15 11 -17z m37 12 c-3 -9 -8 -14
-10 -11 -3 3 -2 9 2 15 9 16 15 13 8 -4z m1290 -22 c-7 -2 -21 -2 -30 0 -10 3
-4 5 12 5 17 0 24 -2 18 -5z m-75 -13 c-15 -4 -51 -10 -80 -13 l-53 -6 55 13
c30 8 66 14 80 14 l25 0 -27 -8z m-4025 -7 c-7 -2 -21 -2 -30 0 -10 3 -4 5 12
5 17 0 24 -2 18 -5z m1122 -23 c5 8 13 1 23 -21 9 -21 16 -29 19 -20 3 7 -1
17 -8 22 -11 7 -10 9 4 9 11 0 17 -8 17 -23 0 -22 -3 -24 -64 -23 -36 0 -60 4
-54 7 7 4 7 9 -1 13 -14 9 -14 36 0 36 5 0 8 -4 4 -9 -3 -5 -1 -12 4 -16 6 -3
15 4 22 16 8 16 13 18 19 9 6 -10 9 -10 15 0z m2738 3 c-7 -2 -19 -2 -25 0 -7
3 -2 5 12 5 14 0 19 -2 13 -5z m-2499 -11 c-7 -4 -3 -15 13 -31 21 -20 24 -21
21 -5 -2 11 -6 21 -10 24 -4 3 15 6 41 6 45 1 48 -1 48 -26 0 -35 -29 -35 -38
0 l-7 25 -1 -25 c-1 -23 -4 -25 -55 -25 -47 0 -56 3 -71 25 l-16 25 6 -29 c5
-25 4 -28 -8 -18 -8 7 -17 9 -20 5 -4 -3 -7 1 -7 10 0 10 -4 17 -10 17 -5 0
-7 -7 -4 -15 4 -8 1 -15 -5 -15 -6 0 -11 10 -12 23 -1 21 -1 21 -9 -3 l-8 -25
-1 28 c-1 28 -1 28 52 23 30 -2 60 0 68 5 17 11 49 12 33 1z m976 -17 c19 0
40 3 45 7 6 3 10 -6 10 -23 0 -33 -7 -36 -29 -14 -13 13 -15 13 -19 -3 -4 -13
-5 -11 -6 6 -1 27 -21 30 -21 2 0 -15 -7 -20 -25 -20 -16 0 -25 6 -25 15 0 8
5 15 11 15 6 0 9 6 6 14 -7 18 6 32 13 14 3 -7 20 -13 40 -13z m1002 8 c26
-23 24 -90 -4 -120 -25 -27 -64 -30 -90 -6 -28 25 -22 60 16 99 31 32 35 33
50 19 9 -9 16 -19 16 -22 0 -14 -33 -41 -44 -37 -7 3 -19 -2 -26 -11 -11 -13
-10 -19 5 -35 15 -17 19 -17 32 -5 8 8 18 15 23 15 4 0 13 14 19 32 10 28 9
36 -9 60 -23 31 -17 37 12 11z m-1818 -9 c4 -12 2 -15 -9 -10 -9 3 -15 0 -15
-8 0 -8 6 -17 13 -19 7 -3 5 -6 -5 -6 -12 -1 -18 6 -18 22 0 37 23 51 34 21z
m276 8 c0 -4 23 -7 50 -6 33 2 50 -1 50 -9 0 -9 2 -9 8 -1 4 6 27 11 52 11 43
0 45 -1 46 -28 1 -23 -2 -27 -12 -18 -8 6 -14 8 -15 3 -1 -5 -5 2 -9 16 l-8
25 -1 -24 -1 -24 -21 24 -22 24 5 -27 c4 -19 1 -25 -6 -20 -6 3 -19 5 -28 4
-13 -2 -18 3 -18 18 0 12 -4 19 -10 15 -5 -3 -7 -12 -3 -20 3 -8 0 -15 -6 -15
-6 0 -12 10 -12 23 l-2 22 -4 -22 c-4 -18 -11 -23 -37 -23 -23 0 -39 7 -50 23
l-17 22 6 -30 c6 -28 5 -29 -11 -13 -21 21 -11 52 15 45 10 -2 25 -1 32 4 18
11 29 11 29 1z m672 1 c-10 -4 -10 -9 3 -23 14 -15 14 -18 1 -23 -10 -4 -13
-1 -9 9 7 19 -7 18 -22 -3 -7 -9 -17 -13 -23 -9 -15 9 -16 43 -2 48 16 5 66 6
52 1z m478 -7 c0 -9 -12 -16 -32 -18 -17 -2 -34 -9 -36 -17 -3 -10 0 -12 13
-7 24 9 55 -21 55 -53 0 -32 -8 -44 -38 -60 -19 -10 -28 -10 -48 4 -13 8 -24
19 -24 24 0 16 28 20 41 5 16 -19 41 1 37 30 -2 17 -9 21 -37 18 -33 -2 -33
-2 -27 29 3 17 6 38 6 45 0 10 13 14 45 14 32 0 45 -4 45 -14z m-1255 -21 c0
-17 -6 -21 -32 -22 -26 -1 -33 3 -33 18 0 10 -4 19 -10 19 -5 0 -10 -8 -10
-18 0 -10 -6 -19 -12 -19 -7 0 -21 -4 -30 -8 -15 -6 -18 -2 -18 23 l0 31 73
-1 c66 -2 72 -3 72 -23z m389 14 c-2 -4 0 -10 6 -14 12 -7 4 -25 -11 -25 -6 0
-8 4 -4 9 3 5 1 12 -4 15 -5 3 -11 -1 -15 -9 -8 -21 -36 -19 -36 3 0 10 2 21
5 24 8 8 65 5 59 -3z m75 -16 l-1 -28 -8 25 c-8 24 -8 24 -9 3 -1 -27 -21 -31
-21 -5 0 22 8 32 27 32 8 0 13 -11 12 -27z m96 0 c0 -28 -11 -30 -25 -3 -6 11
-15 20 -20 20 -12 0 -9 -22 4 -31 4 -4 -3 -6 -17 -6 -18 0 -24 5 -24 21 0 18
6 21 41 22 37 1 41 -2 41 -23z m805 -43 l0 -60 35 0 c19 0 35 -4 35 -9 0 -9
-88 -20 -96 -12 -7 7 -5 127 3 134 17 17 23 2 23 -53z m-2693 13 c-3 -10 -5
-4 -5 12 0 17 2 24 5 18 2 -7 2 -21 0 -30z m3599 17 c9 0 12 -4 9 -10 -3 -5
-25 -9 -48 -9 -33 2 -36 3 -13 6 23 4 26 7 15 15 -11 8 -10 9 4 4 10 -3 25 -6
33 -6z m-2828 -61 c3 -11 2 -11 -7 1 -7 9 -11 10 -11 3 0 -17 21 -28 29 -14 9
14 65 21 83 10 10 -7 10 -11 0 -21 -9 -9 -12 -9 -12 1 0 10 -3 11 -14 2 -18
-15 -74 -22 -82 -10 -3 5 -9 7 -13 5 -6 -4 -7 21 -2 42 2 9 25 -6 29 -19z
m276 -15 c-3 -13 -15 -20 -32 -22 -26 -1 -26 -1 -8 13 11 8 16 15 10 16 -5 0
0 4 11 8 25 10 25 10 19 -15z m-141 -3 c3 -14 1 -18 -9 -14 -8 3 -14 11 -14
19 0 21 17 17 23 -5z m37 4 c-7 -8 -14 -15 -15 -15 -2 0 -5 7 -9 15 -4 10 1
15 16 15 17 0 18 -2 8 -15z m43 -5 c-3 -12 -8 -19 -11 -16 -5 6 5 36 12 36 2
0 2 -9 -1 -20z m125 -4 c-5 19 -1 21 27 20 25 -1 31 -5 27 -18 -5 -22 -22 -24
-22 -2 0 8 -5 12 -10 9 -6 -4 -8 -11 -5 -16 4 -5 3 -9 -2 -10 -4 0 -16 -2 -26
-4 -9 -2 -15 1 -12 5 3 5 0 12 -6 16 -6 3 -15 0 -20 -7 -5 -8 -9 -9 -9 -3 0 5
6 16 13 23 10 10 16 7 31 -11 18 -22 19 -22 14 -2z m171 7 c-7 -10 -14 -19
-15 -21 -1 -2 -4 4 -8 13 -3 9 -2 13 3 10 5 -3 12 -1 16 5 3 5 9 10 12 10 3 0
-1 -8 -8 -17z m425 4 c4 4 4 0 0 -10 -3 -9 -10 -17 -16 -17 -5 0 -7 4 -3 9 3
5 1 12 -4 15 -5 3 -12 -1 -15 -10 -4 -9 -9 -14 -13 -11 -11 12 19 38 32 27 6
-5 15 -7 19 -3z m159 -2 c-3 -9 -8 -14 -10 -11 -3 3 -2 9 2 15 9 16 15 13 8
-4z m59 -3 c3 -11 0 -19 -7 -19 -7 0 -10 8 -7 19 2 10 6 18 7 18 1 0 5 -8 7
-18z m-727 -1 c3 -5 1 -12 -5 -16 -5 -3 -10 1 -10 9 0 18 6 21 15 7z m42 -13
c-3 -8 -6 -5 -6 6 -1 11 2 17 5 13 3 -3 4 -12 1 -19z m104 -1 c-10 -9 -11 -8
-5 6 3 10 9 15 12 12 3 -3 0 -11 -7 -18z m33 8 c-4 -8 -8 -15 -10 -15 -2 0 -4
7 -4 15 0 8 4 15 10 15 5 0 7 -7 4 -15z m93 -5 c4 -13 3 -13 -7 0 -9 11 -13
12 -17 3 -6 -17 -20 -16 -26 1 -4 11 1 14 20 13 15 -1 28 -9 30 -17z m76 0
c-3 -12 -8 -19 -11 -16 -5 6 5 36 12 36 2 0 2 -9 -1 -20z m219 11 c8 12 9 12
6 0 -6 -22 -28 -25 -27 -4 0 12 2 14 6 4 5 -11 7 -11 15 0z m75 -6 c0 -8 -4
-12 -9 -9 -5 3 -6 10 -3 15 9 13 12 11 12 -6z m156 0 c-3 -9 -8 -14 -10 -11
-3 3 -2 9 2 15 9 16 15 13 8 -4z m-506 -17 c-3 -8 -6 -5 -6 6 -1 11 2 17 5 13
3 -3 4 -12 1 -19z m88 12 c3 -5 1 -10 -4 -10 -6 0 -11 5 -11 10 0 6 2 10 4 10
3 0 8 -4 11 -10z m62 -5 c0 -8 -4 -12 -9 -9 -5 3 -6 10 -3 15 9 13 12 11 12
-6z m-322 -5 c3 -6 -1 -7 -9 -4 -18 7 -21 14 -7 14 6 0 13 -4 16 -10z m-420
-33 c40 4 56 -3 49 -22 -9 -23 -84 -21 -85 3 -1 15 -2 15 -6 0 -2 -9 -13 -16
-24 -15 -22 1 -22 2 -9 28 8 14 16 17 28 11 9 -5 31 -7 47 -5z m146 -18 c6
-10 9 -11 9 -1 0 6 11 12 25 12 25 0 35 -23 15 -35 -6 -4 -9 -1 -8 6 2 6 -3
14 -9 16 -7 3 -13 0 -13 -6 0 -17 -28 -13 -39 7 -10 16 -10 16 -11 0 0 -20
-30 -25 -30 -5 0 8 -4 7 -10 -3 -8 -13 -10 -13 -10 2 0 28 64 34 81 7z m295
-22 c-2 -7 -5 -3 -5 7 -1 20 -1 20 -16 0 -14 -19 -14 -19 -15 3 0 12 6 23 13
26 14 5 30 -19 23 -36z m-1645 -34 c10 -24 16 -43 13 -43 -8 0 -44 83 -43 100
1 13 1 13 6 0 3 -8 14 -34 24 -57z m1506 51 c3 -8 10 -11 17 -7 6 3 5 0 -2 -8
-11 -12 -15 -11 -27 4 -8 12 -15 14 -20 7 -7 -11 -25 -5 -25 9 0 14 51 9 57
-5z m86 -10 c-7 -19 -10 -18 -16 5 -3 13 -1 18 9 14 7 -2 10 -11 7 -19z m127
11 c7 -9 10 -18 6 -22 -3 -3 -6 -1 -6 7 0 10 -3 10 -15 0 -19 -15 -28 -9 -19
14 8 20 18 20 34 1z m189 -13 c-1 -15 -2 -15 -6 1 -2 9 -9 14 -15 11 -7 -4 -8
-2 -4 5 10 15 26 4 25 -17z m372 11 c13 -16 12 -17 -3 -4 -17 13 -22 21 -14
21 2 0 10 -8 17 -17z m-508 -8 c-3 -9 -8 -14 -10 -11 -3 3 -2 9 2 15 9 16 15
13 8 -4z m51 0 c-4 -8 -10 -15 -15 -15 -4 0 -6 7 -3 15 4 8 10 15 15 15 4 0 6
-7 3 -15z m126 6 c0 -6 -4 -13 -10 -16 -5 -3 -10 1 -10 9 0 9 5 16 10 16 6 0
10 -4 10 -9z m50 -8 c0 -7 -10 -13 -22 -12 -13 0 -17 3 -10 6 6 2 10 8 8 12
-3 4 1 8 9 8 8 0 15 -6 15 -14z m60 8 c0 -6 -4 -13 -10 -16 -5 -3 -10 1 -10 9
0 9 5 16 10 16 6 0 10 -4 10 -9z m40 -6 c0 -8 -2 -15 -4 -15 -2 0 -6 7 -10 15
-3 8 -1 15 4 15 6 0 10 -7 10 -15z m61 -2 c13 -16 12 -17 -3 -4 -10 7 -18 15
-18 17 0 8 8 3 21 -13z m-711 -3 c0 -5 -4 -10 -10 -10 -5 0 -10 5 -10 10 0 6
5 10 10 10 6 0 10 -4 10 -10z m115 0 c3 -5 1 -10 -4 -10 -6 0 -11 5 -11 10 0
6 2 10 4 10 3 0 8 -4 11 -10z m-638 -24 c26 4 33 2 28 -7 -6 -8 -4 -10 5 -4
17 11 112 7 120 -5 10 -17 302 -25 898 -25 l572 0 0 -66 0 -67 -227 -7 c-412
-14 -1840 18 -1863 42 -3 3 93 2 213 -2 l218 -7 -3 48 -3 49 -80 7 c-44 4
-105 11 -135 14 -55 7 -55 7 -20 15 19 5 49 9 67 10 19 1 30 6 26 12 -4 7 1 8
13 3 10 -5 41 -10 67 -12 38 -3 49 0 55 14 6 16 7 16 10 0 3 -14 10 -17 39
-12z m3038 -286 c-3 -5 -14 -10 -23 -10 -15 0 -15 2 -2 10 20 13 33 13 25 0z
m164 6 c-7 -7 -131 -37 -136 -33 -2 3 22 11 54 20 59 15 90 20 82 13z m-162
-42 c-3 -3 -12 -4 -19 -1 -8 3 -5 6 6 6 11 1 17 -2 13 -5z m-2848 -19 c2 -3
-28 -5 -67 -5 -39 0 -74 4 -77 10 -6 10 134 5 144 -5z m2798 9 c-3 -3 -12 -4
-19 -1 -8 3 -5 6 6 6 11 1 17 -2 13 -5z m-3194 -11 c-13 -2 -33 -2 -45 0 -13
2 -3 4 22 4 25 0 35 -2 23 -4z m3144 1 c-3 -3 -12 -4 -19 -1 -8 3 -5 6 6 6 11
1 17 -2 13 -5z m-2969 -11 c-26 -2 -71 -2 -100 0 -29 2 -8 3 47 3 55 0 79 -1
53 -3z m-23 -118 c140 -6 187 -14 104 -17 -146 -5 -299 -4 -334 2 l-40 7 55 9
c30 6 60 9 65 8 6 -1 73 -5 150 -9z m82 -60 c152 -9 279 -18 282 -20 13 -14
-426 6 -559 25 -88 12 -18 11 277 -5z m-679 -42 c-10 -2 -26 -2 -35 0 -10 3
-2 5 17 5 19 0 27 -2 18 -5z m95 -10 c-13 -2 -33 -2 -45 0 -13 2 -3 4 22 4 25
0 35 -2 23 -4z m94 0 c-3 -5 65 -9 151 -10 263 -4 427 -14 681 -40 121 -12 35
-26 -191 -31 -156 -3 -218 -2 -218 6 0 7 -11 9 -30 6 -27 -6 -113 3 -255 26
-33 6 -94 15 -135 22 -68 11 -72 13 -40 19 19 3 36 7 38 8 2 0 1 -2 -1 -6z
m-743 -78 c19 -4 25 -10 19 -16 -6 -6 -23 -4 -46 6 -38 16 -51 30 -19 22 9 -3
30 -8 46 -12z m977 -29 c15 -3 30 -13 33 -22 5 -12 2 -15 -9 -10 -9 3 -13 2
-10 -4 11 -17 -23 -23 -55 -9 -33 15 -40 29 -14 29 14 0 15 2 3 16 -12 15 -11
16 6 11 11 -3 32 -8 46 -11z m322 7 c-7 -2 -19 -2 -25 0 -7 3 -2 5 12 5 14 0
19 -2 13 -5z m-256 -59 c-3 -3 -12 -4 -19 -1 -8 3 -5 6 6 6 11 1 17 -2 13 -5z
m223 -10 c0 -20 -41 -25 -210 -25 -43 -1 -80 5 -80 11 0 4 41 8 92 9 51 0 96
5 102 11 14 14 96 10 96 -6z m53 -11 c-7 -2 -19 -2 -25 0 -7 3 -2 5 12 5 14 0
19 -2 13 -5z m-386 -19 c-3 -3 -12 -4 -19 -1 -8 3 -5 6 6 6 11 1 17 -2 13 -5z
m128 -26 c6 -5 -7 -6 -35 -2 -25 4 -42 3 -38 -1 11 -11 109 -44 133 -45 11 0
32 -7 48 -14 17 -9 27 -11 27 -4 0 7 4 7 13 0 7 -6 31 -12 54 -13 23 -2 40 -6
38 -9 -2 -3 -37 -3 -77 1 -40 4 -86 8 -103 7 -30 0 -30 0 -5 -9 16 -6 -5 -7
-60 -3 -47 2 -89 10 -95 16 -7 8 -3 9 13 5 12 -3 22 -1 22 3 0 5 -14 11 -30
15 -17 4 -28 10 -25 15 3 5 -7 11 -22 13 -25 3 -24 4 7 6 28 1 32 4 20 12 -12
9 -11 10 7 6 13 -3 25 -1 28 3 3 5 -3 10 -12 13 -10 2 5 2 32 -1 28 -2 55 -9
60 -14z m32 -24 c-3 -3 -12 -4 -19 -1 -8 3 -5 6 6 6 11 1 17 -2 13 -5z m3306
-11 c-13 -2 -33 -2 -45 0 -13 2 -3 4 22 4 25 0 35 -2 23 -4z m-78 -13 c-3 -5
-12 -10 -18 -10 -7 0 -6 4 3 10 19 12 23 12 15 0z m-2 -37 c-7 -2 -19 -2 -25
0 -7 3 -2 5 12 5 14 0 19 -2 13 -5z m-3158 -13 c3 -5 1 -10 -4 -10 -6 0 -11 5
-11 10 0 6 2 10 4 10 3 0 8 -4 11 -10z m115 -14 c36 1 57 -1 47 -3 -9 -3 -15
-8 -12 -13 3 -5 1 -12 -5 -15 -6 -4 -9 -1 -8 7 4 19 -58 22 -84 4 -26 -18 -38
-20 -38 -6 0 6 8 10 18 11 10 0 12 3 5 6 -7 2 -13 9 -13 14 0 6 6 7 13 2 6 -4
41 -7 77 -7z m3124 -1 c11 -8 16 -15 10 -15 -5 0 -18 7 -28 15 -11 8 -16 15
-10 15 5 0 18 -7 28 -15z m96 -71 c0 -8 -6 -14 -14 -14 -9 0 -12 7 -9 20 6 22
23 18 23 -6z m-3350 0 c0 -8 -5 -12 -10 -9 -6 4 -8 11 -5 16 9 14 15 11 15 -7z
m57 10 c-3 -3 -12 -4 -19 -1 -8 3 -5 6 6 6 11 1 17 -2 13 -5z m3226 -51 c1
-60 -36 -225 -63 -280 -26 -55 -70 -111 -54 -69 3 9 10 16 14 16 11 0 47 88
59 141 16 79 23 176 10 159 -9 -12 -10 -11 -6 9 4 17 1 25 -14 28 -10 3 -19 9
-19 14 0 5 11 7 25 3 20 -5 25 -2 25 12 0 13 3 15 11 7 7 -7 12 -24 12 -40z
m-3837 -2 c-4 -5 0 -12 6 -15 7 -2 2 -3 -12 -1 -14 2 -34 4 -45 6 -12 1 -6 5
15 9 19 4 36 8 38 9 2 0 1 -3 -2 -8z m203 -55 c52 -25 71 -50 54 -67 -16 -16
-74 -3 -117 26 -20 14 -43 25 -51 25 -8 0 -17 5 -21 12 -5 8 -2 9 9 5 28 -11
19 1 -13 18 -16 9 -30 19 -30 24 0 12 118 -17 169 -43z m3564 33 c-8 -8 -13
-7 -18 2 -5 8 -4 10 3 5 7 -4 12 -2 12 5 0 7 3 9 7 6 4 -4 2 -12 -4 -18z
m-4062 -3 c-6 -7 -9 -20 -6 -27 3 -8 -3 -19 -14 -26 -16 -10 -18 -9 -18 13 0
14 9 31 20 39 27 19 33 19 18 1z m3669 -1 c0 -8 -7 -15 -15 -15 -13 0 -14 3
-3 15 16 18 18 18 18 0z m-2425 -25 c17 -7 14 -9 -15 -10 -23 -2 -28 -4 -15
-7 11 -3 31 -10 45 -15 25 -10 25 -10 3 -18 -26 -10 -151 -28 -250 -37 -55 -4
-73 -3 -73 7 0 7 -6 10 -13 7 -8 -3 -20 -1 -27 3 -32 19 29 48 155 74 37 7
170 5 190 -4z m2902 -62 c-3 -7 -5 -2 -5 12 0 14 2 19 5 13 2 -7 2 -19 0 -25z
m-4180 -10 c-3 -8 -6 -5 -6 6 -1 11 2 17 5 13 3 -3 4 -12 1 -19z m-120 -20
c-3 -7 -5 -2 -5 12 0 14 2 19 5 13 2 -7 2 -19 0 -25z m679 -14 c13 -3 24 -10
24 -14 0 -18 -17 -18 -48 2 -34 21 -43 34 -16 24 9 -3 27 -9 40 -12z m627 9
c-7 -2 -19 -2 -25 0 -7 3 -2 5 12 5 14 0 19 -2 13 -5z m-128 -22 c-38 -9 -79
-15 -90 -12 -25 6 73 29 125 29 26 0 17 -4 -35 -17z m-1145 -211 c0 -36 -34
-70 -69 -70 l-26 0 28 15 c39 20 57 40 57 64 0 12 2 21 5 21 3 0 5 -13 5 -30z
m150 -5 c0 -5 -5 -3 -10 5 -5 8 -10 20 -10 25 0 6 5 3 10 -5 5 -8 10 -19 10
-25z m-355 -45 c3 -5 -1 -10 -9 -10 -9 0 -16 5 -16 10 0 6 4 10 9 10 6 0 13
-4 16 -10z m2017 -125 c-2 -14 -8 -25 -13 -25 -5 0 -9 2 -9 4 0 2 -3 11 -6 19
-3 10 2 17 13 20 10 3 19 5 19 6 1 0 -1 -10 -4 -24z m-44 -27 c-16 -52 -278
-93 -455 -72 -95 12 -56 19 81 16 119 -3 145 -1 231 22 53 14 104 30 113 36
23 13 34 12 30 -2z m-528 -48 c12 -8 11 -10 -7 -10 -12 0 -25 5 -28 10 -8 13
15 13 35 0z"/>
<path d="M2880 8281 c0 -6 4 -13 10 -16 6 -3 7 1 4 9 -7 18 -14 21 -14 7z"/>
<path d="M6305 6380 c3 -5 8 -10 11 -10 2 0 4 5 4 10 0 6 -5 10 -11 10 -5 0
-7 -4 -4 -10z"/>
<path d="M3910 5594 c0 -9 5 -14 12 -12 18 6 21 28 4 28 -9 0 -16 -7 -16 -16z"/>
<path d="M4094 5626 c-8 -22 3 -49 19 -43 6 2 12 14 12 27 0 27 -22 39 -31 16z"/>
<path d="M3990 5610 c0 -5 5 -10 11 -10 5 0 7 5 4 10 -3 6 -8 10 -11 10 -2 0
-4 -4 -4 -10z"/>
<path d="M4325 5590 c-3 -5 -1 -10 4 -10 6 0 11 5 11 10 0 6 -2 10 -4 10 -3 0
-8 -4 -11 -10z"/>
<path d="M4590 5594 c0 -9 5 -14 12 -12 18 6 21 28 4 28 -9 0 -16 -7 -16 -16z"/>
<path d="M4670 5610 c0 -5 5 -10 10 -10 6 0 10 5 10 10 0 6 -4 10 -10 10 -5 0
-10 -4 -10 -10z"/>
<path d="M4237 5110 c-25 -27 -49 -66 -53 -85 l-9 -36 -80 -3 c-44 -2 -101
-12 -127 -21 -45 -16 -48 -19 -48 -52 0 -30 3 -34 18 -28 40 17 119 35 157 35
85 0 155 -65 155 -144 l0 -42 -121 -11 c-202 -19 -270 -69 -277 -202 -2 -51 1
-74 16 -101 58 -106 281 -115 360 -15 11 14 23 25 26 25 3 0 6 -21 6 -46 l0
-45 36 3 36 3 -2 230 c0 127 -5 246 -10 265 -14 52 -46 99 -81 118 -27 15 -29
21 -24 52 4 19 15 48 24 64 l18 28 8 -38 c10 -56 40 -110 77 -137 34 -25 92
-57 104 -57 3 0 4 25 2 55 -6 69 -43 126 -113 174 -28 18 -49 39 -47 47 5 23
-4 17 -51 -36z m8 -422 c-4 -13 -29 -69 -56 -124 -54 -114 -87 -144 -155 -144
-103 0 -160 105 -98 179 35 42 50 49 178 82 139 35 139 35 131 7z"/>
<path d="M4512 4784 c-12 -8 -22 -10 -22 -5 0 6 -11 11 -25 11 -25 0 -25 0
-25 -95 0 -95 0 -95 25 -95 24 0 25 3 25 61 0 68 12 99 39 99 25 0 31 -19 31
-96 0 -62 1 -64 25 -64 24 0 25 2 25 63 0 68 16 104 43 94 17 -6 30 -70 25
-122 -3 -26 1 -30 25 -33 l27 -3 -1 68 c-1 92 -9 116 -43 128 -21 7 -34 6 -55
-6 -24 -14 -30 -14 -46 -3 -25 18 -45 18 -73 -2z"/>
<path d="M6528 5143 c7 -3 16 -2 19 1 4 3 -2 6 -13 5 -11 0 -14 -3 -6 -6z"/>
<path d="M2940 5070 c-9 -6 -10 -10 -3 -10 6 0 15 5 18 10 8 12 4 12 -15 0z"/>
<path d="M2970 5060 c0 -5 4 -10 9 -10 6 0 13 5 16 10 3 6 -1 10 -9 10 -9 0
-16 -4 -16 -10z"/>
<path d="M3010 5055 c-16 -19 -1 -19 24 0 16 12 17 15 4 15 -8 0 -21 -7 -28
-15z"/>
<path d="M3300 5045 c0 -8 5 -15 10 -15 6 0 10 7 10 15 0 8 -4 15 -10 15 -5 0
-10 -7 -10 -15z"/>
<path d="M3480 5039 c0 -11 5 -17 10 -14 6 3 10 13 10 21 0 8 -4 14 -10 14 -5
0 -10 -9 -10 -21z"/>
<path d="M2852 4940 c0 -14 2 -19 5 -12 2 6 2 18 0 25 -3 6 -5 1 -5 -13z"/>
<path d="M3120 4930 c0 -11 5 -20 10 -20 6 0 10 9 10 20 0 11 -4 20 -10 20 -5
0 -10 -9 -10 -20z"/>
<path d="M3270 4931 c0 -12 6 -21 16 -21 9 0 14 7 12 17 -5 25 -28 28 -28 4z"/>
<path d="M3385 4930 c-8 -13 4 -32 16 -25 12 8 12 35 0 35 -6 0 -13 -4 -16
-10z"/>
<path d="M5605 4920 c-3 -5 -1 -10 4 -10 6 0 11 5 11 10 0 6 -2 10 -4 10 -3 0
-8 -4 -11 -10z"/>
<path d="M2732 4770 c0 -14 2 -19 5 -12 2 6 2 18 0 25 -3 6 -5 1 -5 -13z"/>
<path d="M2870 4760 c0 -11 5 -20 10 -20 6 0 10 9 10 20 0 11 -4 20 -10 20 -5
0 -10 -9 -10 -20z"/>
<path d="M2922 4760 c0 -14 2 -19 5 -12 2 6 2 18 0 25 -3 6 -5 1 -5 -13z"/>
<path d="M3180 4745 c0 -14 5 -25 10 -25 6 0 10 11 10 25 0 14 -4 25 -10 25
-5 0 -10 -11 -10 -25z"/>
<path d="M3232 4740 c0 -14 2 -19 5 -12 2 6 2 18 0 25 -3 6 -5 1 -5 -13z"/>
<path d="M5572 4750 c0 -14 2 -19 5 -12 2 6 2 18 0 25 -3 6 -5 1 -5 -13z"/>
<path d="M5632 4755 c0 -16 2 -22 5 -12 2 9 2 23 0 30 -3 6 -5 -1 -5 -18z"/>
<path d="M5325 4760 c-3 -5 -1 -10 4 -10 6 0 11 5 11 10 0 6 -2 10 -4 10 -3 0
-8 -4 -11 -10z"/>
<path d="M5372 4745 c0 -16 2 -22 5 -12 2 9 2 23 0 30 -3 6 -5 -1 -5 -18z"/>
<path d="M5410 4745 c0 -15 4 -24 10 -20 6 3 10 12 10 20 0 8 -4 17 -10 20 -6
4 -10 -5 -10 -20z"/>
<path d="M2710 4670 c0 -5 5 -10 11 -10 5 0 7 5 4 10 -3 6 -8 10 -11 10 -2 0
-4 -4 -4 -10z"/>
<path d="M3201 4644 c0 -11 3 -14 6 -6 3 7 2 16 -1 19 -3 4 -6 -2 -5 -13z"/>
<path d="M3241 4644 c0 -11 3 -14 6 -6 3 7 2 16 -1 19 -3 4 -6 -2 -5 -13z"/>
<path d="M5390 4649 c0 -5 5 -7 10 -4 6 3 10 8 10 11 0 2 -4 4 -10 4 -5 0 -10
-5 -10 -11z"/>
<path d="M3000 4571 c0 -6 4 -13 10 -16 6 -3 7 1 4 9 -7 18 -14 21 -14 7z"/>
<path d="M3240 4560 c0 -5 5 -10 10 -10 6 0 10 5 10 10 0 6 -4 10 -10 10 -5 0
-10 -4 -10 -10z"/>
<path d="M2661 4524 c0 -11 3 -14 6 -6 3 7 2 16 -1 19 -3 4 -6 -2 -5 -13z"/>
<path d="M3300 4480 c0 -5 5 -10 10 -10 6 0 10 5 10 10 0 6 -4 10 -10 10 -5 0
-10 -4 -10 -10z"/>
<path d="M6408 4333 c7 -3 16 -2 19 1 4 3 -2 6 -13 5 -11 0 -14 -3 -6 -6z"/>
<path d="M5730 4340 c0 -5 5 -10 10 -10 6 0 10 5 10 10 0 6 -4 10 -10 10 -5 0
-10 -4 -10 -10z"/>
<path d="M3311 4254 c0 -11 3 -14 6 -6 3 7 2 16 -1 19 -3 4 -6 -2 -5 -13z"/>
<path d="M5821 4184 c0 -11 3 -14 6 -6 3 7 2 16 -1 19 -3 4 -6 -2 -5 -13z"/>
<path d="M5671 4174 c0 -11 3 -14 6 -6 3 7 2 16 -1 19 -3 4 -6 -2 -5 -13z"/>
<path d="M5762 4180 c0 -14 2 -19 5 -12 2 6 2 18 0 25 -3 6 -5 1 -5 -13z"/>
<path d="M5700 4090 c0 -5 5 -10 10 -10 6 0 10 5 10 10 0 6 -4 10 -10 10 -5 0
-10 -4 -10 -10z"/>
<path d="M3757 3909 c-22 -13 -47 -61 -47 -92 0 -31 23 -51 48 -43 23 8 60 46
44 46 -6 0 -14 -4 -17 -10 -7 -12 -45 -13 -45 -2 0 5 11 14 24 20 37 17 62 58
46 77 -14 17 -28 18 -53 4z"/>
<path d="M4243 3973 c-28 -39 -35 -53 -29 -53 9 0 59 70 53 76 -2 3 -14 -7
-24 -23z"/>
<path d="M4056 3889 c-27 -32 -35 -79 -13 -79 15 0 77 78 77 97 0 24 -38 13
-64 -18z"/>
<path d="M4492 3897 c-12 -13 -25 -37 -28 -55 -6 -28 -4 -32 15 -32 11 0 21 5
21 11 0 7 11 22 25 35 30 27 34 64 7 64 -10 0 -28 -10 -40 -23z"/>
<path d="M5691 3874 c0 -11 3 -14 6 -6 3 7 2 16 -1 19 -3 4 -6 -2 -5 -13z"/>
<path d="M2691 3854 c0 -11 3 -14 6 -6 3 7 2 16 -1 19 -3 4 -6 -2 -5 -13z"/>
<path d="M2746 3855 c-9 -26 -7 -32 5 -12 6 10 9 21 6 23 -2 3 -7 -2 -11 -11z"/>
<path d="M2660 3770 c0 -5 5 -10 10 -10 6 0 10 5 10 10 0 6 -4 10 -10 10 -5 0
-10 -4 -10 -10z"/>
<path d="M2746 3757 c3 -10 9 -15 12 -12 3 3 0 11 -7 18 -10 9 -11 8 -5 -6z"/>
<path d="M4627 3728 c-39 -52 -60 -88 -55 -93 2 -3 15 -6 28 -7 29 -4 70 51
70 93 0 41 -16 44 -43 7z"/>
<path d="M4555 3610 c-3 -5 -1 -10 4 -10 6 0 11 5 11 10 0 6 -2 10 -4 10 -3 0
-8 -4 -11 -10z"/>
<path d="M2882 3740 c0 -14 2 -19 5 -12 2 6 2 18 0 25 -3 6 -5 1 -5 -13z"/>
<path d="M4314 3718 c-4 -7 -14 -24 -23 -38 l-15 -25 23 20 c28 24 46 55 32
55 -5 0 -13 -6 -17 -12z"/>
<path d="M4022 3633 c-25 -36 -35 -70 -24 -77 16 -9 72 64 72 93 0 21 -29 11
-48 -16z"/>
<path d="M4165 3640 c-16 -17 -16 -20 -2 -20 14 0 47 25 47 36 0 12 -29 2 -45
-16z"/>
<path d="M5816 3715 c-3 -8 -1 -15 4 -15 6 0 10 7 10 15 0 8 -2 15 -4 15 -2 0
-6 -7 -10 -15z"/>
<path d="M4767 3628 c-9 -7 -23 -30 -32 -51 -14 -34 -14 -38 0 -43 10 -4 27 5
45 27 46 51 36 103 -13 67z"/>
<path d="M6513 3563 c-10 -3 -9 -8 2 -19 17 -18 37 -10 28 11 -5 16 -10 17
-30 8z"/>
<path d="M3680 3355 c0 -8 5 -15 10 -15 6 0 10 7 10 15 0 8 -4 15 -10 15 -5 0
-10 -7 -10 -15z"/>
<path d="M3870 3350 c0 -5 5 -10 10 -10 6 0 10 5 10 10 0 6 -4 10 -10 10 -5 0
-10 -4 -10 -10z"/>
<path d="M3983 3364 c-3 -8 -1 -20 6 -27 8 -8 11 -4 11 16 0 30 -7 35 -17 11z"/>
<path d="M4171 3344 c0 -11 3 -14 6 -6 3 7 2 16 -1 19 -3 4 -6 -2 -5 -13z"/>
<path d="M4475 3351 c-3 -5 -1 -12 5 -16 5 -3 10 1 10 9 0 18 -6 21 -15 7z"/>
<path d="M4720 3345 c0 -8 5 -15 10 -15 6 0 10 7 10 15 0 8 -4 15 -10 15 -5 0
-10 -7 -10 -15z"/>
<path d="M2764 3210 c4 -135 16 -140 16 -7 0 63 -4 107 -10 107 -6 0 -8 -40
-6 -100z"/>
<path d="M3124 3185 c0 -66 1 -92 3 -57 2 34 2 88 0 120 -2 31 -3 3 -3 -63z"/>
<path d="M3190 3270 c0 -5 5 -10 11 -10 5 0 7 5 4 10 -3 6 -8 10 -11 10 -2 0
-4 -4 -4 -10z"/>
<path d="M3190 3198 c0 -32 4 -58 10 -58 12 0 13 -27 1 -32 -4 -1 -2 -19 5
-38 l12 -35 1 56 c1 31 -4 61 -11 68 -10 11 -10 13 0 7 15 -9 15 0 -3 49 l-14
40 -1 -57z"/>
<path d="M3153 3145 c0 -44 2 -61 4 -37 2 23 2 59 0 80 -2 20 -4 1 -4 -43z"/>
<path d="M3631 3254 c0 -11 3 -14 6 -6 3 7 2 16 -1 19 -3 4 -6 -2 -5 -13z"/>
<path d="M3681 3254 c0 -11 3 -14 6 -6 3 7 2 16 -1 19 -3 4 -6 -2 -5 -13z"/>
<path d="M3852 3250 c0 -14 2 -19 5 -12 2 6 2 18 0 25 -3 6 -5 1 -5 -13z"/>
<path d="M3890 3244 c0 -8 5 -12 10 -9 6 4 8 11 5 16 -9 14 -15 11 -15 -7z"/>
<path d="M3961 3244 c0 -11 3 -14 6 -6 3 7 2 16 -1 19 -3 4 -6 -2 -5 -13z"/>
<path d="M4461 3244 c0 -11 3 -14 6 -6 3 7 2 16 -1 19 -3 4 -6 -2 -5 -13z"/>
<path d="M3611 3154 c0 -11 3 -14 6 -6 3 7 2 16 -1 19 -3 4 -6 -2 -5 -13z"/>
<path d="M3841 3154 c0 -11 3 -14 6 -6 3 7 2 16 -1 19 -3 4 -6 -2 -5 -13z"/>
<path d="M4281 3144 c0 -11 3 -14 6 -6 3 7 2 16 -1 19 -3 4 -6 -2 -5 -13z"/>
<path d="M4930 3144 c0 -8 5 -12 10 -9 6 3 10 10 10 16 0 5 -4 9 -10 9 -5 0
-10 -7 -10 -16z"/>
<path d="M4081 3144 c0 -11 3 -14 6 -6 3 7 2 16 -1 19 -3 4 -6 -2 -5 -13z"/>
<path d="M4150 3145 c0 -8 5 -15 10 -15 6 0 10 7 10 15 0 8 -4 15 -10 15 -5 0
-10 -7 -10 -15z"/>
<path d="M4540 3145 c0 -8 5 -15 10 -15 6 0 10 7 10 15 0 8 -4 15 -10 15 -5 0
-10 -7 -10 -15z"/>
<path d="M3831 2859 c0 -8 4 -23 8 -33 7 -19 8 -19 13 2 4 12 0 26 -8 33 -11
9 -14 8 -13 -2z"/>
<path d="M3865 2852 c3 -8 5 -19 5 -27 0 -9 20 -13 75 -13 67 1 75 2 75 20 0
10 5 16 10 13 6 -4 8 -10 5 -14 -2 -5 4 -16 15 -26 15 -13 23 -15 33 -7 7 6
25 9 39 7 26 -5 26 -5 12 25 -9 16 -20 30 -25 30 -6 0 -5 -9 2 -21 8 -16 8
-20 -1 -14 -6 4 -18 -1 -26 -11 -9 -11 -12 -13 -8 -5 3 7 0 18 -7 23 -11 8
-10 9 4 4 10 -3 17 0 17 8 0 9 -16 13 -54 12 -41 0 -52 -3 -45 -12 6 -8 6 -14
1 -18 -6 -3 -13 5 -16 19 -6 24 -26 36 -26 15 0 -5 -7 -6 -17 -3 -11 4 -14 3
-9 -5 4 -7 2 -12 -3 -12 -6 0 -11 7 -11 15 0 10 -9 14 -25 13 -17 -2 -24 -7
-20 -16z"/>
<path d="M4221 2863 c-1 -7 -11 -12 -23 -10 -19 2 -24 -4 -26 -30 -3 -30 10
-44 22 -25 3 5 45 7 94 6 l88 -3 -4 29 c-3 24 -8 29 -26 26 -11 -2 -20 -9 -18
-15 3 -15 -15 -14 -21 2 -3 7 -6 5 -6 -5 -1 -21 -21 -25 -21 -4 0 18 -27 28
-36 14 -5 -8 -10 -5 -15 8 -4 10 -8 13 -8 7z m49 -32 c0 -6 -4 -13 -10 -16 -5
-3 -10 1 -10 9 0 9 5 16 10 16 6 0 10 -4 10 -9z"/>
<path d="M4410 2830 c0 -26 2 -27 55 -29 49 -1 55 1 55 20 0 11 4 18 10 14 5
-3 7 -12 4 -19 -3 -9 5 -15 23 -19 15 -3 29 -2 31 2 1 4 18 6 37 5 26 -2 33 0
28 11 -3 8 -1 15 5 15 5 0 12 -7 16 -15 3 -9 18 -15 36 -15 28 0 31 3 28 27
-2 14 -9 29 -17 31 -9 3 -12 0 -9 -9 3 -8 -1 -21 -10 -28 -13 -13 -14 -12 -10
11 4 23 2 26 -21 23 -14 -2 -28 -4 -31 -5 -3 -2 -8 -2 -12 -1 -5 0 -8 -6 -8
-14 0 -8 -4 -15 -10 -15 -5 0 -7 7 -4 15 5 12 -5 15 -61 15 -41 0 -64 -4 -60
-10 3 -5 1 -10 -4 -10 -6 0 -11 6 -11 13 0 8 -12 14 -30 14 -26 0 -30 -4 -30
-27z m30 0 c0 -5 -4 -10 -10 -10 -5 0 -10 5 -10 10 0 6 5 10 10 10 6 0 10 -4
10 -10z m140 0 c0 -5 -4 -10 -10 -10 -5 0 -10 5 -10 10 0 6 5 10 10 10 6 0 10
-4 10 -10z"/>
<path d="M3515 1800 c-13 -6 -15 -9 -5 -9 8 0 22 4 30 9 18 12 2 12 -25 0z"/>
<path d="M2910 8161 c0 -5 5 -13 10 -16 6 -3 10 -2 10 4 0 5 -4 13 -10 16 -5
3 -10 2 -10 -4z"/>
<path d="M2875 8120 c-3 -5 -1 -10 4 -10 6 0 11 5 11 10 0 6 -2 10 -4 10 -3 0
-8 -4 -11 -10z"/>
<path d="M2844 8078 l-19 -23 23 19 c21 18 27 26 19 26 -2 0 -12 -10 -23 -22z"/>
<path d="M6690 7743 c0 -5 6 -32 14 -59 57 -195 109 -757 110 -1176 1 -142 2
-258 3 -258 1 0 13 21 25 48 21 43 23 61 22 192 -1 256 -39 666 -80 890 -33
175 -94 412 -94 363z"/>
<path d="M2362 7025 c0 -16 2 -22 5 -12 2 9 2 23 0 30 -3 6 -5 -1 -5 -18z"/>
<path d="M6720 6491 c0 -6 5 -13 10 -16 14 -9 13 -68 -2 -83 -8 -8 -9 -12 -1
-12 19 0 35 64 24 94 -10 25 -31 36 -31 17z"/>
<path d="M6770 6414 c0 -8 5 -12 10 -9 6 3 10 10 10 16 0 5 -4 9 -10 9 -5 0
-10 -7 -10 -16z"/>
<path d="M2174 6316 c-12 -25 -17 -43 -13 -40 14 8 41 64 37 75 -2 6 -13 -10
-24 -35z"/>
<path d="M6755 6280 c-3 -5 -1 -10 4 -10 6 0 11 5 11 10 0 6 -2 10 -4 10 -3 0
-8 -4 -11 -10z"/>
<path d="M2200 3040 c8 -5 31 -10 50 -10 26 0 31 3 20 10 -8 5 -31 10 -50 10
-26 0 -31 -3 -20 -10z"/>
<path d="M2088 2113 c-10 -2 -18 -8 -18 -13 0 -5 -6 -7 -14 -4 -23 9 -26 -46
-6 -131 13 -59 18 -71 19 -45 1 19 6 53 13 75 6 22 12 46 12 53 1 7 8 17 16
22 12 8 12 10 -3 16 -14 5 -15 9 -6 20 6 8 10 13 8 13 -2 -1 -12 -3 -21 -6z"/>
<path d="M2024 1925 c4 -33 15 -91 25 -130 16 -57 19 -64 20 -35 1 38 -35 209
-45 219 -4 3 -4 -21 0 -54z"/>
<path d="M2072 1860 c0 -14 2 -19 5 -12 2 6 2 18 0 25 -3 6 -5 1 -5 -13z"/>
</g>
</svg>
