<?xml version="1.0" standalone="no"?>
<!DOCTYPE svg PUBLIC "-//W3C//DTD SVG 20010904//EN"
 "http://www.w3.org/TR/2001/REC-SVG-20010904/DTD/svg10.dtd">
<svg version="1.0" xmlns="http://www.w3.org/2000/svg"
 width="488.000000pt" height="366.000000pt" viewBox="0 0 488.000000 366.000000"
 preserveAspectRatio="xMidYMid meet">

<g transform="translate(0.000000,366.000000) scale(0.100000,-0.100000)"
fill="#000000" stroke="none">
<path d="M2984 3411 c-51 -3 -98 -12 -106 -19 -18 -14 -30 -72 -18 -87 4 -5
10 -57 14 -115 3 -58 11 -107 16 -108 6 -2 8 -8 4 -13 -3 -5 24 -8 63 -8 60 2
63 3 28 9 -26 5 6 7 90 7 79 1 118 -2 100 -7 -29 -7 -28 -8 11 -9 27 -1 48 5
62 18 20 17 22 28 22 135 0 66 4 116 9 116 14 0 -8 62 -27 78 -17 13 -97 14
-268 3z"/>
<path d="M4058 3393 c-8 -10 -19 -29 -24 -43 -11 -27 -7 -63 5 -56 4 3 5 -44
3 -105 -3 -81 -1 -109 8 -109 6 0 10 -6 8 -12 -9 -25 64 -38 207 -37 146 1
206 9 172 24 -10 4 -14 11 -9 14 13 8 33 290 22 311 -10 19 -108 30 -276 30
-84 0 -103 -3 -116 -17z m340 -335 c-19 -19 -288 -20 -281 -1 4 10 38 13 150
13 116 0 142 -2 131 -12z"/>
<path d="M540 3380 c-6 -12 -9 -75 -8 -162 l3 -142 25 -7 25 -6 -24 -4 c-33
-5 -40 -29 -8 -29 16 0 26 -7 30 -20 3 -11 1 -20 -4 -20 -5 0 -9 -7 -9 -15 0
-11 13 -15 54 -15 30 0 57 4 61 10 3 5 15 6 28 1 12 -5 58 -10 102 -11 112 -4
112 -4 89 21 -10 12 -19 24 -19 27 0 4 -4 7 -10 8 -5 0 -21 2 -35 4 -19 2 -16
4 15 10 37 7 35 7 -23 9 -50 1 -69 -3 -91 -20 -16 -11 -46 -23 -67 -25 -22 -2
-33 -1 -26 2 24 11 12 26 -18 22 -16 -3 -30 0 -30 5 0 5 25 7 56 4 31 -2 66
-2 77 2 13 3 -14 9 -63 12 -56 4 -22 6 97 5 148 -1 178 1 160 11 -17 9 -18 12
-5 13 14 0 17 16 21 108 3 59 8 118 11 132 5 17 0 36 -13 58 l-21 32 -185 0
c-174 0 -185 -1 -195 -20z m262 -317 c-40 -2 -103 -2 -140 0 -37 2 -4 3 73 3
77 0 107 -2 67 -3z"/>
<path d="M1720 3381 c-12 -23 -13 -61 -2 -61 4 0 5 -30 1 -67 -14 -121 -11
-183 7 -183 14 0 14 -3 4 -15 -10 -12 -9 -15 8 -15 11 0 23 -6 25 -12 4 -10 6
-10 6 0 1 9 37 12 149 10 105 -1 131 -3 92 -8 l-55 -7 65 -1 c71 -2 106 10 80
28 -13 8 -12 10 3 10 15 0 17 12 17 113 0 61 3 128 6 148 5 29 2 41 -15 58
-20 20 -31 21 -201 21 -167 0 -180 -1 -190 -19z"/>
<path d="M3068 3063 c6 -2 18 -2 25 0 6 3 1 5 -13 5 -14 0 -19 -2 -12 -5z"/>
<path d="M2925 3040 c-7 -11 40 -12 130 0 59 7 58 7 -32 9 -52 0 -94 -3 -98
-9z"/>
<path d="M3005 3019 c-76 -5 -74 -5 40 -7 66 -1 127 3 135 8 16 10 -23 10
-175 -1z"/>
<path d="M3208 3013 c7 -3 16 -2 19 1 4 3 -2 6 -13 5 -11 0 -14 -3 -6 -6z"/>
<path d="M1835 2991 c24 -4 39 -11 38 -19 -2 -6 2 -12 9 -12 6 0 9 -3 6 -6 -4
-3 -17 2 -30 10 -22 14 -38 15 -103 7 -5 -1 -3 -6 5 -12 11 -8 -24 -9 -125 -6
-138 4 -211 -2 -189 -15 11 -7 297 -11 722 -9 137 0 212 4 212 11 0 10 -40 13
-197 14 -50 1 -89 -2 -86 -6 2 -5 -6 -8 -19 -8 -19 0 -20 2 -8 10 13 8 13 11
1 19 -7 5 -10 14 -7 20 5 8 -32 11 -131 10 -78 -1 -121 -5 -98 -8z m140 -11
c-3 -5 -15 -10 -26 -10 -11 0 -17 5 -14 10 3 6 15 10 26 10 11 0 17 -4 14 -10z
m-130 -30 c-3 -5 -14 -10 -23 -9 -14 0 -13 2 3 9 27 11 27 11 20 0z"/>
<path d="M2940 2993 c-66 -12 -27 -20 120 -26 170 -6 192 -4 183 19 -4 11 -32
14 -142 13 -75 -1 -147 -4 -161 -6z"/>
<path d="M4100 2970 c20 -13 60 -13 60 0 0 6 -17 10 -37 10 -28 0 -34 -3 -23
-10z"/>
<path d="M4205 2971 c5 -10 204 -6 213 4 3 3 -45 5 -107 5 -68 0 -110 -4 -106
-9z"/>
<path d="M263 2944 c-18 -8 -33 -20 -34 -27 0 -6 0 -226 1 -487 1 -346 5 -479
13 -489 9 -12 9 -13 -1 -7 -9 6 -12 -6 -10 -48 1 -30 7 -54 12 -53 5 1 12 -13
16 -30 4 -18 3 -30 -1 -27 -5 3 -9 12 -9 20 0 8 -4 14 -9 14 -14 0 -6 -89 9
-103 12 -10 12 -9 1 6 -12 15 -12 17 2 12 16 -7 30 -55 16 -55 -5 0 -9 5 -9
10 0 6 -6 10 -14 10 -12 0 -14 -38 -13 -242 1 -134 5 -245 9 -249 4 -3 4 -19
-1 -36 -9 -31 -6 -211 5 -333 l7 -65 34 75 c49 104 83 214 76 242 -3 12 -7 55
-10 93 -3 39 -11 83 -19 99 -17 36 -18 33 5 39 15 3 22 -2 29 -22 6 -14 19
-37 31 -51 11 -14 30 -40 43 -59 36 -54 47 -50 36 11 -4 29 -10 72 -13 96 -2
24 -9 50 -16 58 -6 8 -8 14 -3 14 5 -1 22 -19 37 -41 15 -22 43 -47 62 -55 19
-8 35 -18 35 -22 0 -4 14 -13 30 -19 27 -10 30 -10 26 5 -3 9 -10 35 -15 57
-6 22 -21 56 -33 75 -12 19 -22 38 -23 42 0 4 -10 15 -23 23 -12 9 -22 22 -22
28 -1 18 -30 49 -72 77 -21 14 -36 30 -35 35 2 6 128 10 348 11 189 1 377 4
417 9 52 5 72 4 72 -5 0 -6 -4 -9 -9 -6 -12 8 -34 -20 -27 -33 4 -5 2 -12 -3
-15 -5 -3 -11 3 -14 14 -5 21 -41 28 -52 10 -3 -5 0 -8 7 -5 8 3 14 -4 14 -20
1 -14 -2 -25 -7 -25 -5 0 -9 -5 -9 -11 0 -6 9 -8 23 -4 17 6 19 5 10 -5 -18
-19 -43 -4 -44 27 -2 25 -2 25 -6 5 -9 -48 51 -74 63 -27 3 14 10 22 15 20 4
-3 6 -12 3 -19 -7 -19 10 -28 35 -18 20 7 20 11 18 725 l-2 719 -24 19 c-21
17 -39 19 -175 18 -83 -1 -143 -3 -133 -6 9 -2 17 -9 17 -15 0 -7 -24 -8 -72
-3 -83 8 -174 8 -303 1 -55 -4 -82 -2 -70 3 17 7 15 9 -15 14 -83 14 -196 14
-227 1z m347 -614 c0 -5 -6 -7 -14 -4 -17 6 -28 -55 -14 -73 8 -10 4 -13 -13
-13 -23 0 -24 3 -20 47 3 39 1 45 -13 40 -9 -4 -16 -2 -16 3 0 6 20 10 45 10
25 0 45 -4 45 -10z m45 -40 c0 -38 -4 -50 -15 -50 -11 0 -15 12 -15 50 0 38 4
50 15 50 11 0 15 -12 15 -50z m65 20 c12 -30 30 -41 30 -18 0 6 2 9 5 6 8 -7
-16 -58 -27 -58 -4 0 -8 6 -8 13 0 7 -7 22 -16 33 -14 18 -15 17 -11 -13 2
-19 -1 -33 -7 -33 -7 0 -10 19 -8 50 4 58 23 66 42 20z m75 -20 c0 -38 -4 -50
-15 -50 -11 0 -15 11 -14 43 2 56 2 57 17 57 8 0 12 -17 12 -50z m89 41 c3 -4
-6 -6 -19 -3 -18 3 -25 0 -25 -12 0 -9 7 -16 15 -16 8 0 15 -4 15 -10 0 -5 -5
-9 -12 -7 -6 1 -14 -6 -16 -17 -3 -15 1 -18 22 -14 14 3 26 1 26 -3 0 -5 -17
-9 -37 -9 l-38 0 3 50 c4 47 5 50 32 50 16 0 31 -4 34 -9z m-527 -118 c-4 -3
-2 -12 5 -20 8 -11 7 -12 -6 -7 -11 4 -16 1 -16 -10 0 -9 4 -16 9 -16 15 0 24
-41 12 -53 -8 -8 -11 -6 -11 9 0 11 -5 25 -11 31 -13 13 -2 73 13 73 6 0 8 -3
5 -7z m72 -68 c6 -25 16 -45 21 -45 6 0 10 20 10 45 0 50 15 59 31 18 6 -15
15 -31 21 -34 7 -5 7 -12 0 -25 -9 -16 -12 -15 -26 16 l-16 35 3 -32 c3 -30 1
-33 -24 -33 -18 0 -28 6 -32 20 -6 23 -27 27 -27 5 0 -8 -4 -15 -9 -15 -5 0
-1 20 8 45 9 25 19 45 22 45 4 0 12 -20 18 -45z m133 -5 c-3 -31 -9 -50 -16
-50 -8 0 -11 11 -8 31 3 22 1 30 -7 25 -14 -9 -14 0 -1 25 20 37 35 22 32 -31z
m88 35 c10 -12 10 -18 0 -30 -19 -22 -28 -18 -22 10 3 16 0 25 -8 25 -8 0 -11
-14 -8 -45 2 -35 0 -45 -12 -45 -11 0 -15 12 -15 50 0 47 1 50 26 50 15 0 32
-7 39 -15z m116 -10 c15 -23 15 -27 0 -50 -19 -29 -42 -35 -25 -7 17 27 3 72
-21 72 -24 0 -36 -40 -20 -69 12 -23 1 -28 -18 -9 -15 15 -15 61 0 76 21 21
66 14 84 -13z m76 -7 l29 -33 -4 33 c-2 18 1 32 7 32 7 0 10 -19 8 -50 -2 -27
-7 -50 -10 -50 -4 1 -19 17 -34 37 l-28 36 0 -36 c0 -21 -3 -37 -8 -37 -4 0
-6 19 -4 41 3 28 0 44 -9 50 -11 7 -9 9 5 9 11 0 32 -15 48 -32z m38 -130 c0
-10 -327 -8 -405 2 -39 5 21 7 172 6 128 0 233 -4 233 -8z m-371 -80 c-1 -17
-2 -19 -6 -5 -2 9 -8 17 -13 17 -5 0 -11 -8 -13 -17 -4 -14 -5 -12 -6 5 -1 16
5 22 19 22 14 0 20 -6 19 -22z m49 4 c2 -7 -5 -12 -15 -12 -15 0 -16 -2 -3
-10 9 -6 10 -10 3 -10 -16 0 -26 18 -19 36 7 17 27 15 34 -4z m59 -24 c-3 -7
-5 -2 -5 12 0 14 2 19 5 13 2 -7 2 -19 0 -25z m263 20 c0 -4 -9 -8 -20 -8 -11
0 -20 4 -20 8 0 4 9 8 20 8 11 0 20 -4 20 -8z m-150 -13 c11 -13 10 -14 -4 -9
-9 3 -16 10 -16 15 0 13 6 11 20 -6z m100 -6 c0 -5 -4 -9 -8 -9 -5 0 -9 7 -9
15 0 8 4 12 9 9 4 -3 8 -9 8 -15z m-160 1 c0 -5 -10 -10 -22 -9 -22 0 -22 1
-3 9 11 5 21 9 23 9 1 1 2 -3 2 -9z m117 -6 c-3 -3 -12 -4 -19 -1 -8 3 -5 6 6
6 11 1 17 -2 13 -5z m80 0 c-3 -3 -12 -4 -19 -1 -8 3 -5 6 6 6 11 1 17 -2 13
-5z m-536 -37 c-1 -4 -1 -14 -1 -22 0 -10 -6 -12 -17 -8 -16 6 -17 5 -3 -13
14 -18 14 -18 -2 -5 -11 8 -18 9 -18 3 0 -6 -7 -9 -15 -6 -8 4 -15 11 -15 16
0 6 6 8 13 5 18 -7 51 19 42 34 -5 7 -3 10 4 8 7 -3 12 -8 12 -12z m-24 -139
c-3 -8 -6 -5 -6 6 -1 11 2 17 5 13 3 -3 4 -12 1 -19z m840 -120 c-2 -13 -4 -5
-4 17 -1 22 1 32 4 23 2 -10 2 -28 0 -40z m-817 -53 c0 -8 -6 -15 -14 -15 -8
0 -16 7 -20 15 -4 10 1 15 14 15 11 0 20 -7 20 -15z m17 -7 c-3 -8 -6 -5 -6 6
-1 11 2 17 5 13 3 -3 4 -12 1 -19z m-85 -70 c-7 -7 -12 -8 -12 -2 0 14 12 26
19 19 2 -3 -1 -11 -7 -17z m104 -85 c-3 -4 -20 3 -36 16 -27 20 -30 20 -30 4
0 -10 -4 -24 -9 -32 -14 -23 -39 3 -33 34 5 27 38 35 59 14 8 -8 15 -6 25 10
13 21 13 21 22 -9 5 -17 6 -33 2 -37z m-43 -50 c-7 -3 -13 -13 -13 -24 0 -23
-15 -25 -24 -3 -3 9 -6 18 -6 20 0 8 45 22 50 16 3 -2 -1 -7 -7 -9z"/>
<path d="M2620 2930 c0 -6 19 -10 42 -10 49 0 46 9 -6 15 -20 3 -36 1 -36 -5z"/>
<path d="M3495 2930 c-19 -8 -19 -9 3 -9 12 -1 22 4 22 9 0 6 -1 10 -2 9 -2 0
-12 -4 -23 -9z"/>
<path d="M1392 2885 c0 -16 2 -22 5 -12 2 9 2 23 0 30 -3 6 -5 -1 -5 -18z"/>
<path d="M2120 2765 c0 -11 -11 -15 -36 -15 -19 0 -33 -4 -30 -9 3 -5 24 -9
47 -9 31 -1 39 2 35 14 -4 10 2 14 19 14 14 0 25 5 25 10 0 6 -13 10 -30 10
-20 0 -30 -5 -30 -15z"/>
<path d="M2193 2761 c-9 -15 -9 -21 -1 -23 13 -5 48 21 48 34 0 16 -36 7 -47
-11z"/>
<path d="M2355 2770 c-4 -6 7 -10 24 -10 17 0 31 5 31 10 0 6 -11 10 -24 10
-14 0 -28 -4 -31 -10z"/>
<path d="M2240 2740 c0 -5 5 -10 10 -10 6 0 10 5 10 10 0 6 -4 10 -10 10 -5 0
-10 -4 -10 -10z"/>
<path d="M2380 2739 c0 -5 5 -7 10 -4 6 3 10 8 10 11 0 2 -4 4 -10 4 -5 0 -10
-5 -10 -11z"/>
<path d="M2433 2675 c0 -22 2 -30 4 -17 2 12 2 30 0 40 -3 9 -5 -1 -4 -23z"/>
<path d="M4685 2560 c-28 -7 -28 -8 12 -9 23 0 45 4 48 9 7 11 -16 11 -60 0z"/>
<path d="M4563 2553 c9 -2 25 -2 35 0 9 3 1 5 -18 5 -19 0 -27 -2 -17 -5z"/>
<path d="M2433 2480 c0 -41 2 -58 4 -37 2 20 2 54 0 75 -2 20 -4 3 -4 -38z"/>
<path d="M1386 2358 c-10 -180 -7 -556 4 -563 6 -4 10 124 10 339 0 190 -2
346 -4 346 -1 0 -6 -55 -10 -122z"/>
<path d="M2432 2380 c0 -14 2 -19 5 -12 2 6 2 18 0 25 -3 6 -5 1 -5 -13z"/>
<path d="M2433 2270 c0 -36 2 -50 4 -32 2 17 2 47 0 65 -2 17 -4 3 -4 -33z"/>
<path d="M2434 1910 c0 -162 2 -229 3 -147 2 81 2 213 0 295 -1 81 -3 14 -3
-148z"/>
<path d="M2758 1854 c-3 -5 -9 -23 -12 -40 -4 -17 -23 -55 -41 -85 -19 -29
-35 -60 -35 -69 0 -12 2 -12 9 -2 6 10 14 4 30 -23 20 -35 32 -98 12 -66 -8
12 -41 25 -41 17 0 -10 39 -78 40 -68 0 6 6 12 14 12 20 0 39 -27 32 -46 -5
-14 -9 -14 -22 -3 -15 13 -16 8 -12 -51 6 -77 -5 -117 -35 -126 -25 -8 -33 -6
-29 7 1 5 -4 9 -12 9 -19 0 -56 47 -56 71 0 10 -11 31 -25 46 l-25 28 2 -55
c2 -40 7 -55 18 -56 8 -1 21 -2 28 -3 6 0 12 -8 12 -16 0 -8 6 -15 13 -16 6 0
3 -4 -7 -8 -16 -6 -13 -10 22 -29 35 -18 42 -19 52 -6 7 8 19 14 26 14 8 0 14
5 14 12 0 6 7 19 15 28 12 13 13 23 5 44 -12 32 -13 57 -2 54 4 0 16 3 26 7
11 5 31 4 47 -2 23 -9 29 -8 32 6 4 15 5 15 6 -1 1 -11 7 -15 21 -11 12 3 28
-1 38 -10 78 -68 173 -47 229 52 14 25 37 56 51 67 l25 22 -47 21 c-101 44
-153 35 -221 -40 -19 -22 -35 -37 -35 -36 0 2 5 18 11 35 8 23 8 46 0 84 -17
76 -28 85 -58 46 -13 -18 -27 -44 -30 -58 -9 -37 -44 -112 -49 -107 -3 2 1 16
7 30 9 20 9 33 0 55 -7 16 -11 64 -11 108 2 74 -20 179 -32 158z m42 -294 c0
-5 -4 -10 -10 -10 -5 0 -10 5 -10 10 0 6 5 10 10 10 6 0 10 -4 10 -10z"/>
<path d="M1506 1789 c-28 -50 -28 -51 -12 -99 19 -58 20 -79 4 -117 -6 -15
-10 -32 -9 -37 1 -4 -6 -20 -15 -34 l-17 -25 -13 24 c-7 13 -14 38 -14 54 -1
27 -2 28 -12 11 -6 -11 -8 -41 -5 -75 5 -46 3 -61 -13 -81 -23 -29 -26 -52 -6
-44 23 9 27 -35 5 -57 -17 -17 -19 -34 -19 -170 0 -133 2 -153 17 -165 13 -9
22 -9 30 -2 7 6 13 7 13 4 0 -4 7 0 16 8 8 9 26 16 40 16 24 0 32 14 15 24 -5
3 -11 18 -14 33 -3 16 -9 39 -13 53 -7 24 -7 24 13 8 28 -26 51 -24 28 2 -16
18 -16 20 -2 20 29 0 19 18 -14 25 -57 13 -46 59 17 71 21 4 34 12 34 21 0 10
7 14 20 10 11 -3 20 -1 20 4 0 5 7 9 16 9 23 0 105 50 98 61 -3 5 -11 9 -19 9
-8 0 -21 13 -31 28 -9 16 -32 34 -50 41 -19 7 -34 19 -34 27 0 8 -10 14 -25
14 -15 0 -25 6 -25 14 0 16 21 26 56 26 17 0 24 6 24 20 0 10 16 32 35 47 19
15 35 35 35 44 0 10 7 16 17 15 10 0 25 14 37 35 l20 37 -25 29 c-14 17 -32
45 -39 63 -12 29 -15 31 -21 14 -18 -46 -2 -153 21 -139 19 12 9 -10 -15 -34
-14 -13 -25 -27 -25 -32 0 -5 -7 -9 -15 -9 -8 0 -15 -4 -15 -8 0 -17 -36 -50
-78 -71 -48 -24 -64 -22 -38 5 10 9 15 23 12 30 -3 8 16 38 43 68 56 62 68 98
48 145 l-14 33 -7 -33 -8 -34 -18 53 c-9 29 -20 55 -22 57 -3 3 -17 -18 -32
-46z m-4 -331 c-7 -7 -12 -8 -12 -2 0 6 3 14 7 17 3 4 9 5 12 2 2 -3 -1 -11
-7 -17z m-40 -40 c-12 -12 -25 -18 -29 -14 -4 4 0 12 10 17 9 6 17 17 17 26 0
13 3 14 12 5 10 -10 7 -17 -10 -34z m-28 -63 c-4 -8 -8 -15 -10 -15 -2 0 -4 7
-4 15 0 8 4 15 10 15 5 0 7 -7 4 -15z m42 -51 l21 -45 -28 -20 c-28 -19 -29
-20 -35 -2 -3 10 -9 24 -13 32 -6 13 18 81 29 80 3 0 15 -20 26 -45z"/>
<path d="M1870 1698 c-18 -15 -34 -19 -62 -15 -34 5 -39 2 -57 -29 l-20 -34
32 0 c43 1 113 33 127 60 17 32 8 41 -20 18z"/>
<path d="M3872 1675 c3 -24 2 -42 -3 -39 -5 3 -16 1 -25 -4 -13 -7 -10 -10 15
-15 31 -6 36 -17 33 -62 -2 -15 0 -17 7 -6 6 9 11 10 15 3 4 -6 13 -9 21 -6 9
4 17 -5 24 -28 l11 -33 -6 35 c-11 62 -22 114 -30 139 -5 18 -4 22 5 16 10 -6
11 -3 2 13 -11 20 -32 32 -58 32 -13 0 -15 -9 -11 -45z"/>
<path d="M2550 1599 c0 -35 5 -82 10 -103 10 -43 33 -67 38 -38 1 9 7 36 13
58 9 35 8 47 -9 81 -11 22 -28 45 -36 52 -14 12 -16 7 -16 -50z"/>
<path d="M1388 1610 c-4 -14 -8 -41 -8 -60 1 -29 2 -32 11 -17 6 9 9 36 7 60
-3 36 -4 38 -10 17z"/>
<path d="M1680 1583 c-8 -15 -16 -32 -19 -37 -2 -5 8 -6 23 -2 16 4 26 2 26
-5 0 -7 12 -9 36 -4 53 9 81 24 92 50 10 22 10 22 -26 9 -21 -7 -47 -10 -58
-8 -14 4 -23 0 -27 -10 -4 -9 -16 -16 -28 -16 -18 0 -19 3 -9 15 6 8 10 19 8
26 -2 6 -10 -2 -18 -18z"/>
<path d="M2640 1560 c0 -5 5 -10 11 -10 5 0 7 5 4 10 -3 6 -8 10 -11 10 -2 0
-4 -4 -4 -10z"/>
<path d="M2357 1524 c-8 -8 3 -34 14 -34 11 0 12 27 0 34 -4 3 -11 3 -14 0z"/>
<path d="M1628 1513 c6 -2 18 -2 25 0 6 3 1 5 -13 5 -14 0 -19 -2 -12 -5z"/>
<path d="M3572 1500 c0 -14 2 -19 5 -12 2 6 2 18 0 25 -3 6 -5 1 -5 -13z"/>
<path d="M2405 1481 c-3 -5 -2 -12 3 -15 5 -3 9 1 9 9 0 17 -3 19 -12 6z"/>
<path d="M1233 1442 c-15 -2 -23 -12 -26 -30 l-4 -27 -2 27 c-1 21 -5 25 -21
21 -19 -5 -20 -12 -16 -108 4 -86 2 -104 -10 -109 -18 -7 -15 -52 3 -49 7 2
11 -21 12 -69 0 -46 5 -74 13 -79 10 -7 14 10 19 69 3 42 6 75 8 72 1 -3 4
-48 6 -100 2 -52 4 -97 5 -100 1 -3 1 -22 0 -42 -1 -22 3 -38 9 -38 6 0 11
-12 11 -26 0 -14 -4 -23 -9 -19 -6 3 -11 -38 -13 -99 l-3 -105 25 6 c14 3 27
7 29 9 2 2 2 52 1 111 -1 59 -3 237 -5 396 -1 158 -4 289 -6 290 -2 2 -14 1
-26 -1z m-9 -77 c3 -8 2 -15 -3 -15 -4 0 -9 -39 -9 -86 -1 -48 -4 -89 -7 -92
-5 -5 -9 111 -5 156 1 12 -4 22 -10 22 -7 0 -6 5 2 15 17 18 24 19 32 0z m-54
-169 c0 -8 -4 -18 -10 -21 -5 -3 -10 3 -10 14 0 12 5 21 10 21 6 0 10 -6 10
-14z m73 -281 c-3 -9 -8 -14 -10 -11 -3 3 -2 9 2 15 9 16 15 13 8 -4z m4 -200
c0 -8 -4 -12 -9 -9 -5 3 -6 10 -3 15 9 13 12 11 12 -6z"/>
<path d="M4240 1440 c-12 -8 -10 -9 7 -7 12 2 26 6 29 10 11 11 -19 8 -36 -3z"/>
<path d="M4065 1430 c3 -5 16 -15 28 -21 l22 -11 -22 21 c-23 22 -39 28 -28
11z"/>
<path d="M1142 1400 c0 -19 2 -27 5 -17 2 9 2 25 0 35 -3 9 -5 1 -5 -18z"/>
<path d="M2391 1414 c0 -11 3 -14 6 -6 3 7 2 16 -1 19 -3 4 -6 -2 -5 -13z"/>
<path d="M3780 1415 c0 -10 7 -15 18 -13 21 4 19 22 -2 26 -10 2 -16 -3 -16
-13z"/>
<path d="M4310 1405 c-16 -30 -12 -36 18 -28 25 6 29 25 9 42 -11 8 -17 5 -27
-14z"/>
<path d="M3796 1371 c-4 -7 -5 -15 -2 -18 9 -9 19 4 14 18 -4 11 -6 11 -12 0z"/>
<path d="M1142 1335 c0 -16 2 -22 5 -12 2 9 2 23 0 30 -3 6 -5 -1 -5 -18z"/>
<path d="M3902 1328 c3 -7 15 -15 28 -16 21 -3 22 -2 11 12 -16 19 -44 21 -39
4z"/>
<path d="M2952 1323 c-6 -2 -10 -9 -7 -13 7 -11 35 -2 35 11 0 10 -8 10 -28 2z"/>
<path d="M2815 1312 c-12 -8 -16 -42 -5 -42 7 0 22 41 17 47 -2 1 -7 -1 -12
-5z"/>
<path d="M1142 1255 c0 -16 2 -22 5 -12 2 9 2 23 0 30 -3 6 -5 -1 -5 -18z"/>
<path d="M3820 1260 c-9 -6 -10 -10 -3 -10 6 0 15 5 18 10 8 12 4 12 -15 0z"/>
<path d="M2705 1241 c-3 -10 -3 -27 1 -37 5 -15 4 -16 -5 -4 -8 12 -14 6 -31
-30 -15 -33 -19 -38 -17 -18 4 26 4 26 -19 10 -13 -9 -24 -25 -24 -34 0 -9 -5
-20 -10 -23 -6 -4 -9 -36 -9 -73 l2 -67 14 34 c8 18 13 43 11 54 -4 29 38 75
54 59 8 -8 15 -8 24 -1 8 7 14 2 19 -18 3 -16 18 -43 32 -62 l26 -34 24 29
c31 39 33 119 3 127 -11 3 -25 18 -31 34 -24 58 -33 73 -45 73 -7 0 -15 -8
-19 -19z"/>
<path d="M2596 1243 c-11 -11 -7 -20 9 -20 8 0 15 4 15 8 0 11 -16 20 -24 12z"/>
<path d="M734 1225 c8 -10 13 -10 19 -1 5 8 10 7 17 -4 8 -13 10 -13 10 2 0
12 -8 16 -29 16 -23 -1 -26 -4 -17 -13z"/>
<path d="M802 1231 c4 -15 38 -25 38 -12 0 5 12 6 28 3 15 -3 23 -1 19 4 -12
13 -67 12 -67 0 0 -6 -5 -4 -11 4 -8 12 -10 12 -7 1z"/>
<path d="M3795 1231 c-3 -5 -1 -12 5 -16 5 -3 10 1 10 9 0 18 -6 21 -15 7z"/>
<path d="M2666 1220 c-15 -5 -16 -9 -7 -14 7 -5 18 -3 24 3 14 14 6 20 -17 11z"/>
<path d="M760 1163 c0 -13 5 -23 10 -23 13 0 13 11 0 30 -8 12 -10 11 -10 -7z"/>
<path d="M595 1160 c-8 -12 2 -30 17 -30 7 0 7 5 -1 14 -9 11 -9 15 1 19 9 4
9 6 1 6 -6 1 -15 -3 -18 -9z"/>
<path d="M656 1156 c6 -15 4 -17 -6 -11 -9 6 -11 4 -5 -4 5 -9 10 -10 18 -2 8
8 7 14 -2 24 -10 10 -11 8 -5 -7z"/>
<path d="M715 1159 c-4 -6 -2 -16 5 -22 10 -9 11 -9 6 0 -3 6 -1 13 6 15 9 3
9 6 1 11 -7 4 -15 2 -18 -4z"/>
<path d="M794 1158 c-9 -15 12 -32 28 -22 15 10 19 11 50 13 12 0 18 4 14 9
-11 11 -85 11 -92 0z m26 -8 c0 -5 -4 -10 -10 -10 -5 0 -10 5 -10 10 0 6 5 10
10 10 6 0 10 -4 10 -10z"/>
<path d="M685 1150 c-3 -5 -1 -10 4 -10 6 0 11 5 11 10 0 6 -2 10 -4 10 -3 0
-8 -4 -11 -10z"/>
<path d="M1812 1140 c0 -14 2 -19 5 -12 2 6 2 18 0 25 -3 6 -5 1 -5 -13z"/>
<path d="M1136 1044 c2 -53 6 -99 9 -102 3 -4 5 25 4 63 -1 39 0 75 1 80 5 21
0 55 -8 55 -5 0 -7 -43 -6 -96z"/>
<path d="M468 1113 c12 -2 32 -2 45 0 12 2 2 4 -23 4 -25 0 -35 -2 -22 -4z"/>
<path d="M693 1103 c20 -2 54 -2 75 0 20 2 3 4 -38 4 -41 0 -58 -2 -37 -4z"/>
<path d="M462 1041 c-1 -16 2 -32 8 -36 5 -3 10 -11 10 -16 0 -6 -4 -7 -10 -4
-5 3 -10 1 -10 -4 0 -6 9 -11 20 -11 25 0 27 35 3 49 -17 9 -17 10 -1 16 9 4
14 13 11 21 -9 25 -29 15 -31 -15z"/>
<path d="M1675 1039 c-4 -13 -1 -27 10 -39 15 -17 15 -19 -2 -23 -14 -4 -14
-5 5 -6 26 -1 29 15 5 41 -15 16 -15 18 0 18 10 0 14 5 11 15 -9 21 -22 19
-29 -6z"/>
<path d="M520 1024 c-6 -14 -10 -32 -10 -41 0 -13 3 -13 16 -2 13 10 17 10 24
-1 15 -25 20 -5 8 33 -13 43 -25 47 -38 11z"/>
<path d="M581 1003 c0 -33 3 -42 8 -29 5 14 10 16 15 8 11 -18 26 -15 27 6 0
12 3 10 12 -8 l11 -25 4 33 c2 19 1 41 -3 50 -5 15 -9 14 -24 -7 -18 -23 -18
-23 -24 -2 -10 39 -27 22 -26 -26z"/>
<path d="M677 1043 c-11 -10 -8 -71 3 -78 6 -3 10 0 10 7 0 7 8 18 19 25 16
10 20 8 30 -13 11 -26 39 -32 59 -12 34 34 -11 97 -46 65 -15 -13 -20 -14 -36
-1 -22 16 -30 17 -39 7z m33 -23 c0 -5 -4 -10 -10 -10 -5 0 -10 5 -10 10 0 6
5 10 10 10 6 0 10 -4 10 -10z m77 -6 c8 -21 -13 -42 -28 -27 -13 13 -5 43 11
43 6 0 13 -7 17 -16z"/>
<path d="M822 1005 c0 -27 3 -40 5 -27 2 12 7 22 10 22 2 0 13 -10 24 -22 l18
-23 1 48 c0 30 -4 46 -10 42 -5 -3 -10 -13 -10 -22 0 -11 -5 -9 -20 8 l-19 24
1 -50z"/>
<path d="M2931 1028 c-11 -18 -11 -23 3 -33 21 -16 20 -25 -1 -25 -13 0 -14
-3 -5 -12 10 -9 16 -8 30 5 16 17 16 19 -7 36 -20 16 -22 19 -8 22 10 3 14 9
9 16 -5 9 -12 6 -21 -9z"/>
<path d="M1731 1009 c-14 -41 -14 -44 4 -29 13 11 18 10 30 -6 8 -10 15 -14
15 -8 0 19 -22 74 -30 74 -4 0 -13 -14 -19 -31z"/>
<path d="M1796 1024 c-3 -9 -6 -28 -6 -42 1 -25 2 -26 14 -9 11 14 15 15 19 5
4 -9 9 -7 18 7 13 19 13 19 20 -5 6 -20 7 -17 8 18 1 46 -10 54 -27 20 l-11
-23 -7 23 c-7 26 -19 29 -28 6z"/>
<path d="M1891 998 c1 -24 3 -36 6 -27 2 10 13 19 24 22 28 7 21 41 -9 45 -20
3 -22 -1 -21 -40z m29 17 c0 -8 -4 -15 -10 -15 -5 0 -10 7 -10 15 0 8 5 15 10
15 6 0 10 -7 10 -15z"/>
<path d="M1962 1031 c-8 -4 -12 -21 -10 -37 2 -23 8 -29 27 -29 31 0 50 28 35
53 -13 20 -34 25 -52 13z m36 -37 c-4 -23 -26 -30 -34 -10 -8 20 15 51 29 37
5 -5 7 -17 5 -27z"/>
<path d="M2031 998 c1 -40 2 -41 8 -13 l8 30 13 -27 c19 -40 30 -34 29 15 -1
34 -2 37 -8 17 l-7 -25 -12 23 c-19 34 -32 26 -31 -20z"/>
<path d="M2992 1005 c-7 -14 -12 -34 -12 -43 0 -15 2 -15 10 -2 8 13 13 13 31
2 19 -12 20 -11 15 7 -3 12 -9 30 -12 41 -7 27 -18 25 -32 -5z"/>
<path d="M3056 999 c-9 -48 -7 -56 9 -29 14 25 14 25 15 3 0 -13 4 -23 9 -23
5 0 13 10 17 23 l8 22 7 -25 c6 -20 7 -17 8 18 1 48 -13 55 -27 15 l-10 -28
-7 28 c-10 36 -21 34 -29 -4z"/>
<path d="M3151 988 c1 -24 3 -35 6 -25 2 9 11 17 19 17 20 0 30 30 13 41 -29
18 -39 10 -38 -33z m30 9 c-13 -13 -26 -3 -16 12 3 6 11 8 17 5 6 -4 6 -10 -1
-17z"/>
<path d="M3221 1016 c-21 -25 -10 -61 18 -61 31 0 50 28 35 53 -15 23 -38 26
-53 8z m37 -32 c-4 -23 -26 -30 -34 -10 -8 20 15 51 29 37 5 -5 7 -17 5 -27z"/>
<path d="M3292 990 c0 -41 1 -42 8 -15 4 17 8 25 9 19 0 -5 8 -19 16 -30 13
-18 14 -16 13 26 0 25 -3 35 -5 22 l-4 -22 -19 22 -19 23 1 -45z"/>
<path d="M4143 991 c-10 -16 -8 -22 9 -37 l20 -19 -24 -6 c-22 -7 -22 -7 5 -8
31 -1 35 14 10 41 -15 16 -15 18 0 18 10 0 14 5 11 15 -8 20 -17 19 -31 -4z"/>
<path d="M1171 984 c0 -11 3 -14 6 -6 3 7 2 16 -1 19 -3 4 -6 -2 -5 -13z"/>
<path d="M1193 945 c0 -33 2 -45 4 -27 2 18 2 45 0 60 -2 15 -4 0 -4 -33z"/>
<path d="M4203 955 c-6 -20 -7 -35 -2 -35 5 0 9 5 9 10 0 6 7 10 15 10 8 0 15
-5 15 -12 0 -6 2 -9 5 -6 10 9 -7 68 -20 68 -6 0 -16 -16 -22 -35z m27 5 c0
-5 -5 -10 -11 -10 -5 0 -7 5 -4 10 3 6 8 10 11 10 2 0 4 -4 4 -10z"/>
<path d="M4271 953 c1 -37 2 -37 8 -8 l7 30 7 -33 c7 -32 27 -37 27 -6 0 8 -4
13 -9 9 -5 -3 -11 5 -13 17 -6 40 -28 33 -27 -9z"/>
<path d="M4326 981 c-6 -10 10 -61 19 -61 3 0 5 16 5 35 0 33 -12 46 -24 26z"/>
<path d="M4367 983 c-8 -7 -10 -63 -2 -63 13 0 45 37 45 52 0 18 -29 25 -43
11z m33 -12 c0 -6 -4 -13 -10 -16 -5 -3 -10 1 -10 9 0 9 5 16 10 16 6 0 10 -4
10 -9z"/>
<path d="M4430 975 c-16 -19 1 -65 24 -65 22 0 39 28 32 55 -7 28 -36 34 -56
10z m46 -10 c7 -18 -14 -47 -27 -39 -5 3 -9 16 -9 30 0 27 27 34 36 9z"/>
<path d="M4501 953 c1 -24 3 -30 6 -15 2 12 9 20 14 17 11 -7 11 -3 3 19 -11
29 -24 17 -23 -21z"/>
<path d="M4537 963 c-3 -16 -1 -32 4 -37 5 -6 9 4 9 27 0 44 -6 48 -13 10z"/>
<path d="M1171 914 c0 -11 3 -14 6 -6 3 7 2 16 -1 19 -3 4 -6 -2 -5 -13z"/>
<path d="M460 876 c0 -19 5 -38 10 -41 6 -3 10 2 10 12 1 17 1 17 11 1 15 -27
30 -21 17 7 -8 19 -8 28 2 40 15 18 0 21 -18 3 -9 -9 -12 -9 -12 0 0 7 -4 12
-10 12 -5 0 -10 -15 -10 -34z"/>
<path d="M532 898 c-32 -32 2 -87 40 -67 31 17 17 79 -17 79 -6 0 -16 -5 -23
-12z m38 -33 c0 -16 -6 -25 -15 -25 -9 0 -15 9 -15 25 0 16 6 25 15 25 9 0 15
-9 15 -25z"/>
<path d="M607 903 c-4 -3 -7 -24 -7 -46 l0 -39 25 23 c28 27 32 54 9 63 -19 7
-19 7 -27 -1z m28 -23 c3 -5 1 -10 -4 -10 -6 0 -11 5 -11 10 0 6 2 10 4 10 3
0 8 -4 11 -10z"/>
<path d="M660 861 c0 -23 5 -41 10 -41 6 0 10 7 10 15 0 8 5 15 10 15 6 0 10
-7 10 -15 0 -8 4 -15 9 -15 6 0 9 17 8 38 -3 32 -6 37 -30 40 -25 3 -27 1 -27
-37z m40 19 c0 -5 -4 -10 -10 -10 -5 0 -10 5 -10 10 0 6 5 10 10 10 6 0 10 -4
10 -10z"/>
<path d="M730 859 c0 -48 20 -44 21 4 l1 32 11 -32 c18 -48 25 -50 42 -10 17
42 18 47 6 47 -5 0 -12 -10 -15 -22 l-7 -23 -9 23 c-5 12 -18 22 -30 22 -17 0
-20 -6 -20 -41z"/>
<path d="M837 893 c-3 -5 -8 -24 -11 -43 -7 -33 -6 -34 9 -16 15 20 15 20 31
0 15 -18 15 -17 10 15 -3 18 -6 37 -6 42 0 11 -27 12 -33 2z"/>
<path d="M1780 860 c0 -37 2 -41 23 -38 18 2 22 9 22 38 0 29 -4 36 -22 38
-21 3 -23 -1 -23 -38z m30 20 c0 -5 -5 -10 -11 -10 -5 0 -7 5 -4 10 3 6 8 10
11 10 2 0 4 -4 4 -10z m4 -41 c-3 -5 -10 -7 -15 -3 -5 3 -7 10 -3 15 3 5 10 7
15 3 5 -3 7 -10 3 -15z"/>
<path d="M1847 868 c-3 -18 -1 -37 4 -42 6 -6 9 -3 9 7 0 9 5 17 10 17 6 0 10
-7 10 -15 0 -8 4 -15 8 -15 5 0 8 17 8 38 -1 29 -6 38 -23 40 -16 2 -22 -3
-26 -30z m33 7 c0 -8 -4 -15 -10 -15 -5 0 -10 7 -10 15 0 8 5 15 10 15 6 0 10
-7 10 -15z"/>
<path d="M1910 860 l0 -40 58 1 c31 1 49 3 40 6 -22 5 -22 12 -3 37 21 28 19
36 -12 35 -17 -1 -21 -3 -10 -6 21 -6 21 -8 1 -38 -17 -25 -48 -33 -59 -15 -3
6 1 10 9 10 22 0 20 20 -1 20 -16 1 -16 2 1 15 19 15 19 15 -2 15 -19 0 -22
-6 -22 -40z"/>
<path d="M2046 883 c-2 -10 -8 -29 -12 -43 -6 -22 -5 -23 10 -11 13 11 19 11
32 0 15 -12 16 -10 9 21 -4 19 -9 38 -12 43 -8 13 -22 8 -27 -10z"/>
<path d="M2980 856 c0 -19 -6 -37 -12 -39 -8 -4 -7 -6 3 -6 9 -1 20 6 23 15 9
25 7 64 -4 64 -5 0 -10 -15 -10 -34z"/>
<path d="M3021 859 c-13 -39 -14 -59 -1 -39 8 13 13 13 31 2 19 -12 20 -11 15
7 -3 12 -9 30 -12 41 -8 29 -20 25 -33 -11z m29 -9 c0 -5 -4 -10 -10 -10 -5 0
-10 5 -10 10 0 6 5 10 10 10 6 0 10 -4 10 -10z"/>
<path d="M3086 858 c-7 -36 3 -52 30 -46 13 2 19 12 19 28 0 54 -39 69 -49 18z
m29 13 c3 -5 1 -12 -5 -16 -5 -3 -10 1 -10 9 0 18 6 21 15 7z m5 -41 c0 -5 -4
-10 -10 -10 -5 0 -10 5 -10 10 0 6 5 10 10 10 6 0 10 -4 10 -10z"/>
<path d="M3152 854 c3 -34 6 -39 28 -39 22 0 25 4 27 40 1 40 1 40 -5 6 -9
-45 -32 -54 -32 -12 0 16 -5 33 -11 36 -7 5 -9 -6 -7 -31z"/>
<path d="M3232 850 c0 -33 2 -40 8 -25 7 18 8 19 15 3 4 -10 11 -18 16 -18 6
0 5 9 -1 20 -8 14 -7 26 1 43 12 22 12 22 -9 4 -20 -18 -20 -18 -25 0 -3 10
-5 -2 -5 -27z"/>
<path d="M3307 883 c-2 -4 -7 -24 -11 -43 -3 -19 -3 -29 0 -22 3 6 12 12 19
12 7 0 16 -6 19 -12 4 -7 4 3 1 22 -6 36 -19 58 -28 43z m10 -35 c-3 -8 -6 -5
-6 6 -1 11 2 17 5 13 3 -3 4 -12 1 -19z"/>
<path d="M1192 855 c0 -16 2 -22 5 -12 2 9 2 23 0 30 -3 6 -5 -1 -5 -18z"/>
<path d="M4092 820 c0 -25 2 -37 5 -27 6 22 19 22 27 1 4 -9 9 -14 13 -11 3 4
0 13 -7 22 -10 12 -10 18 0 30 8 9 9 15 2 15 -6 0 -14 -5 -18 -12 -5 -8 -10
-6 -15 8 -5 13 -7 4 -7 -26z"/>
<path d="M4163 815 c-6 -20 -7 -35 -2 -35 5 0 9 5 9 10 0 6 7 10 15 10 8 0 15
-5 15 -12 0 -6 3 -9 6 -5 10 10 -7 67 -20 67 -7 0 -17 -16 -23 -35z"/>
<path d="M4231 813 c1 -33 2 -35 8 -13 l7 25 8 -22 c8 -26 26 -31 26 -8 0 8
-4 15 -9 15 -5 0 -11 9 -14 20 -9 34 -27 22 -26 -17z"/>
<path d="M4283 834 c-3 -9 -1 -19 4 -23 6 -3 13 -15 16 -26 2 -11 5 -1 6 23 1
42 -14 57 -26 26z"/>
<path d="M4325 819 c-4 -18 -3 -35 4 -42 8 -8 11 0 11 31 0 50 -6 54 -15 11z"/>
<path d="M4362 813 c-2 -39 0 -43 21 -42 16 1 17 3 5 6 -11 3 -18 17 -21 41
l-4 37 -1 -42z"/>
<path d="M4413 810 c0 -25 2 -35 4 -22 2 12 2 32 0 45 -2 12 -4 2 -4 -23z"/>
<path d="M4447 843 c-13 -13 -7 -61 9 -67 24 -9 31 -7 12 5 -25 14 -22 48 5
59 21 8 21 9 1 9 -11 1 -24 -2 -27 -6z"/>
<path d="M4517 843 c-2 -5 -7 -21 -11 -37 -7 -27 -6 -28 9 -16 14 12 18 12 27
-1 7 -10 8 -8 4 11 -3 14 -6 31 -6 38 0 13 -16 17 -23 5z"/>
<path d="M2556 794 c-10 -25 -7 -102 4 -109 6 -4 10 18 10 59 0 67 -3 78 -14
50z"/>
<path d="M344 789 c-3 -6 3 -21 15 -33 21 -20 22 -20 16 -1 -6 17 -5 18 7 5
17 -19 48 -22 48 -4 0 8 -11 15 -25 15 -44 2 -50 5 -47 17 3 15 -5 16 -14 1z"/>
<path d="M657 766 c-10 -26 -8 -43 3 -26 8 12 10 12 10 1 0 -8 2 -12 5 -9 3 3
2 15 -3 28 -8 20 -9 21 -15 6z"/>
<path d="M1540 776 c0 -2 8 -10 18 -17 15 -13 16 -12 3 4 -13 16 -21 21 -21
13z"/>
<path d="M1868 757 c-3 -14 0 -24 7 -24 7 0 10 10 7 24 -2 13 -6 23 -7 23 -1
0 -5 -10 -7 -23z"/>
<path d="M440 745 c0 -13 4 -26 9 -29 4 -3 6 7 3 22 -5 25 -4 26 12 9 10 -9
22 -14 27 -11 17 10 4 27 -24 30 -23 2 -27 -1 -27 -21z"/>
<path d="M512 754 c1 -9 9 -19 16 -22 9 -3 13 2 10 14 -1 9 -9 19 -16 22 -9 3
-13 -2 -10 -14z"/>
<path d="M1192 750 c0 -14 2 -19 5 -12 2 6 2 18 0 25 -3 6 -5 1 -5 -13z"/>
<path d="M1593 755 c-10 -11 -9 -13 7 -12 11 1 20 7 20 14 0 17 -12 16 -27 -2z"/>
<path d="M1631 754 c0 -11 3 -14 6 -6 3 7 2 16 -1 19 -3 4 -6 -2 -5 -13z"/>
<path d="M1648 747 c-3 -19 -2 -25 4 -19 6 6 8 18 6 28 -3 14 -5 12 -10 -9z"/>
<path d="M579 752 c12 -8 11 -11 -3 -15 -15 -4 -15 -5 1 -3 19 1 21 19 1 24
-10 3 -10 1 1 -6z"/>
<path d="M611 744 c0 -11 3 -14 6 -6 3 7 2 16 -1 19 -3 4 -6 -2 -5 -13z"/>
<path d="M695 749 c-4 -6 -4 -13 -1 -16 3 -4 6 0 6 8 0 11 2 11 10 -1 8 -13
10 -12 10 3 0 19 -15 23 -25 6z"/>
<path d="M730 751 c0 -6 5 -13 10 -16 6 -3 10 1 10 9 0 9 -4 16 -10 16 -5 0
-10 -4 -10 -9z"/>
<path d="M761 744 c0 -11 3 -14 6 -6 3 7 2 16 -1 19 -3 4 -6 -2 -5 -13z"/>
<path d="M781 744 c0 -11 3 -14 6 -6 3 7 2 16 -1 19 -3 4 -6 -2 -5 -13z"/>
<path d="M823 745 c0 -8 4 -12 9 -9 4 3 8 9 8 15 0 5 -4 9 -8 9 -5 0 -9 -7 -9
-15z"/>
<path d="M851 748 c-1 -10 6 -18 14 -18 8 0 15 8 15 18 0 13 -2 14 -9 3 -7
-11 -9 -11 -14 0 -4 10 -6 9 -6 -3z"/>
<path d="M2081 744 c0 -11 3 -14 6 -6 3 7 2 16 -1 19 -3 4 -6 -2 -5 -13z"/>
<path d="M3131 753 c-1 -6 -4 -20 -7 -30 -5 -17 -5 -17 6 0 6 10 9 23 6 30 -3
9 -5 9 -5 0z"/>
<path d="M2901 734 c0 -11 3 -14 6 -6 3 7 2 16 -1 19 -3 4 -6 -2 -5 -13z"/>
<path d="M3231 724 c0 -11 3 -14 6 -6 3 7 2 16 -1 19 -3 4 -6 -2 -5 -13z"/>
<path d="M661 703 c0 -6 -3 -18 -6 -26 -4 -8 0 -14 10 -14 8 0 15 5 15 11 0 6
4 5 9 -3 5 -8 16 -11 24 -8 10 4 17 -1 20 -11 3 -11 5 -8 6 8 1 20 3 22 11 10
8 -13 10 -12 10 2 0 15 -8 17 -45 14 -34 -2 -45 1 -48 13 -3 9 -5 11 -6 4z"/>
<path d="M1190 689 c0 -11 -4 -18 -8 -15 -4 2 -9 -6 -10 -20 -1 -15 3 -24 13
-24 11 0 15 11 15 40 0 22 -2 40 -5 40 -3 0 -5 -9 -5 -21z"/>
<path d="M4541 694 c0 -11 3 -14 6 -6 3 7 2 16 -1 19 -3 4 -6 -2 -5 -13z"/>
<path d="M400 685 c0 -8 5 -15 10 -15 6 0 10 7 10 15 0 8 -4 15 -10 15 -5 0
-10 -7 -10 -15z"/>
<path d="M430 688 c0 -21 50 -26 51 -5 0 6 4 3 9 -8 8 -19 9 -19 9 3 1 13 -5
22 -14 22 -8 0 -15 -6 -15 -12 0 -9 -4 -8 -10 2 -9 13 -10 13 -10 0 0 -13 -1
-13 -10 0 -8 13 -10 12 -10 -2z"/>
<path d="M1948 682 c-3 -11 0 -19 7 -19 7 0 10 8 7 19 -2 10 -6 18 -7 18 -1 0
-5 -8 -7 -18z"/>
<path d="M520 680 c0 -10 33 -19 62 -18 9 1 14 6 11 12 -3 6 0 5 8 -1 17 -17
26 -16 26 2 0 11 -10 15 -34 13 -18 -1 -33 -7 -33 -13 0 -6 -3 -7 -8 0 -10 14
-32 17 -32 5z"/>
<path d="M770 673 c0 -15 2 -16 10 -3 8 12 12 13 19 2 7 -11 9 -11 14 2 5 12
0 16 -18 16 -17 0 -25 -6 -25 -17z"/>
<path d="M830 675 c0 -8 2 -15 4 -15 2 0 6 7 10 15 3 8 1 15 -4 15 -6 0 -10
-7 -10 -15z"/>
<path d="M861 674 c0 -11 3 -14 6 -6 3 7 2 16 -1 19 -3 4 -6 -2 -5 -13z"/>
<path d="M1696 675 c4 -8 8 -15 10 -15 2 0 4 7 4 15 0 8 -4 15 -10 15 -5 0 -7
-7 -4 -15z"/>
<path d="M1750 675 c0 -8 2 -15 4 -15 2 0 6 7 10 15 3 8 1 15 -4 15 -6 0 -10
-7 -10 -15z"/>
<path d="M2401 674 c0 -11 3 -14 6 -6 3 7 2 16 -1 19 -3 4 -6 -2 -5 -13z"/>
<path d="M3291 674 c0 -11 3 -14 6 -6 3 7 2 16 -1 19 -3 4 -6 -2 -5 -13z"/>
<path d="M2010 669 c0 -5 5 -7 10 -4 6 3 10 8 10 11 0 2 -4 4 -10 4 -5 0 -10
-5 -10 -11z"/>
<path d="M3151 654 c0 -11 3 -14 6 -6 3 7 2 16 -1 19 -3 4 -6 -2 -5 -13z"/>
<path d="M1175 583 c-151 -30 -712 -28 -897 3 l-38 7 0 -83 c0 -73 2 -82 20
-87 17 -5 20 -14 20 -69 0 -63 0 -64 -27 -64 -27 -1 -27 -1 -8 -16 11 -8 20
-27 20 -42 0 -45 57 -54 385 -59 223 -4 310 -2 400 11 166 22 186 29 210 76
17 34 20 59 20 190 0 171 11 156 -105 133z m-455 -224 c0 -27 -4 -49 -10 -49
-5 0 -10 25 -10 56 0 34 4 53 10 49 6 -3 10 -28 10 -56z m-403 14 c-17 -18
-22 -8 -11 22 5 12 10 13 17 6 8 -8 6 -16 -6 -28z m177 -7 c3 -13 2 -35 -3
-48 l-9 -23 -5 25 c-8 38 -7 70 3 70 4 0 11 -11 14 -24z m112 -21 c1 -24 -2
-42 -7 -39 -15 9 -10 85 5 84 1 0 2 -20 2 -45z m-246 10 c0 -25 33 -55 60 -55
35 0 45 -10 45 -45 0 -27 -4 -30 -45 -37 -59 -11 -94 -3 -87 20 2 9 6 23 8 31
2 8 -5 17 -16 20 -11 3 -21 16 -23 29 -4 30 12 28 26 -3 6 -14 18 -25 27 -25
20 0 19 12 -5 42 -18 24 -18 38 2 38 4 0 8 -7 8 -15z m78 8 c-10 -2 -26 -2
-35 0 -10 3 -2 5 17 5 19 0 27 -2 18 -5z m122 -9 c0 -9 -7 -14 -17 -12 -25 5
-28 28 -4 28 12 0 21 -6 21 -16z m110 -10 c0 -20 -4 -25 -16 -20 -9 3 -18 6
-20 6 -2 0 -4 9 -4 20 0 13 7 20 20 20 15 0 20 -7 20 -26z m-225 -14 c3 -5 -3
-10 -15 -10 -12 0 -18 5 -15 10 3 6 10 10 15 10 5 0 12 -4 15 -10z m218 -75
c15 1 27 0 27 -1 0 -31 -36 -44 -58 -22 -9 9 -12 9 -12 0 0 -8 -17 -12 -45
-12 -25 0 -45 5 -45 10 0 7 -6 7 -20 0 -18 -9 -20 -8 -20 15 0 25 1 26 60 22
36 -3 63 0 67 6 4 7 9 5 12 -4 3 -8 18 -14 34 -14z m85 -20 c3 -17 1 -17 -7
-5 -10 13 -11 13 -11 0 0 -12 -2 -13 -9 -1 -7 11 -9 11 -14 0 -3 -8 -6 -4 -6
9 -1 19 4 23 21 20 14 -2 24 -11 26 -23z"/>
<path d="M1386 547 c-8 -65 -5 -252 4 -267 4 -6 28 -12 54 -13 35 -2 46 -6 46
-18 0 -16 19 -29 41 -29 5 0 9 7 9 15 0 8 5 15 10 15 6 0 10 4 10 9 0 4 -22
11 -49 14 -53 6 -111 31 -111 47 0 9 66 16 94 11 5 -1 4 4 -3 13 -8 10 -9 16
-1 21 16 10 12 28 -6 21 -13 -5 -15 0 -11 35 4 34 1 42 -14 46 -19 5 -37 63
-24 82 3 6 1 11 -4 11 -6 0 -11 6 -11 14 0 8 -6 16 -14 19 -10 4 -16 -8 -20
-46z m131 -309 c-3 -8 -6 -5 -6 6 -1 11 2 17 5 13 3 -3 4 -12 1 -19z"/>
<path d="M1758 543 c18 -2 45 -2 60 0 15 2 0 4 -33 4 -33 0 -45 -2 -27 -4z"/>
<path d="M1780 506 c0 -2 7 -6 15 -10 8 -3 15 -1 15 4 0 6 -7 10 -15 10 -8 0
-15 -2 -15 -4z"/>
<path d="M1848 503 c-16 -2 -28 -9 -28 -14 0 -12 50 -6 77 10 17 10 17 10 -2
9 -11 0 -32 -3 -47 -5z"/>
<path d="M22 375 c-1 -44 2 -85 6 -92 4 -7 6 20 4 60 -5 108 -9 122 -10 32z"/>
<path d="M2411 434 c0 -11 3 -14 6 -6 3 7 2 16 -1 19 -3 4 -6 -2 -5 -13z"/>
<path d="M2330 386 c0 -33 -44 -42 -59 -12 -10 19 -10 18 -8 -9 l2 -30 78 -3
77 -3 0 30 c0 24 -3 28 -20 24 -11 -3 -20 -9 -20 -14 0 -20 -18 -7 -24 16 -8
32 -26 33 -26 1z"/>
<path d="M217 393 c-11 -10 -8 -93 2 -93 6 0 11 17 13 38 2 23 8 36 16 35 6
-2 12 4 12 12 0 15 -31 21 -43 8z"/>
<path d="M1510 350 c0 -5 5 -10 10 -10 6 0 10 5 10 10 0 6 -4 10 -10 10 -5 0
-10 -4 -10 -10z"/>
<path d="M2403 301 c-29 -25 -29 -31 2 -31 20 0 25 5 25 25 0 30 1 29 -27 6z"/>
<path d="M1792 280 c27 -11 55 -17 65 -13 14 6 10 9 -17 16 -79 19 -97 18 -48
-3z"/>
<path d="M2265 290 c3 -5 25 -9 48 -9 40 1 40 2 12 9 -44 11 -67 11 -60 0z"/>
<path d="M2115 260 c16 -5 41 -7 55 -5 14 3 19 2 12 -1 -10 -5 -10 -9 -1 -20
9 -11 9 -18 -1 -29 -11 -13 -8 -14 21 -9 73 12 79 14 79 33 0 25 -19 31 -115
36 -60 4 -73 3 -50 -5z m115 -25 c0 -8 -4 -15 -9 -15 -5 0 -11 7 -15 15 -3 9
0 15 9 15 8 0 15 -7 15 -15z"/>
<path d="M2300 260 c-8 -5 -12 -11 -9 -14 3 -3 14 1 25 9 21 16 8 20 -16 5z"/>
<path d="M1755 229 c-11 -16 -1 -19 13 -3 7 8 8 14 3 14 -5 0 -13 -5 -16 -11z"/>
<path d="M1795 221 c-9 -31 5 -51 36 -51 16 0 29 5 29 13 0 6 3 22 6 35 6 20
3 22 -29 22 -26 0 -37 -5 -42 -19z m45 -15 c0 -2 -7 -6 -15 -10 -8 -3 -15 -1
-15 4 0 6 7 10 15 10 8 0 15 -2 15 -4z"/>
<path d="M2120 225 c7 -9 15 -13 17 -11 7 7 -7 26 -19 26 -6 0 -6 -6 2 -15z"/>
<path d="M1430 215 c14 -8 34 -14 45 -14 11 0 2 6 -20 14 -50 18 -57 18 -25 0z"/>
<path d="M2026 223 c5 -5 12 -12 15 -16 3 -5 9 -2 12 7 5 12 0 16 -15 16 -12
0 -17 -3 -12 -7z"/>
<path d="M2328 203 c7 -3 16 -2 19 1 4 3 -2 6 -13 5 -11 0 -14 -3 -6 -6z"/>
<path d="M1508 193 c7 -3 16 -2 19 1 4 3 -2 6 -13 5 -11 0 -14 -3 -6 -6z"/>
<path d="M1568 183 c6 -2 18 -2 25 0 6 3 1 5 -13 5 -14 0 -19 -2 -12 -5z"/>
</g>
</svg>
