<?xml version="1.0" encoding="iso-8859-1"?>
<!-- Generator: Adobe Illustrator 19.0.0, SVG Export Plug-In . SVG Version: 6.00 Build 0)  -->
<svg version="1.1" id="Layer_1" xmlns="http://www.w3.org/2000/svg" xmlns:xlink="http://www.w3.org/1999/xlink" x="0px" y="0px"
	 viewBox="0 0 511.999 511.999" style="enable-background:new 0 0 511.999 511.999;" xml:space="preserve">
<polygon style="fill:#F95428;" points="452.883,324.734 120.878,324.734 90.944,109.621 482.818,109.621 "/>
<polygon style="fill:#E54728;" points="452.883,300.635 120.878,300.635 94.298,109.621 90.944,109.621 120.878,324.734
	452.883,324.734 482.818,109.621 479.465,109.621 "/>
<g>
	<circle style="fill:#666666;" cx="141.705" cy="438.669" r="32.509"/>
	<circle style="fill:#666666;" cx="467.445" cy="438.669" r="32.509"/>
</g>
<g>
	<path style="fill:#333333;" d="M467.441,394.11c-20.393,0-37.619,13.778-42.89,32.509H184.597
		c-3.286-11.68-11.212-21.436-21.668-27.124l52.184-62.712h237.77c6.013,0,11.106-4.433,11.934-10.389l29.935-215.113
		c0.48-3.452-0.558-6.943-2.845-9.572c-2.288-2.629-5.603-4.138-9.089-4.138H101.37l-8.493-58.483
		c-0.86-5.925-5.939-10.318-11.924-10.318H12.05C5.396,28.77,0,34.165,0,40.82s5.396,12.05,12.05,12.05h58.476l8.493,58.483
		c0,0.002,0.001,0.005,0.001,0.007l29.924,215.036c0.829,5.955,5.921,10.389,11.934,10.389h62.883l-48.047,57.741
		c-21.745,2.938-38.565,21.608-38.565,44.144c0,24.569,19.989,44.559,44.559,44.559c20.393,0,37.618-13.778,42.889-32.509h239.956
		c5.271,18.731,22.496,32.509,42.889,32.509c24.571,0,44.559-19.989,44.559-44.559C512,414.1,492.011,394.11,467.441,394.11z
		 M104.787,121.671h364.187l-26.582,191.013H131.367L104.787,121.671z M141.708,459.129c-11.281,0-20.459-9.178-20.459-20.459
		s9.178-20.459,20.459-20.459s20.459,9.178,20.459,20.459S152.989,459.129,141.708,459.129z M467.441,459.129
		c-11.281,0-20.459-9.178-20.459-20.459s9.177-20.459,20.459-20.459s20.459,9.178,20.459,20.459S478.722,459.129,467.441,459.129z"
		/>
	<path style="fill:#333333;" d="M285.436,172.814c0-23.667-19.254-42.92-42.92-42.92s-42.92,19.254-42.92,42.92
		s19.254,42.92,42.92,42.92S285.436,196.479,285.436,172.814z M223.696,172.814c0-10.377,8.443-18.82,18.82-18.82
		s18.82,8.443,18.82,18.82s-8.443,18.82-18.82,18.82S223.696,183.191,223.696,172.814z"/>
	<path style="fill:#333333;" d="M331.245,218.623c-23.666,0-42.919,19.254-42.919,42.92c0,23.666,19.254,42.92,42.919,42.92
		c23.667,0,42.92-19.254,42.92-42.92C374.164,237.877,354.911,218.623,331.245,218.623z M331.245,280.363
		c-10.377,0-18.819-8.443-18.819-18.82c0-10.377,8.442-18.82,18.819-18.82s18.82,8.443,18.82,18.82
		C350.065,271.92,341.623,280.363,331.245,280.363z"/>
	<path style="fill:#333333;" d="M334.691,169.367c-4.707-4.705-12.334-4.705-17.042,0l-78.579,78.579
		c-4.705,4.705-4.705,12.335,0,17.042c2.353,2.353,5.437,3.529,8.52,3.529c3.084,0,6.167-1.176,8.52-3.529l78.579-78.579
		C339.396,181.704,339.396,174.074,334.691,169.367z"/>
</g>
<g>
</g>
<g>
</g>
<g>
</g>
<g>
</g>
<g>
</g>
<g>
</g>
<g>
</g>
<g>
</g>
<g>
</g>
<g>
</g>
<g>
</g>
<g>
</g>
<g>
</g>
<g>
</g>
<g>
</g>
</svg>
